<svg id="oster" xmlns="http://www.w3.org/2000/svg" width="47.255" height="18.155" viewBox="0 0 47.255 18.155">
  <path id="Path_4303" data-name="Path 4303" d="M11.449-138.726c-4.648.773-9.257,5.512-10.2,10.5a9.673,9.673,0,0,0,.209,4.439c1.532,3.98,7.568,4.151,11.64.314a15.641,15.641,0,0,0,3.3-4.412c.759-1.506,1.1-1.951,1.466-1.951.2,0,.236.065.17.275-.275.838.34,1.663,1.859,2.488,1.178.655,1.741,1.27,1.741,1.9,0,1.126-1.938,1.885-3.313,1.322-.55-.236-.733-.484-1.008-1.3a1.633,1.633,0,0,0-.354-.72c-.065-.026-.314.288-.524.707-.681,1.3-.694,1.27.275,1.741,2.959,1.466,7.542-.458,7.542-3.142,0-1.152-.628-1.925-2.383-2.92-1.074-.615-1.872-.746-4.753-.746-3.849,0-5-.236-5.408-1.087-.144-.288-.144-.524.013-1.336a7.041,7.041,0,0,0,.144-.982,2.327,2.327,0,0,0-.3.5A5.972,5.972,0,0,1,7.6-130.53c-.9.21-.93.223-.511.314a2.36,2.36,0,0,1,1.375.956c.236.3.275.55.275,1.506v1.139l.354-.563a7.746,7.746,0,0,1,1.872-2,4.049,4.049,0,0,1,2.095-.445l.288.079-.249.668c-1.283,3.378-3.142,5.918-5.028,6.848a2.52,2.52,0,0,1-1.755.419,1.537,1.537,0,0,1-1.257-.511c-1.453-1.4-.93-5.054,1.375-9.65,2.239-4.465,5.264-7.057,7.084-6.075,1.309.694,1.676,3.574.773,6.167a6.118,6.118,0,0,0-.236.851,18.467,18.467,0,0,0,1.9.131l1.833.092.17-.5a10.4,10.4,0,0,0,.236-1.9,5.289,5.289,0,0,0-.982-3.836C15.953-138.5,13.976-139.145,11.449-138.726Z" transform="translate(-1.091 138.85)" fill="#fff"/>
  <path id="Path_4304" data-name="Path 4304" d="M186.659-115.488a7.87,7.87,0,0,1-2.422,1.938,11.779,11.779,0,0,1-1.336.589c-.419.118-.354.367.092.367a.663.663,0,0,1,.458.118c.157.236-.327,1.4-1.218,2.946-1.283,2.239-1.61,3-1.637,3.81a1.565,1.565,0,0,0,.733,1.584c.825.432,2.776.079,4.4-.812l.825-.445.327.38c1.152,1.375,4.033,1.309,6.193-.131.773-.511,1.584-1.466,1.414-1.637-.039-.052-.367.079-.707.275-2.016,1.178-2.318,1.3-3.077,1.309-1.231,0-1.781-.628-1.611-1.859.131-.877.367-1.061,1.7-1.283,3.247-.55,4.622-1.309,5.866-3.273.432-.668.877-.877,1.322-.628.249.144-.354,1.755-1.938,5.211-.628,1.362-1.178,2.566-1.218,2.645-.052.131.3.17,1.506.17h1.571l.209-.563a29.9,29.9,0,0,1,1.6-3.98,3.543,3.543,0,0,1,2.946-2.095l.746-.079.471-1.218c.262-.681.471-1.257.471-1.3s-.1-.065-.223-.065a3.706,3.706,0,0,0-2.056.9c-.458.354-.89.668-.956.707s-.1-.157-.065-.55c.052-.589.026-.655-.314-.877-.668-.445-1.794-.327-3.129.314l-1.126.55-.484-.314c-1.951-1.27-5.146-.773-7.358,1.139a9.1,9.1,0,0,0-2.016,2.71,4.379,4.379,0,0,0-.445,1.99l-.052,1.126-.668.275a3.219,3.219,0,0,1-.9.275c-.367,0-.759-.236-.759-.471a20.9,20.9,0,0,1,1.807-4.543l1.113-2.318h.838c.956,0,1.349-.157,1.349-.524,0-.236-.092-.262-.746-.262-1.2,0-1.2,0-.393-1.872.563-1.309.668-1.663.5-1.65A8.736,8.736,0,0,0,186.659-115.488Zm7.476,3.182a3.481,3.481,0,0,1-2.187,2.828,9.931,9.931,0,0,1-2.265.759,34.518,34.518,0,0,1,1.689-3.011,5.635,5.635,0,0,1,.72-.615,1.7,1.7,0,0,1,1.283-.38h.759Z" transform="translate(-157.093 119.776)" fill="#fff"/>
  <path id="Path_4305" data-name="Path 4305" d="M138.095-91.408a6.582,6.582,0,0,0-2.37,1.021c-.249.223-.668.943-.589,1.008.026.013.458.065.982.1l.943.079.079-.367c.157-.746,1-1.244,2.095-1.244,1.27.013,2.147.668,1.977,1.506-.092.471.157.511.537.079a6.858,6.858,0,0,0,.825-1.859C142.573-91.329,139.1-91.591,138.095-91.408Z" transform="translate(-117.576 97.673)" fill="#fff"/>
  <path id="Path_4306" data-name="Path 4306" d="M326.588-34.76a.9.9,0,0,0,.275,1.519A.9.9,0,0,0,328-33.818C328.264-34.564,327.151-35.31,326.588-34.76Zm1.178.262a.715.715,0,0,1-.288,1.061c-.288.2-.34.2-.628,0a.715.715,0,0,1-.288-1.061.669.669,0,0,1,.6-.327A.669.669,0,0,1,327.766-34.5Z" transform="translate(-283.706 48.554)" fill="#fff"/>
  <path id="Path_4307" data-name="Path 4307" d="M330.558-31.93a1.8,1.8,0,0,0,.026.969c.065.039.118-.144.118-.393s.065-.471.144-.471.1.1.065.236a.569.569,0,0,0,.092.471c.17.223.183.2.17-.262-.026-.419-.079-.524-.314-.55C330.7-31.957,330.571-31.957,330.558-31.93Z" transform="translate(-287.374 45.947)" fill="#fff"/>
</svg>
