<svg id="riviera" xmlns="http://www.w3.org/2000/svg" width="44.605" height="13.813" viewBox="0 0 44.605 13.813">
  <path id="Path_4308" data-name="Path 4308" d="M56.709-102.451a18.9,18.9,0,0,0-4.616,2.773,6.368,6.368,0,0,0,1.657-.651c1.992-.912,3.22-1.34,3.406-1.135a15.47,15.47,0,0,1-2.215,2.494C52.745-96.737,52-95.881,52-95.545c0,.3.968.13,1.861-.316a9.253,9.253,0,0,1,.986-.465,1.861,1.861,0,0,1,.168.819A6.492,6.492,0,0,0,56.3-92.623l.372.447.558-.54a22.291,22.291,0,0,0,3.35-4.653c.726-1.563.931-3.239.465-4.151C60.357-102.823,58.887-103.139,56.709-102.451Z" transform="translate(-47.356 102.805)" fill="#fff"/>
  <path id="Path_4309" data-name="Path 4309" d="M29.406-76.61c-1.75,2.345-2.643,4.783-2.271,6.235.112.447.354-.056,1.694-3.369.856-2.14,1.526-3.927,1.489-3.965A6.641,6.641,0,0,0,29.406-76.61Z" transform="translate(-27.052 82.381)" fill="#fff"/>
  <path id="Path_4310" data-name="Path 4310" d="M181.709-70.712c-1.694.056-2.289.13-2.289.3a17.015,17.015,0,0,1-1.21,2.364c-.67,1.173-1.21,2.14-1.21,2.178a21.294,21.294,0,0,0,2.289.056,6.026,6.026,0,0,0,2.531-.242c.2-.168.242-.168.13,0-.093.186.168.242,1.08.242q1.228,0,1.228-.223c0-.447.782-1.824,1.042-1.824.316,0,.354.856.074,1.563l-.186.484h3.276l.558-.745c.5-.689.6-.745,1.545-.745,1.061,0,1.08.056.67,1.154-.074.186.186.261,1.08.3l1.191.037.13-1.805a12.772,12.772,0,0,0,0-2.438c-.112-.558-.168-.6-.931-.6-.782,0-.875.074-2.9,2.1l-2.1,2.085.019-.875c0-.8.074-.931.633-1.321.875-.577,1.284-1.3.949-1.694-.2-.242-.67-.3-2.513-.3H184.52l-.875,1.712a20.032,20.032,0,0,1-1.266,2.2c-.2.261-.335.354-.261.223.112-.2-.13-.223-1.191-.112a3.744,3.744,0,0,1-1.322,0,4.545,4.545,0,0,1,.391-.893l.391-.745.986.074c.763.056,1.042.019,1.117-.186.186-.484.093-.54-.838-.447-.5.037-.931.019-.931-.074a2.511,2.511,0,0,1,.428-.707c.409-.5.484-.521,1.359-.372,1.284.2,1.247.223,1.4-.354a2.775,2.775,0,0,0,.112-.465C184-70.787,182.956-70.731,181.709-70.712Zm5.528.949c0,.428-.465.875-1.173,1.135-.614.242-.67,0-.13-.875C186.362-70.191,187.237-70.358,187.237-69.763ZM191.7-68.7c0,.633-.019.651-.689.651h-.689l.633-.651a6.533,6.533,0,0,1,.689-.651A1.8,1.8,0,0,1,191.7-68.7Z" transform="translate(-149.091 76.762)" fill="#fff"/>
  <path id="Path_4311" data-name="Path 4311" d="M84.736-68.716c-.5.707-1.322,1.75-1.824,2.308A7.978,7.978,0,0,0,82-65.272a3.528,3.528,0,0,0,1.21.112h1.21l.651-1.024a3.768,3.768,0,0,1,.838-1.024c.279,0,.223.875-.093,1.489l-.3.558h2.364L88.1-66a6.077,6.077,0,0,0,.223-1.21c0-.223.223-.484.614-.67a6.32,6.32,0,0,0,1.135-.8l.521-.484-.5,1.024c-.279.558-.8,1.47-1.135,1.992l-.633.986h2.327l.447-1.024c.242-.558.782-1.638,1.228-2.42l.8-1.4H92.014c-.968,0-1.135.056-1.21.372l-.112.391-.261-.391C90.19-69.963,89.985-70,87.9-70l-2.271.019Zm3.536-.409c.168.484-1.619,1.6-1.973,1.266a2.557,2.557,0,0,1,.54-.838C87.435-69.46,88.1-69.646,88.272-69.125Z" transform="translate(-71.773 76.106)" fill="#fff"/>
  <path id="Path_4312" data-name="Path 4312" d="M141.307-68.995a11.566,11.566,0,0,0-.149,2.364l.056,1.377.745.056c.707.037.838-.037,2.42-1.508a30.048,30.048,0,0,0,2.382-2.438l.707-.856h-.633c-.577,0-.726.112-1.21.875-.782,1.191-2.382,2.755-2.55,2.475a6.279,6.279,0,0,1,.391-2.755l.242-.6h-2.2Z" transform="translate(-119.912 76.106)" fill="#fff"/>
  <path id="Path_4313" data-name="Path 4313" d="M165.14-69.181a21.31,21.31,0,0,1-1.228,2.364c-.5.838-.912,1.563-.912,1.6a6.566,6.566,0,0,0,1.08.056h1.061l.782-1.638a26.728,26.728,0,0,1,1.266-2.42l.484-.782h-2.215Z" transform="translate(-137.696 76.106)" fill="#fff"/>
  <path id="Path_4314" data-name="Path 4314" d="M36.113-50.878c-2.327,2.327-2.345,2.438-.54,2.42a10.765,10.765,0,0,0,4.113-1.266c.316-.242.3-.316-.316-1.117a5.093,5.093,0,0,1-.782-1.508c-.056-.354-.168-.651-.242-.651C38.291-53,37.286-52.051,36.113-50.878Z" transform="translate(-32.94 62.27)" fill="#fff"/>
</svg>
