<svg id="samsung" xmlns="http://www.w3.org/2000/svg" width="42.58" height="13.981" viewBox="0 0 42.58 13.981">
  <path id="Path_4315" data-name="Path 4315" d="M28.789-128.5c-6.987.394-15.636,2.2-20.731,4.308l-.656.273.47.011c.842,0,1.334.4,1.334,1.082,0,.328-.011.339-.536.339-.47,0-.547-.033-.579-.23-.077-.514-.744-.558-.744-.055,0,.219.142.361.754.722.973.558,1.214.864,1.214,1.52,0,.864-.525,1.323-1.531,1.323-1.05,0-1.64-.448-1.64-1.225v-.415h.59c.59,0,.6,0,.634.361.033.306.077.35.383.383.273.022.361-.011.415-.2.1-.3-.142-.569-.886-.995-1.05-.59-1.367-1.246-.984-1.979.153-.3.131-.284-.94.251-3.105,1.553-4.9,3.127-5.183,4.538-.175.875.492,1.837,1.673,2.427,2.056,1.028,4.855,1.465,9.327,1.476a69.462,69.462,0,0,0,17.276-2.285c1.9-.492,5.478-1.64,6.724-2.165l.656-.273-.547-.011a1.278,1.278,0,0,1-1.378-.853,7.382,7.382,0,0,1-.087-1.695c.044-1.268.044-1.279.394-1.618a1.221,1.221,0,0,1,.94-.4c1.093-.087,1.826.372,1.826,1.137,0,.372,0,.372-.536.372-.5,0-.536-.011-.6-.339-.055-.3-.1-.328-.415-.3l-.361.033-.033,1.3c-.033,1.29.044,1.6.372,1.6.251,0,.481-.339.481-.722,0-.3-.044-.372-.219-.372s-.219-.077-.219-.328v-.328h1.531V-121a3.9,3.9,0,0,1-.109,1.039c-.066.109-.077.208-.033.208s.59-.273,1.2-.59c6.21-3.269,6.254-6.364.109-7.665A42.426,42.426,0,0,0,28.789-128.5Zm-5.861,4.745a.885.885,0,0,1,.6.929c0,.328-.011.339-.547.339-.459,0-.547-.033-.547-.208a.414.414,0,0,0-.547-.394.319.319,0,0,0-.219.339c0,.208.12.328.569.569a5.08,5.08,0,0,1,.984.689.979.979,0,0,1,.415.94,1.645,1.645,0,0,1-.175.787,2,2,0,0,1-2.231.383,1.16,1.16,0,0,1-.765-1.137c0-.328,0-.328.6-.328.525,0,.6.033.6.208,0,.394.131.558.437.558a.377.377,0,0,0,.383-.536,2.148,2.148,0,0,0-.689-.558c-.853-.5-1.214-.853-1.29-1.257a1.259,1.259,0,0,1,.623-1.29A2.59,2.59,0,0,1,22.928-123.757Zm-10.059.2c.2.8.776,4.144.733,4.188a2.389,2.389,0,0,1-1.148-.033c-.033-.044-.164-.875-.306-1.848a12.738,12.738,0,0,0-.306-1.728c-.022.033-.153.8-.3,1.706s-.273,1.717-.306,1.8-.241.153-.612.153c-.678,0-.667.131-.164-2.46.208-1.082.383-1.979.383-2s.437-.022.984-.022C12.76-123.8,12.814-123.79,12.869-123.56Zm3.608.109c.033.2.153.9.262,1.564s.23,1.126.262,1.039.142-.656.241-1.257c.3-1.9.153-1.695,1.214-1.695h.918l.022,2.023c.011,1.115.022,2.11.022,2.209.011.164-.1.208-.558.23l-.579.033-.011-1.892-.011-1.892-.306,1.64c-.459,2.384-.35,2.154-1.017,2.11l-.569-.033-.339-1.859-.35-1.859-.011,1.892-.011,1.892-.569-.033-.58-.033v-.525c.011-.284.022-1.279.033-2.209l.022-1.695h1.848Zm9.37,1.476.033,1.837h.656l.033-1.837.022-1.826h1.2v1.8c0,2.132-.066,2.34-.82,2.624a1.766,1.766,0,0,1-2.209-.612,7.158,7.158,0,0,1-.142-2.045V-123.8h1.2Zm5.292-.186.47,1.585v-1.618l.011-1.607h1.093v4.374h-1.6l-.492-1.618-.481-1.607-.033,1.607-.033,1.618H29v-4.385l.842.033.842.033Z" transform="translate(-0.147 128.564)" fill="#fff"/>
</svg>
