<svg id="sony" xmlns="http://www.w3.org/2000/svg" width="35.79" height="6.536" viewBox="0 0 35.79 6.536">
  <path id="Path_4316" data-name="Path 4316" d="M263.146-622.761a5.415,5.415,0,0,0-1.46.35,1.974,1.974,0,0,0-1.222,1.13,1.868,1.868,0,0,0,.008.937,1.984,1.984,0,0,0,1.717,1.27c.394.081,1.119.185,1.969.283.417.047.875.1,1.021.129.713.109.951.274.951.654a.633.633,0,0,1-.19.442,3.258,3.258,0,0,1-1.882.414,5.808,5.808,0,0,1-1.67-.361,1.568,1.568,0,0,1-1-1.041c-.042-.266.006-.24-.428-.232l-.383.008-.008,1.138-.006,1.141h.9v-.176c0-.3,0-.3.587-.076a7.256,7.256,0,0,0,1.343.369,3.929,3.929,0,0,0,.867.062,5.12,5.12,0,0,0,1.371-.143c1.4-.338,2.05-.968,2.008-1.952a1.66,1.66,0,0,0-.906-1.429,8.7,8.7,0,0,0-3.1-.655,5.139,5.139,0,0,1-1.5-.255.42.42,0,0,1-.131-.654c.313-.456,1.7-.649,2.847-.4.929.2,1.463.568,1.656,1.138l.059.171h.694v-2.014h-.783v.129c0,.148-.039.235-.106.235a1.052,1.052,0,0,1-.229-.087A5.844,5.844,0,0,0,263.146-622.761Z" transform="translate(-260.408 622.786)" fill="#fff"/>
  <path id="Path_4317" data-name="Path 4317" d="M569.708-622.561a4.731,4.731,0,0,0-2.895,1.3,3.615,3.615,0,0,0-.515.847,3.376,3.376,0,0,0-.143.509,3.265,3.265,0,0,0,.042,1.368,3.094,3.094,0,0,0,1.715,1.961c1.938.971,4.777.551,5.921-.878a3.4,3.4,0,0,0,.565-1.124,2.23,2.23,0,0,0,.076-.755,2.157,2.157,0,0,0-.076-.747,2.917,2.917,0,0,0-1.138-1.65,4.6,4.6,0,0,0-2.8-.847C570.164-622.58,569.823-622.575,569.708-622.561Zm1.138.884a2.249,2.249,0,0,1,1.645,1.281,2.7,2.7,0,0,1,0,2.17,2.292,2.292,0,0,1-1.055,1.06,2.708,2.708,0,0,1-2,.115,2.251,2.251,0,0,1-1.55-2.008,2.589,2.589,0,0,1,.255-1.421,2.254,2.254,0,0,1,1.58-1.194A3.694,3.694,0,0,1,570.846-621.677Z" transform="translate(-557.552 622.583)" fill="#fff"/>
  <path id="Path_4318" data-name="Path 4318" d="M897-609.639v.361l.414.011c.448.008.512.028.613.182a8.14,8.14,0,0,1,.059,1.91c.006,1.007,0,1.9-.008,1.983a.358.358,0,0,1-.084.215c-.064.064-.081.067-.5.067h-.434v.727H900.3v-.727h-.461a2.46,2.46,0,0,1-.526-.031c-.145-.064-.145-.064-.154-1.754-.006-.864,0-1.572.014-1.572s1.01.92,2.218,2.042l2.2,2.039.568,0h.565v-.358c0-.2-.014-1.278-.031-2.405-.022-1.538-.02-2.073,0-2.148.053-.157.131-.179.615-.179h.42V-610h-3.273v.727h.417a2.859,2.859,0,0,1,.5.031c.176.062.179.07.2,1.494.014.708.02,1.3.017,1.317s-.87-.78-1.924-1.771l-1.916-1.8H897Z" transform="translate(-879.194 610.358)" fill="#fff"/>
  <path id="Path_4319" data-name="Path 4319" d="M1234-609.636v.364h.372a1.088,1.088,0,0,1,.7.134c.092.062,1.734,1.961,2.235,2.584l.137.171-.008.668-.008.671-.078.067c-.076.064-.092.067-.526.067h-.445v.727h3.86v-.727h-.45c-.45,0-.531-.014-.6-.109a3.124,3.124,0,0,1-.036-.736v-.691l.277-.33a22.779,22.779,0,0,1,2.129-2.436c.112-.056.162-.062.565-.062h.442V-610H1239.4v.727h.263c.28,0,.352.028.352.14,0,.042-1.135,1.468-1.343,1.687-.045.048-.078.011-.7-.769a5.749,5.749,0,0,1-.722-.957.172.172,0,0,1,.045-.056c.034-.034.1-.045.308-.045h.263V-610H1234Z" transform="translate(-1206.769 610.358)" fill="#fff"/>
</svg>
