<svg id="tuko" xmlns="http://www.w3.org/2000/svg" width="46.961" height="19.33" viewBox="0 0 46.961 19.33">
  <path id="Path_4320" data-name="Path 4320" d="M.543-123.339l-.143.683,1.876.048c1.812.048,1.876.048,1.876.4a27.548,27.548,0,0,1-1.081,4.053l-.477,1.478,2.082-.048,2.082-.048.556-2.782.572-2.782,1.78-.048,1.764-.048.175-.493c.413-1.16.811-1.081-5.373-1.081H.67Z" transform="translate(-0.4 124.007)" fill="#fff"/>
  <path id="Path_4321" data-name="Path 4321" d="M72.944-123.2c-.048.191-.334,1.574-.636,3.084-.588,2.988-.572,3.322.191,3.672a36.337,36.337,0,0,0,5.277.175h4.912l.27-1.24c.143-.668.429-2.019.636-2.972.207-.97.429-2.035.477-2.384l.111-.636-1.955.032-1.955.032-.525,2.734c-.27,1.51-.54,2.829-.588,2.957-.064.159-.445.207-1.478.191a12.267,12.267,0,0,1-1.812-.127l-.413-.1.747-2.782a9.961,9.961,0,0,0,.572-2.813c-.1-.016-.986-.064-1.971-.1C73.1-123.516,73.007-123.516,72.944-123.2Z" transform="translate(-60.53 123.581)" fill="#fff"/>
  <path id="Path_4322" data-name="Path 4322" d="M227.946-123.332a5.258,5.258,0,0,0-1.446,3.7,5.344,5.344,0,0,0,.3,2.019l.3.763h8.186l.731-.731a4.89,4.89,0,0,0,1.176-5.309l-.366-1.033-4.165-.048L228.519-124Zm5.643,3.068-.4,2.146h-1.717c-1.288,0-1.685-.048-1.637-.207.032-.1.254-.985.477-1.939.223-.97.445-1.844.477-1.955.048-.127.525-.191,1.637-.191h1.558Z" transform="translate(-190.561 124.001)" fill="#fff"/>
  <path id="Path_4323" data-name="Path 4323" d="M148.51-122.809c-.032.111-.207.922-.4,1.8s-.509,2.321-.731,3.195c-.207.89-.381,1.7-.381,1.8,0,.111.636.175,1.971.175h1.971l.254-1.081c.127-.588.286-1.335.334-1.669.111-.556.143-.588.731-.588h.6l.747,1.59.747,1.59h1.892a5.24,5.24,0,0,0,1.876-.159,16.773,16.773,0,0,0-.715-1.812,17.371,17.371,0,0,1-.715-1.844,11.615,11.615,0,0,1,1.446-1.669L159.6-123h-3.958l-1.16,1.272c-1.065,1.176-1.192,1.272-1.78,1.272-.684,0-.731-.111-.477-1.113.079-.3.191-.747.238-1l.1-.429h-1.987C149.114-123,148.558-122.952,148.51-122.809Z" transform="translate(-123.698 123.16)" fill="#fff"/>
  <path id="Path_4324" data-name="Path 4324" d="M117.213-67.434a.2.2,0,0,1-.207.191,2.6,2.6,0,0,0-.827.54,7.726,7.726,0,0,1-1.144.842c-.286.159-.525.334-.525.4a3.474,3.474,0,0,0,1.351.127h1.351v3.5c0,3.465,0,3.513-.318,3.338-.3-.159-.318-.334-.318-3.179a12.631,12.631,0,0,0-.159-3.02c-.191,0-.493.572-.652,1.192l-.111.477-.016-.445c-.016-.318-.1-.429-.334-.429-.35,0-.413-.159-.143-.429.238-.238-1.335-.413-2.686-.27-.906.079-1.1.143-1.081.366.032.191.254.27.858.3.795.048.827.064.827.525v.461h2.066v1.764c0,1.542-.032,1.748-.254,1.669a2.485,2.485,0,0,0-.318-.1,6.755,6.755,0,0,1-.064-1.272v-1.272h-.477c-.366,0-.477.064-.477.318,0,.175-.111.318-.238.318-.191,0-.238.207-.238.874,0,.827-.016.874-.381.874a.744.744,0,0,0-.477.127c-.159.27.175.477.938.556a8.551,8.551,0,0,1,1.144.159,8.4,8.4,0,0,1,2.209,1.446,1.554,1.554,0,0,0,.62.35,7.521,7.521,0,0,0,1.844-1c1.542-1.033,1.605-1.049,2.543-1.017.858.032.954,0,.906-.254a.487.487,0,0,0-.413-.334c-.318-.048-.35-.143-.35-.922,0-.731-.048-.858-.3-.858-.223,0-.286-.079-.223-.318.079-.27,0-.318-.413-.318h-.493v1.192c0,1-.048,1.208-.3,1.351a2.151,2.151,0,0,1-.4.159,8.593,8.593,0,0,1-.1-1.748v-1.748h2.225v-.477c0-.461.016-.477.795-.477.668,0,.795-.048.795-.3s-.159-.318-1.033-.413a12.511,12.511,0,0,0-1.892,0c-.795.111-.874.143-.715.413.127.254.1.3-.159.3a.355.355,0,0,0-.366.35c-.048.286-.111.223-.254-.286-.159-.556-.429-.858-.763-.858-.032,0-.064,1.351-.064,2.988,0,2.893-.079,3.37-.509,3.37a43.948,43.948,0,0,1-.032-6.247l.111-.731,1.351-.048,1.351-.048-1.176-.779a18.02,18.02,0,0,1-1.526-1.1C117.372-67.466,117.213-67.53,117.213-67.434Z" transform="translate(-93.752 76.464)" fill="#fff"/>
  <path id="Path_4325" data-name="Path 4325" d="M71.951-49.753c-.7.048-.842.111-.795.334.048.238.35.27,2.448.318,2.162.032,2.416.016,2.655-.254.27-.286.238-.3-.938-.413A18.369,18.369,0,0,0,71.951-49.753Z" transform="translate(-59.902 61.628)" fill="#fff"/>
  <path id="Path_4326" data-name="Path 4326" d="M194.166-49.693c-.842.1-.858.111-.588.381.254.238.556.27,2.686.238,2.05-.048,2.384-.079,2.416-.3C198.744-49.772,196.375-49.931,194.166-49.693Z" transform="translate(-162.741 61.599)" fill="#fff"/>
  <path id="Path_4327" data-name="Path 4327" d="M69.98-33.7c.35.27.668.3,2.7.286,2.066-.032,2.321-.064,2.368-.318s-.159-.27-2.7-.27C69.63-34,69.6-33.984,69.98-33.7Z" transform="translate(-58.774 48.307)" fill="#fff"/>
  <path id="Path_4328" data-name="Path 4328" d="M195.17-33.73c.048.254.3.286,2.384.318,2.114.016,2.353-.016,2.607-.286.27-.3.223-.3-2.384-.3C195.329-34,195.123-33.984,195.17-33.73Z" transform="translate(-164.206 48.307)" fill="#fff"/>
  <path id="Path_4329" data-name="Path 4329" d="M83.572-18.651c.4.445,1.876.493,1.8.048-.048-.223-.254-.286-1.081-.318C83.27-18.969,83.27-18.969,83.572-18.651Z" transform="translate(-70.204 35.644)" fill="#fff"/>
  <path id="Path_4330" data-name="Path 4330" d="M201.26-18.841c-.334.54,1.272.7,1.748.159.286-.318.27-.318-.683-.318A2.146,2.146,0,0,0,201.26-18.841Z" transform="translate(-169.295 35.691)" fill="#fff"/>
</svg>
