<svg xmlns="http://www.w3.org/2000/svg" width="71.651" height="71.473" viewBox="0 0 71.651 71.473">
  <g id="american" transform="translate(-55.5 -1002.35)">
    <path id="path3078" d="M55.5,1002.35h71.474v38.584l-3.538,5.528,3.538,4.92v22.443H55.5v-36.372l2.211-2.543-2.211-2.432Z" transform="translate(0 0)" fill="#016fd0"/>
    <path id="path3082" d="M249.14,1552.052v-11.221h11.881l1.275,1.662,1.317-1.662h43.126v10.447a4.981,4.981,0,0,1-2.432.774h-23.88l-1.437-1.769v1.769h-4.71v-3.02a3.95,3.95,0,0,1-2.034.422h-1.6v2.6h-7.131l-1.273-1.7-1.292,1.7Z" transform="translate(-179.766 -499.898)" fill="#fff"/>
    <path id="path3080" d="M55.5,1341.87l2.679-6.246h4.634l1.521,3.5v-3.5h5.76l.905,2.529.878-2.529H97.731v1.271a5.578,5.578,0,0,1,3.593-1.271l8.389.029,1.494,3.453v-3.483h4.82l1.327,1.984v-1.984h4.864v11.221h-4.864l-1.271-1.99v1.99H109l-.712-1.769h-1.9l-.7,1.769h-4.8a4.747,4.747,0,0,1-3.151-1.245v1.245H90.49l-1.437-1.769v1.769H62.126l-.712-1.769h-1.9l-.707,1.769H55.5Z" transform="translate(0 -309.394)" fill="#fff"/>
    <path id="path3046" d="M59.307,1354.93l-3.614,8.4h2.353l.667-1.682h3.876l.663,1.682h2.4l-3.61-8.4h-2.74Zm1.337,1.955,1.182,2.94H59.459Z" transform="translate(-0.179 -327.317)" fill="#016fd0"/>
    <path id="path3048" d="M198.223,1363.308v-8.4l3.343.012,1.945,5.417,1.9-5.43h3.317v8.4h-2.1v-6.191l-2.227,6.191h-1.842l-2.233-6.191v6.191Z" transform="translate(-132.497 -327.295)" fill="#016fd0"/>
    <path id="path3050" d="M364.861,1363.308v-8.4h6.854v1.88h-4.732v1.437H371.6v1.769h-4.621v1.492h4.732v1.824Z" transform="translate(-287.195 -327.295)" fill="#016fd0"/>
    <path id="path3052" d="M477.5,1354.93v8.4h2.1v-2.985h.884l2.519,2.985h2.567l-2.764-3.1a2.559,2.559,0,0,0,2.3-2.581,2.718,2.718,0,0,0-2.937-2.726Zm2.1,1.88H482a.964.964,0,0,1,.995.884.949.949,0,0,1-.964.884H479.6Z" transform="translate(-391.761 -327.317)" fill="#016fd0"/>
    <path id="path3054" d="M597.832,1363.308h-2.145v-8.4h2.145Z" transform="translate(-501.482 -327.295)" fill="#016fd0"/>
    <path id="path3056" d="M643.955,1363.308h-.463c-2.24,0-3.6-1.765-3.6-4.167,0-2.461,1.345-4.236,4.173-4.236h2.322v1.99h-2.407a2.021,2.021,0,0,0-1.96,2.266,2.057,2.057,0,0,0,2.266,2.311h.553Z" transform="translate(-542.52 -327.295)" fill="#016fd0"/>
    <path id="path3058" d="M713.566,1354.93l-3.614,8.4H712.3l.667-1.682h3.876l.663,1.682h2.4l-3.61-8.4h-2.74Zm1.337,1.955,1.182,2.94h-2.367Z" transform="translate(-607.56 -327.317)" fill="#016fd0"/>
    <path id="path3060" d="M852.433,1363.308v-8.4H855.1l3.41,5.279v-5.279h2.1v8.4H858.03l-3.5-5.417v5.417Z" transform="translate(-739.832 -327.295)" fill="#016fd0"/>
    <path id="path3062" d="M269.2,1568.528v-8.4h6.854v1.879h-4.732v1.437h4.621v1.769h-4.621v1.493h4.732v1.824Z" transform="translate(-198.387 -517.811)" fill="#016fd0"/>
    <path id="path3064" d="M737.947,1568.528v-8.4H744.8v1.879H740.07v1.437h4.6v1.769h-4.6v1.493H744.8v1.824Z" transform="translate(-633.549 -517.811)" fill="#016fd0"/>
    <path id="path3066" d="M367.544,1568.528l3.337-4.149-3.417-4.253h2.646l2.035,2.629,2.042-2.629h2.543l-3.372,4.2,3.344,4.2h-2.646l-1.976-2.588-1.928,2.588Z" transform="translate(-289.613 -517.81)" fill="#016fd0"/>
    <path id="path3068" d="M499.869,1560.14v8.4h2.156v-2.653h2.211c1.871,0,3.289-.992,3.289-2.923a2.765,2.765,0,0,0-3.016-2.826Zm2.156,1.9h2.329a.948.948,0,0,1,1.036.967.969.969,0,0,1-1.043.967h-2.322Z" transform="translate(-412.53 -517.823)" fill="#016fd0"/>
    <path id="path3072" d="M619.448,1560.12v8.4h2.1v-2.985h.884l2.519,2.985h2.567l-2.764-3.1a2.559,2.559,0,0,0,2.3-2.581,2.718,2.718,0,0,0-2.937-2.726Zm2.1,1.879h2.4a.964.964,0,0,1,.995.884.949.949,0,0,1-.964.885h-2.432Z" transform="translate(-523.541 -517.805)" fill="#016fd0"/>
    <path id="path3074" d="M843.731,1568.528V1566.7h4.2c.622,0,.891-.336.891-.7,0-.353-.269-.71-.891-.71h-1.9a2.349,2.349,0,0,1-2.571-2.517c0-1.347.842-2.646,3.3-2.646h4.091l-.885,1.89h-3.538c-.676,0-.884.355-.884.694a.732.732,0,0,0,.774.732h1.99c1.841,0,2.64,1.044,2.64,2.411a2.519,2.519,0,0,1-2.74,2.674Z" transform="translate(-731.506 -517.81)" fill="#016fd0"/>
    <path id="path3076" d="M951.328,1568.528V1566.7h4.2c.622,0,.891-.336.891-.7,0-.353-.268-.71-.891-.71h-1.9a2.349,2.349,0,0,1-2.571-2.517c0-1.347.842-2.646,3.3-2.646h4.091l-.885,1.89h-3.538c-.676,0-.884.355-.884.694a.732.732,0,0,0,.774.732h1.99c1.841,0,2.64,1.044,2.64,2.411a2.519,2.519,0,0,1-2.74,2.674Z" transform="translate(-831.394 -517.81)" fill="#016fd0"/>
  </g>
</svg>
