<svg id="diners" xmlns="http://www.w3.org/2000/svg" width="174.702" height="45.27" viewBox="0 0 174.702 45.27">
  <path id="Path_4211" data-name="Path 4211" d="M33.475,45.27c12.373.059,23.666-10.091,23.666-22.438C57.141,9.329,45.848,0,33.475,0H22.827C10.306,0,0,9.332,0,22.832A22.679,22.679,0,0,0,22.827,45.27Z" transform="translate(0 0)" fill="#0079be"/>
  <path id="Path_4212" data-name="Path 4212" d="M44.786,20.83A20.722,20.722,0,1,0,65.505,41.554,20.723,20.723,0,0,0,44.786,20.83ZM31.655,41.554h0A13.155,13.155,0,0,1,40.085,29.3V53.809A13.15,13.15,0,0,1,31.655,41.554Zm17.83,12.26h0V29.295a13.127,13.127,0,0,1,0,24.519Z" transform="translate(-21.909 -18.959)" fill="#fff"/>
  <path id="Path_4289" data-name="Path 4289" d="M44.786,20.83A20.722,20.722,0,1,0,65.505,41.554,20.723,20.723,0,0,0,44.786,20.83ZM31.655,41.554h0A13.155,13.155,0,0,1,40.085,29.3V53.809A13.15,13.15,0,0,1,31.655,41.554Zm17.83,12.26h0V29.295a13.127,13.127,0,0,1,0,24.519Z" transform="translate(-21.909 -18.959)" fill="#fff"/>
  <g id="letras" transform="translate(62.128 5.525)">
    <path id="Path_4213" data-name="Path 4213" d="M694.788,81.654c0-2.141-1.117-2-2.187-2.024v-.619c.928.046,1.879.046,2.809.046,1,0,2.357-.046,4.119-.046,6.163,0,9.52,4.117,9.52,8.333,0,2.358-1.38,8.285-9.807,8.285-1.213,0-2.334-.047-3.452-.047-1.071,0-2.119.023-3.19.047v-.618c1.427-.144,2.119-.191,2.187-1.811V81.654Zm2.334,11.167h0c0,1.833,1.31,2.047,2.476,2.047,5.143,0,6.832-3.881,6.832-7.429,0-4.451-2.857-7.664-7.451-7.664-.977,0-1.426.07-1.857.1V92.821Z" transform="translate(-692.519 -77.439)" fill="#fff"/>
    <path id="Path_4214" data-name="Path 4214" d="M885.022,92.344h.451c.666,0,1.143,0,1.143-.788V85.105c0-1.046-.357-1.192-1.238-1.665v-.382c1.118-.336,2.453-.785,2.546-.857a.846.846,0,0,1,.429-.12c.118,0,.167.144.167.335v9.14c0,.788.524.788,1.19.788h.4v.619c-.81,0-1.644-.048-2.5-.048s-1.715.023-2.594.048v-.619Zm2.546-13.929h0a1.168,1.168,0,0,1,0-2.335,1.167,1.167,0,0,1,1.167,1.145A1.19,1.19,0,0,1,887.568,78.415Z" transform="translate(-867.656 -74.771)" fill="#fff"/>
    <path id="Path_4215" data-name="Path 4215" d="M950.98,146.057c0-.88-.263-1.117-1.38-1.57v-.452a31.9,31.9,0,0,0,3.141-1.144c.071,0,.141.049.141.238v1.548c1.359-.975,2.526-1.787,4.123-1.787,2.021,0,2.735,1.477,2.735,3.333v6.142c0,.788.524.788,1.191.788h.429v.619c-.835,0-1.668-.048-2.523-.048s-1.716.023-2.572.048v-.619h.428c.668,0,1.142,0,1.142-.788V146.2c0-1.359-.829-2.025-2.188-2.025a6.361,6.361,0,0,0-2.764,1.143v7.045c0,.788.526.788,1.194.788h.428v.619c-.833,0-1.667-.048-2.524-.048s-1.715.023-2.571.048v-.619h.429c.666,0,1.142,0,1.142-.788v-6.309Z" transform="translate(-926.26 -135.581)" fill="#fff"/>
    <path id="Path_4216" data-name="Path 4216" d="M1083.3,147.2a5.784,5.784,0,0,0,0,1.381c.14,2.261,1.6,4.117,3.5,4.117a4.565,4.565,0,0,0,3.216-1.594l.332.334c-1.1,1.451-2.452,2.689-4.4,2.689-3.786,0-4.548-3.667-4.548-5.19,0-4.667,3.142-6.049,4.807-6.049a3.781,3.781,0,0,1,4.024,3.737,2.763,2.763,0,0,1-.022.43l-.216.143Zm4.214-.762h0c.594,0,.664-.31.664-.595a2.018,2.018,0,0,0-2.071-2.191c-1.451,0-2.45,1.07-2.736,2.785Z" transform="translate(-1046.394 -135.58)" fill="#fff"/>
    <path id="Path_4217" data-name="Path 4217" d="M1185.82,153.153h.643c.665,0,1.141,0,1.141-.788v-6.689c0-.737-.879-.881-1.238-1.072v-.356c1.738-.739,2.691-1.359,2.907-1.359.141,0,.211.072.211.311v2.142h.05c.594-.928,1.6-2.453,3.046-2.453a1.3,1.3,0,0,1,1.356,1.262,1.155,1.155,0,0,1-1.117,1.216c-.741,0-.741-.573-1.573-.573a2.01,2.01,0,0,0-1.737,1.977v5.593c0,.788.475.788,1.142.788h1.332v.619c-1.31-.024-2.306-.048-3.332-.048-.975,0-1.976.023-2.833.048v-.619Z" transform="translate(-1141.436 -135.58)" fill="#fff"/>
    <path id="Path_4218" data-name="Path 4218" d="M1283.508,150.462c.31,1.572,1.261,2.906,3,2.906a1.682,1.682,0,0,0,1.926-1.69c0-2.81-5.188-1.905-5.188-5.738,0-1.334,1.072-3.049,3.69-3.049a6.25,6.25,0,0,1,2.712.693l.169,2.426h-.549a2.443,2.443,0,0,0-2.595-2.356,1.673,1.673,0,0,0-1.856,1.571c0,2.788,5.522,1.928,5.522,5.666,0,1.571-1.262,3.239-4.095,3.239a6.271,6.271,0,0,1-2.9-.808l-.262-2.739.429-.121Z" transform="translate(-1229.959 -135.581)" fill="#fff"/>
    <path id="Path_4219" data-name="Path 4219" d="M1452.484,79.688h-.594c-.453-2.784-2.429-3.9-5.094-3.9-2.74,0-6.715,1.832-6.715,7.546,0,4.813,3.43,8.263,7.095,8.263a4.841,4.841,0,0,0,4.786-4.119l.546.142-.546,3.476a13.339,13.339,0,0,1-5.263,1.263c-5.569,0-9.091-3.6-9.091-8.952,0-4.881,4.355-8.382,9.021-8.382a17.171,17.171,0,0,1,5.617,1.265l.237,3.4Z" transform="translate(-1370.609 -73.807)" fill="#fff"/>
    <path id="Path_4220" data-name="Path 4220" d="M1612.778,79.083h.451c.667,0,1.145,0,1.145-.788V65.036c0-1.549-.357-1.6-1.263-1.858V62.8a15.153,15.153,0,0,0,2.452-1.025,2.493,2.493,0,0,1,.522-.262c.146,0,.193.144.193.335v16.45c0,.788.523.788,1.19.788h.4V79.7c-.806,0-1.639-.048-2.5-.048s-1.713.023-2.6.048v-.619Z" transform="translate(-1530.045 -61.51)" fill="#fff"/>
    <path id="Path_4221" data-name="Path 4221" d="M1679.7,156.09c0,.43.26.454.665.454.286,0,.642-.023.953-.023v.5a24.3,24.3,0,0,0-3.429.737l-.12-.072V155.76c-1.426,1.166-2.523,2-4.214,2a2.567,2.567,0,0,1-2.618-2.831v-6.1c0-.619-.094-1.214-1.426-1.333v-.453c.858-.023,2.759-.166,3.069-.166.264,0,.264.166.264.69v6.141c0,.716,0,2.763,2.069,2.763a5.316,5.316,0,0,0,2.879-1.45v-6.408c0-.474-1.142-.736-2-.975v-.428c2.14-.144,3.475-.333,3.711-.333.193,0,.193.166.193.429v8.783Z" transform="translate(-1581.681 -139.21)" fill="#fff"/>
    <path id="Path_4222" data-name="Path 4222" d="M1803.584,70.534a6.011,6.011,0,0,1,3.547-1.715c2.762,0,4.427,2.407,4.427,5,0,3.119-2.284,6.238-5.69,6.238a7.03,7.03,0,0,1-3.308-.833l-.713.546-.5-.26a28.16,28.16,0,0,0,.332-4.238V65.035c0-1.548-.359-1.6-1.263-1.857V62.8a15.035,15.035,0,0,0,2.452-1.025,2.46,2.46,0,0,1,.525-.262c.142,0,.189.144.189.335v8.689h0Zm0,6.475h0a2.561,2.561,0,0,0,2.451,2.431c2.547,0,3.618-2.5,3.618-4.621,0-2.571-1.95-4.713-3.807-4.713a3.66,3.66,0,0,0-2.262,1.121V77.01Z" transform="translate(-1700.83 -61.51)" fill="#fff"/>
    <path id="Path_4223" data-name="Path 4223" d="M692.3,330.472h.182c.465,0,.957-.063.957-.737v-6.787c0-.676-.492-.739-.957-.739H692.3v-.389c.506,0,1.283.051,1.919.051s1.423-.051,2.032-.051v.389h-.182c-.464,0-.957.064-.957.739v6.787c0,.675.493.737.957.737h.182v.391c-.622,0-1.4-.051-2.046-.051s-1.4.051-1.905.051v-.391Z" transform="translate(-692.244 -298.439)" fill="#fff"/>
    <path id="Path_4224" data-name="Path 4224" d="M695.691,330.336c-.626,0-1.4-.052-2.047-.052s-1.395.052-1.9.052h-.056v-.5h.237c.47-.011.9-.048.9-.682v-6.787c0-.633-.432-.676-.9-.684h-.237v-.5h.056c.509,0,1.285.051,1.919.051s1.42-.051,2.033-.051h.058v.5h-.239c-.47.009-.9.051-.9.684v6.787c0,.633.433.671.9.682h.239v.5Zm-.056-.111h0v-.277h-.126c-.463,0-1.013-.08-1.016-.8v-6.787c0-.716.553-.8,1.016-.8h.126v-.275c-.6,0-1.348.05-1.977.05s-1.36-.047-1.861-.05v.275h.124c.462,0,1.014.081,1.014.8v6.787c0,.716-.552.8-1.014.8H691.8v.277c.5-.005,1.233-.052,1.847-.052.63,0,1.38.049,1.991.052Z" transform="translate(-691.684 -297.856)" fill="#fff"/>
    <path id="Path_4225" data-name="Path 4225" d="M750.169,328.309l.026-.025v-4.858a1.068,1.068,0,0,0-1.127-1.218h-.286v-.389c.61,0,1.205.051,1.813.051.531,0,1.064-.051,1.594-.051v.389H752c-.545,0-1.154.1-1.154,1.645v5.9a8.582,8.582,0,0,0,.077,1.307h-.493l-6.669-7.436v5.338c0,1.127.218,1.514,1.217,1.514h.219v.391c-.556,0-1.112-.051-1.67-.051-.581,0-1.177.051-1.761.051v-.391h.181c.894,0,1.165-.607,1.165-1.643v-5.457a1.162,1.162,0,0,0-1.178-1.164h-.169v-.389c.492,0,1,.051,1.488.051.389,0,.765-.051,1.153-.051l5.766,6.489Z" transform="translate(-737.264 -298.438)" fill="#fff"/>
    <path id="Path_4226" data-name="Path 4226" d="M750.331,330.549l-.534-.02-6.573-7.327v5.192c.015,1.126.187,1.446,1.162,1.459h.278v.5h-.057c-.56,0-1.118-.052-1.671-.052-.58,0-1.175.052-1.762.052h-.057v-.5h.239c.856,0,1.1-.554,1.11-1.587v-5.456a1.11,1.11,0,0,0-1.123-1.11h-.226v-.5h.057c.495,0,1,.049,1.488.049.385,0,.761-.049,1.2-.031l5.693,6.409v-4.764c-.007-1.031-.694-1.155-1.072-1.164h-.343v-.5h.057c.612,0,1.208.049,1.813.049.527,0,1.058-.049,1.593-.049h.057v.5h-.25c-.534.015-1.083.062-1.1,1.59v5.895a8.488,8.488,0,0,0,.076,1.3l.013.066h-.067Zm-.492-.114h.428a8.661,8.661,0,0,1-.068-1.25V323.29c0-1.555.651-1.7,1.209-1.7h.137v-.275c-.51,0-1.022.05-1.537.05-.593,0-1.169-.047-1.756-.05v.275h.229a1.133,1.133,0,0,1,1.184,1.276l-.018,4.9-.026.027-.044.04-5.76-6.514c-.384,0-.76.05-1.154.05-.475,0-.961-.047-1.431-.05l0,.275h.115a1.219,1.219,0,0,1,1.232,1.222v5.456c0,1.036-.288,1.7-1.22,1.7l-.125,0v.279c.561-.005,1.138-.052,1.7-.052.541,0,1.079.047,1.614.052v-.276h-.163c-1.02,0-1.273-.447-1.274-1.574v-5.484l6.727,7.524Zm-.258-2.69h0l.041-.038Zm-.03-.025h0v0l-.011-.009Z" transform="translate(-736.676 -297.875)" fill="#fff"/>
    <path id="Path_4227" data-name="Path 4227" d="M863.312,318.39c-.973,0-1.01.234-1.2,1.178h-.389c.051-.362.116-.724.155-1.1a7.686,7.686,0,0,0,.077-1.1h.312c.1.389.428.375.779.375h6.682c.35,0,.674-.013.7-.4l.309.052c-.05.35-.1.7-.142,1.05-.023.349-.023.7-.023,1.048l-.39.145c-.027-.479-.092-1.246-.958-1.246H867.1v6.893c0,1,.454,1.113,1.073,1.113h.247v.391c-.5,0-1.413-.051-2.111-.051-.777,0-1.685.051-2.191.051V326.4h.247c.714,0,1.075-.064,1.075-1.086v-6.92h-2.125Z" transform="translate(-846.446 -294.362)" fill="#fff"/>
    <path id="Path_4228" data-name="Path 4228" d="M867.764,326.175c-.51,0-1.417-.052-2.113-.052-.776,0-1.682.052-2.191.052h-.054v-.5h.3c.714-.017,1-.026,1.018-1.03V317.78h-2.068v-.114h2.18v6.977c0,1.039-.419,1.144-1.13,1.145h-.19v.273c.511,0,1.382-.049,2.134-.049.676,0,1.541.047,2.053.049v-.273h-.19c-.626,0-1.13-.155-1.13-1.172v-6.95h2.181c.869,0,.983.743,1.011,1.223l.279-.1c0-.338,0-.676.025-1.018s.085-.664.134-.994l-.2-.033c-.06.377-.424.4-.75.393H862.32c-.3,0-.638-.014-.754-.376h-.214a7.663,7.663,0,0,1-.076,1.051c-.038.356-.1.7-.146,1.04h.278c.171-.9.282-1.2,1.248-1.182v.114c-.957.017-.938.179-1.149,1.136l-.01.044H861l.007-.067c.052-.363.118-.724.156-1.1a7.3,7.3,0,0,0,.079-1.09v-.057h.411l.009.04c.089.327.329.329.658.334h6.747c.361-.005.623-.011.646-.349l.005-.061.058.013.366.058-.008.057c-.052.347-.1.7-.141,1.045s-.026.7-.026,1.045v.04l-.036.014-.459.167,0-.075c-.034-.487-.085-1.191-.9-1.191H866.5v6.836c.012.977.4,1.045,1.017,1.057h.3v.5Z" transform="translate(-845.792 -293.696)" fill="#fff"/>
    <path id="Path_4229" data-name="Path 4229" d="M966.691,330.472h.182c.465,0,.958-.063.958-.737v-6.787c0-.676-.493-.739-.958-.739h-.182v-.389c.789,0,2.138.051,3.224.051s2.435-.051,3.315-.051c-.021.556-.01,1.413.029,1.982l-.391.1c-.062-.842-.217-1.514-1.578-1.514h-1.8v3.393h1.54c.777,0,.947-.439,1.023-1.141h.388q-.038.761-.039,1.517c0,.493.013.984.039,1.477l-.388.077c-.076-.777-.116-1.282-1.01-1.282h-1.552v3.017c0,.843.748.843,1.578.843,1.555,0,2.24-.105,2.629-1.58l.363.089c-.17.688-.324,1.373-.439,2.061-.83,0-2.32-.051-3.484-.051s-2.708.051-3.446.051v-.391Z" transform="translate(-941.99 -298.439)" fill="#fff"/>
    <path id="Path_4230" data-name="Path 4230" d="M973.065,330.355c-.832,0-2.321-.053-3.484-.053s-2.706.053-3.446.053h-.055v-.5h.236c.47-.007.9-.048.9-.682v-6.787c-.006-.632-.432-.675-.9-.684h-.236v-.5h.055c.79,0,2.138.049,3.224.049s2.433-.049,3.315-.049h.058l0,.057c-.009.195-.012.425-.012.669,0,.448.012.938.039,1.307l0,.047-.043.013-.455.119,0-.066c-.076-.841-.189-1.451-1.522-1.463H968.99l0,3.279h1.488c.746-.007.879-.389.967-1.087l0-.051h.5v.058c-.025.5-.041,1.01-.041,1.514s.016.982.041,1.475v.046l-.047.011-.45.09,0-.061c-.089-.79-.1-1.223-.956-1.233h-1.5v2.963c0,.787.68.782,1.524.787,1.559-.009,2.184-.084,2.575-1.54l.013-.052.055.01.415.107-.013.054c-.167.686-.322,1.371-.438,2.057l-.011.046Zm-.048-.113h0c.112-.653.26-1.309.419-1.961l-.256-.065c-.388,1.45-1.139,1.579-2.668,1.569-.816,0-1.633,0-1.637-.9v-3.074h1.61c.9-.01,1,.536,1.061,1.274l.28-.058c-.025-.477-.037-.956-.037-1.431s.012-.973.037-1.461h-.28c-.072.675-.283,1.149-1.072,1.14h-1.6v-3.507h1.858c1.347-.009,1.571.686,1.628,1.5l.279-.075c-.022-.366-.038-.834-.038-1.267,0-.222.005-.431.013-.614-.88,0-2.192.05-3.258.05s-2.375-.047-3.168-.05v.275h.126c.462,0,1.013.081,1.015.8v6.787c0,.714-.553.793-1.015.8h-.126v.273c.755,0,2.252-.049,3.39-.049s2.6.048,3.437.049Z" transform="translate(-941.434 -297.875)" fill="#fff"/>
    <path id="Path_4231" data-name="Path 4231" d="M1056.513,323.183c0-.945-.517-.984-.921-.984h-.233v-.39c.415,0,1.217.052,2.008.052s1.4-.052,2.085-.052c1.631,0,3.083.441,3.083,2.282a2.446,2.446,0,0,1-1.8,2.28l2.214,3.314a1.436,1.436,0,0,0,1.257.777v.391c-.427,0-.843-.051-1.269-.051-.4,0-.817.051-1.217.051a36.241,36.241,0,0,1-2.7-4.2h-.852v2.774c0,1,.464,1.035,1.06,1.035h.234v.391c-.74,0-1.488-.051-2.227-.051-.622,0-1.232.051-1.878.051v-.391h.233c.481,0,.921-.217.921-.7v-6.582Zm1.659,3.005h.633c1.3,0,1.994-.492,1.994-2.021a1.768,1.768,0,0,0-1.892-1.891,6.565,6.565,0,0,0-.735.052Z" transform="translate(-1022.694 -298.43)" fill="#fff"/>
    <path id="Path_4232" data-name="Path 4232" d="M1063.631,330.338c-.434,0-.846-.052-1.272-.052-.4,0-.808.052-1.26.031a36.152,36.152,0,0,1-2.682-4.175h-.765v2.714c.014.975.405.966,1,.981h.29v.5h-.057c-.74,0-1.492-.052-2.228-.052-.619,0-1.226.052-1.876.052h-.057v-.5h.289c.467,0,.861-.206.862-.642v-6.582c-.01-.92-.46-.914-.862-.928h-.289v-.5h.057c.419,0,1.219.051,2.007.051.773,0,1.4-.051,2.086-.051,1.632,0,3.136.454,3.14,2.335a2.482,2.482,0,0,1-1.773,2.308l2.176,3.259a1.39,1.39,0,0,0,1.218.752l.047.007v.494h-.056Zm-6.036-4.31h.885l.015.029a40.311,40.311,0,0,0,2.649,4.17c.4,0,.811-.053,1.214-.053s.813.045,1.216.051v-.284a1.482,1.482,0,0,1-1.247-.795l-2.254-3.373.064-.026a2.386,2.386,0,0,0,1.764-2.23c0-1.8-1.4-2.214-3.025-2.221-.684,0-1.305.051-2.086.051-.761,0-1.529-.048-1.953-.051v.275h.178c.4,0,.975.067.975,1.041v6.582c0,.52-.488.757-.975.758h-.178v.273c.624,0,1.214-.051,1.822-.051.725,0,1.455.049,2.172.051v-.273h-.177c-.591,0-1.117-.075-1.117-1.1v-2.828h.057Zm0-.356h-.057v-3.966l.049,0a6.35,6.35,0,0,1,.744-.05,1.83,1.83,0,0,1,1.949,1.948c0,1.547-.745,2.072-2.052,2.073h-.634Zm.634-.111h0c1.282-.011,1.928-.456,1.941-1.962a1.716,1.716,0,0,0-1.839-1.839,5.481,5.481,0,0,0-.68.047v3.754Z" transform="translate(-1022.119 -297.859)" fill="#fff"/>
    <path id="Path_4233" data-name="Path 4233" d="M1166.577,328.309l.023-.025v-4.858a1.067,1.067,0,0,0-1.125-1.218h-.284v-.389c.608,0,1.2.051,1.813.051.532,0,1.061-.051,1.6-.051v.389h-.195c-.544,0-1.153.1-1.153,1.645v5.9a8.585,8.585,0,0,0,.076,1.307h-.491l-6.67-7.436v5.338c0,1.127.22,1.514,1.217,1.514h.22v.391c-.556,0-1.114-.051-1.67-.051-.585,0-1.18.051-1.762.051v-.391h.18c.895,0,1.167-.607,1.167-1.643v-5.457a1.16,1.16,0,0,0-1.177-1.164h-.169v-.389c.491,0,1,.051,1.489.051.386,0,.763-.051,1.152-.051l5.765,6.489Z" transform="translate(-1116.271 -298.438)" fill="#fff"/>
    <path id="Path_4234" data-name="Path 4234" d="M1166.737,330.53l-.533-.018-6.574-7.328v5.191c.015,1.127.186,1.447,1.163,1.46h.274v.5h-.057c-.56,0-1.116-.053-1.671-.053-.578,0-1.177.053-1.76.053h-.058v-.5h.238c.855,0,1.1-.554,1.108-1.591v-5.453a1.106,1.106,0,0,0-1.119-1.109h-.227v-.5h.058c.494,0,1,.051,1.489.051.381,0,.756-.051,1.191-.033l5.694,6.411v-4.766c0-1.029-.693-1.157-1.07-1.162h-.342v-.5h.057c.613,0,1.209.051,1.814.051.528,0,1.059-.051,1.593-.051h.057v.5h-.249c-.534.014-1.085.062-1.1,1.59v5.895a8.25,8.25,0,0,0,.077,1.3l.007.063Zm-.492-.113h.426a8.89,8.89,0,0,1-.069-1.25v-5.895c0-1.555.657-1.7,1.212-1.7h.136v-.274c-.508,0-1.021.05-1.536.05-.594,0-1.172-.047-1.759-.05v.274h.23a1.136,1.136,0,0,1,1.184,1.275l-.018,4.9-.025.027-.039.041-5.765-6.515c-.385,0-.76.05-1.151.05-.48,0-.964-.047-1.435-.05v.274h.115a1.221,1.221,0,0,1,1.232,1.222v5.453c0,1.04-.293,1.7-1.222,1.706h-.126v.274c.56,0,1.137-.049,1.706-.049.543,0,1.082.047,1.617.049v-.273h-.163c-1.02,0-1.275-.447-1.277-1.575v-5.481l6.729,7.523Zm-.259-2.69h0l.039-.037Zm-.032-.024h0v0l-.01-.01Z" transform="translate(-1115.679 -297.857)" fill="#fff"/>
    <path id="Path_4235" data-name="Path 4235" d="M1275.791,325.715a5.187,5.187,0,0,0-.287,1.01c0,.39.545.453.971.453h.145v.391c-.519-.028-1.048-.051-1.57-.051-.466,0-.93.023-1.4.051v-.391h.078a1.17,1.17,0,0,0,1.125-.843l2.075-5.944a11.024,11.024,0,0,0,.481-1.608,6.6,6.6,0,0,0,1.177-.556.294.294,0,0,1,.1-.027.09.09,0,0,1,.092.04c.038.1.075.22.117.323l2.383,6.776c.155.453.309.931.477,1.321a.824.824,0,0,0,.858.516h.076v.391c-.583-.028-1.167-.051-1.786-.051-.635,0-1.285.023-1.945.051v-.391h.144c.3,0,.8-.05.8-.375a4.149,4.149,0,0,0-.261-.933l-.5-1.5h-2.94l-.414,1.348Zm1.89-5.74h-.026l-1.2,3.667h2.421Z" transform="translate(-1221.379 -295.144)" fill="#fff"/>
    <path id="Path_4236" data-name="Path 4236" d="M1282.115,327.051c-.583-.026-1.166-.053-1.783-.053-.635,0-1.28.027-1.943.053l-.058,0v-.507h.2c.3,0,.745-.068.745-.317a4.1,4.1,0,0,0-.256-.915l-.493-1.465h-2.857l-.4,1.309a5.463,5.463,0,0,0-.286,1c0,.316.489.393.918.393h.2v.507l-.058,0c-.518-.026-1.047-.053-1.564-.053-.464,0-.931.027-1.4.053l-.06,0v-.507h.134a1.111,1.111,0,0,0,1.072-.8l2.074-5.945a15.071,15.071,0,0,0,.516-1.643,6.577,6.577,0,0,0,1.176-.556.359.359,0,0,1,.125-.03.16.16,0,0,1,.143.076c.037.107.077.222.117.327l2.386,6.775c.153.454.307.933.476,1.316a.76.76,0,0,0,.8.483h.132v.507l-.059,0Zm-3.671-.116h0c.641-.022,1.269-.048,1.888-.048.6,0,1.165.025,1.728.048v-.27h-.018a.881.881,0,0,1-.909-.553c-.169-.393-.327-.874-.479-1.328l-2.385-6.774c-.039-.1-.077-.221-.111-.313-.011-.013-.008-.013-.019-.013h-.024a.271.271,0,0,0-.075.017,4.821,4.821,0,0,1-1.153.518,10.764,10.764,0,0,1-.481,1.617l-2.073,5.946a1.234,1.234,0,0,1-1.178.882h-.021v.27c.444-.022.893-.048,1.343-.048.5,0,1.012.025,1.506.048v-.27h-.083c-.421-.005-1.011-.053-1.027-.51a5.1,5.1,0,0,1,.286-1.027l.057.017-.057-.019.427-1.385h3.02l.52,1.54a3.907,3.907,0,0,1,.263.951c-.018.4-.565.426-.859.434h-.086v.27Zm-2.648-3.809h0l1.24-3.779h.07v.057l-.014,0,.014,0v-.057h.039l1.229,3.779Zm.155-.112h2.267l-1.127-3.472Zm1.1-3.594h0l.03-.01Z" transform="translate(-1220.805 -294.572)" fill="#fff"/>
    <path id="Path_4237" data-name="Path 4237" d="M1364.493,318.39c-.972,0-1.01.234-1.206,1.178h-.389c.051-.362.117-.724.157-1.1a7.7,7.7,0,0,0,.075-1.1h.313c.1.389.428.375.776.375h6.685c.348,0,.671-.013.7-.4l.31.052c-.049.35-.1.7-.14,1.05s-.028.7-.028,1.048l-.388.145c-.024-.479-.089-1.246-.957-1.246h-2.124v6.893c0,1,.455,1.113,1.074,1.113h.246v.391c-.5,0-1.41-.051-2.111-.051-.776,0-1.684.051-2.189.051V326.4h.245c.714,0,1.077-.064,1.077-1.086v-6.92h-2.125Z" transform="translate(-1302.609 -294.362)" fill="#fff"/>
    <path id="Path_4238" data-name="Path 4238" d="M1368.93,326.176c-.508,0-1.416-.052-2.111-.052-.774,0-1.682.052-2.189.052h-.057v-.5h.3c.714-.017,1-.026,1.019-1.03l0-6.863h-2.065v-.114h2.179v6.977c0,1.039-.419,1.142-1.131,1.144h-.19v.277c.513-.005,1.382-.052,2.134-.052.676,0,1.542.047,2.054.052v-.277h-.191c-.623,0-1.127-.153-1.129-1.171v-6.95h2.181c.87,0,.984.743,1.008,1.223l.283-.1c0-.338,0-.676.026-1.016s.084-.666.132-1l-.2-.033c-.059.377-.425.4-.747.393h-6.751c-.305,0-.636-.014-.754-.378h-.212a7.661,7.661,0,0,1-.079,1.053c-.034.357-.1.7-.146,1.04h.277c.172-.9.284-1.2,1.252-1.182v.114c-.96.016-.939.179-1.151,1.136l-.01.044h-.5l.008-.065c.054-.365.119-.727.156-1.1a7.469,7.469,0,0,0,.078-1.093v-.057h.409l.011.04c.091.327.327.329.658.334l.065,0h6.686c.358-.007.619-.013.641-.35l0-.062.061.013.367.057-.01.057c-.053.347-.1.7-.142,1.045s-.026.7-.026,1.045v.04l-.037.014-.459.167,0-.076c-.033-.487-.084-1.191-.9-1.191h-2.068v6.836c.014.977.4,1.045,1.017,1.057h.3v.5Z" transform="translate(-1301.943 -293.697)" fill="#fff"/>
    <path id="Path_4239" data-name="Path 4239" d="M1468.59,330.472h.182c.468,0,.957-.063.957-.737v-6.787c0-.676-.49-.739-.957-.739h-.182v-.389c.506,0,1.282.051,1.915.051.65,0,1.427-.051,2.036-.051v.389h-.182c-.466,0-.96.064-.96.739v6.787c0,.675.494.737.96.737h.182v.391c-.622,0-1.4-.051-2.046-.051s-1.4.051-1.905.051Z" transform="translate(-1398.807 -298.439)" fill="#fff"/>
    <path id="Path_4240" data-name="Path 4240" d="M1471.969,330.355c-.626,0-1.4-.053-2.047-.053s-1.4.053-1.9.053h-.057v-.5h.238c.468-.007.9-.048.9-.682v-6.787c0-.632-.431-.676-.9-.684h-.238v-.5h.057c.506,0,1.284.049,1.915.049s1.423-.049,2.036-.049h.055v.5h-.236c-.473.009-.9.052-.9.684v6.787c.006.634.431.675.9.682h.236v.5Zm-.058-.113h0v-.274h-.123c-.464,0-1.014-.082-1.014-.8v-6.787c0-.716.55-.8,1.014-.8h.123v-.275c-.6,0-1.346.05-1.978.05-.614,0-1.356-.047-1.858-.05v.275h.125c.461,0,1.012.081,1.014.8v6.787c0,.714-.553.8-1.014.8h-.125v.274c.5-.005,1.233-.049,1.848-.049s1.378.047,1.989.049Z" transform="translate(-1398.235 -297.875)" fill="#fff"/>
    <path id="Path_4241" data-name="Path 4241" d="M1521.678,319.66c2.761,0,4.962,1.712,4.962,4.47a4.751,4.751,0,0,1-4.894,4.961,4.576,4.576,0,0,1-4.845-4.651,4.711,4.711,0,0,1,4.777-4.78Zm.2,8.861h0c2.513,0,2.951-2.217,2.951-4.106s-1.02-4.186-3.172-4.186c-2.267,0-2.94,2.021-2.94,3.755,0,2.319,1.062,4.536,3.161,4.536Z" transform="translate(-1442.779 -296.473)" fill="#fff"/>
    <path id="Path_4242" data-name="Path 4242" d="M1516.25,323.867a4.776,4.776,0,0,1,4.835-4.837v.111a4.659,4.659,0,0,0-4.725,4.725,4.525,4.525,0,0,0,4.793,4.593,4.7,4.7,0,0,0,4.841-4.9c0-2.723-2.17-4.409-4.909-4.413v-.111c2.783,0,5.013,1.731,5.018,4.524a4.815,4.815,0,0,1-4.951,5.018,4.643,4.643,0,0,1-4.9-4.706h0Zm1.814-.455h0c0-1.742.684-3.814,3-3.814,2.2.005,3.225,2.341,3.229,4.244s-.448,4.16-3.008,4.16v-.11c2.463,0,2.89-2.161,2.9-4.05s-1.011-4.126-3.117-4.129c-2.222,0-2.88,1.973-2.884,3.7,0,2.307,1.053,4.475,3.1,4.48V328c-2.15,0-3.214-2.257-3.217-4.59Z" transform="translate(-1442.187 -295.899)" fill="#fff"/>
    <path id="Path_4243" data-name="Path 4243" d="M1637.317,328.309l.026-.025v-4.858a1.069,1.069,0,0,0-1.129-1.218h-.28v-.389c.607,0,1.2.051,1.81.051.533,0,1.063-.051,1.6-.051v.389h-.2c-.543,0-1.152.1-1.152,1.645v5.9a8.35,8.35,0,0,0,.078,1.307h-.491l-6.672-7.436v5.338c0,1.127.219,1.514,1.216,1.514h.222v.391c-.558,0-1.114-.051-1.671-.051-.583,0-1.18.051-1.763.051v-.391h.182c.9,0,1.164-.607,1.164-1.643v-5.457a1.159,1.159,0,0,0-1.177-1.164h-.169v-.389c.492,0,1,.051,1.489.051.389,0,.764-.051,1.153-.051l5.765,6.489Z" transform="translate(-1544.728 -298.438)" fill="#fff"/>
    <path id="Path_4244" data-name="Path 4244" d="M1637.513,330.549l-.536-.019L1630.4,323.2v5.192c.014,1.126.186,1.445,1.159,1.457h.28v.5h-.057c-.562,0-1.117-.052-1.671-.052-.581,0-1.176.052-1.764.052h-.054v-.5h.237c.854,0,1.1-.552,1.11-1.585V322.81a1.108,1.108,0,0,0-1.124-1.109h-.224v-.5h.054c.5,0,1,.049,1.49.049.385,0,.758-.049,1.2-.031l5.691,6.409v-4.764c0-1.031-.693-1.155-1.073-1.164h-.34v-.5h.058c.61,0,1.207.049,1.81.049.532,0,1.06-.049,1.6-.049h.056v.5h-.252c-.533.015-1.084.064-1.095,1.59v5.895a8.567,8.567,0,0,0,.073,1.3l.011.063h-.062Zm-.492-.113h.424a8.938,8.938,0,0,1-.066-1.25V323.29c0-1.557.653-1.7,1.208-1.7h.14v-.274c-.511,0-1.023.05-1.541.05-.589,0-1.169-.047-1.755-.05v.274h.227a1.136,1.136,0,0,1,1.183,1.277l-.014,4.9-.024.027-.041.041L1631,321.313c-.382,0-.76.05-1.153.05-.477,0-.963-.047-1.434-.05v.274h.114a1.223,1.223,0,0,1,1.234,1.222v5.457c0,1.036-.289,1.7-1.221,1.7h-.128v.274c.562,0,1.139-.049,1.708-.049.54,0,1.076.047,1.614.049v-.273h-.167c-1.017,0-1.271-.447-1.271-1.574v-5.484l6.728,7.524Zm-.26-2.69h0l.041-.037Zm-.031-.024h0v0l-.011-.01Z" transform="translate(-1544.171 -297.875)" fill="#fff"/>
    <path id="Path_4245" data-name="Path 4245" d="M1746.564,325.715a5.447,5.447,0,0,0-.284,1.01c0,.39.545.453.97.453h.145v.391c-.518-.028-1.05-.051-1.568-.051-.468,0-.933.023-1.4.051v-.391h.074a1.172,1.172,0,0,0,1.128-.843l2.075-5.944a10.7,10.7,0,0,0,.477-1.608,6.689,6.689,0,0,0,1.181-.556.277.277,0,0,1,.1-.027c.039,0,.063,0,.089.04.039.1.08.22.119.323l2.382,6.776c.155.453.31.931.481,1.321a.821.821,0,0,0,.854.516h.079v.391c-.584-.028-1.167-.051-1.789-.051s-1.282.023-1.943.051v-.391h.144c.3,0,.8-.05.8-.375a4.162,4.162,0,0,0-.262-.933l-.5-1.5h-2.941l-.416,1.348Zm1.893-5.74h-.026l-1.206,3.667h2.424Z" transform="translate(-1649.871 -295.144)" fill="#fff"/>
    <path id="Path_4246" data-name="Path 4246" d="M1752.891,327.07c-.583-.023-1.165-.052-1.784-.052s-1.28.029-1.941.052l-.057,0v-.5h.2c.3,0,.748-.07.749-.319a4.157,4.157,0,0,0-.259-.915l-.492-1.465h-2.859l-.4,1.309a5.416,5.416,0,0,0-.281.994c0,.318.485.4.913.4h.2v.5l-.057,0c-.518-.023-1.048-.052-1.564-.052-.464,0-.93.029-1.4.052l-.057,0v-.5h.13a1.121,1.121,0,0,0,1.076-.8l2.073-5.945a16.949,16.949,0,0,0,.514-1.641,6.882,6.882,0,0,0,1.178-.558.337.337,0,0,1,.122-.027.145.145,0,0,1,.142.075c.039.1.076.219.12.324l2.382,6.775c.155.454.31.933.478,1.319a.764.764,0,0,0,.8.482h.135v.5l-.059,0Zm-3.671-.114h0c.64-.024,1.271-.049,1.887-.049s1.168.025,1.732.048l0-.27h-.021a.884.884,0,0,1-.906-.553c-.171-.393-.325-.874-.479-1.326l-2.384-6.776c-.039-.1-.078-.221-.109-.309-.011-.016-.01-.016-.02-.016h-.024a.246.246,0,0,0-.073.018,4.968,4.968,0,0,1-1.155.517,11.034,11.034,0,0,1-.482,1.617l-2.074,5.946a1.232,1.232,0,0,1-1.179.882h-.019v.27c.446-.022.891-.048,1.342-.048.5,0,1.013.025,1.512.048v-.27h-.088c-.421-.005-1.012-.051-1.027-.512a5.423,5.423,0,0,1,.288-1.026l.053.017-.053-.019.427-1.385h3.021l.519,1.54a4.019,4.019,0,0,1,.26.951c-.019.4-.562.426-.859.434h-.085v.272Zm-2.646-3.812h0l1.242-3.778h.067v.057l-.013,0,.013,0v-.057h.041l1.224,3.778Zm.155-.111h2.265l-1.126-3.47-1.139,3.47Zm1.1-3.594h0l.026-.01Z" transform="translate(-1649.297 -294.591)" fill="#fff"/>
    <path id="Path_4247" data-name="Path 4247" d="M1852.924,329.593c0,.518.359.673.774.726a9.4,9.4,0,0,0,1.712-.026,1.855,1.855,0,0,0,1.241-.7,2.94,2.94,0,0,0,.4-.933h.375c-.142.738-.323,1.466-.48,2.2-1.137,0-2.28-.051-3.418-.051s-2.28.051-3.419.051v-.391h.178c.469,0,.976-.063.976-.867v-6.658c0-.676-.507-.739-.976-.739h-.178v-.389c.684,0,1.359.051,2.044.051.663,0,1.31-.051,1.971-.051v.389h-.326c-.49,0-.877.014-.877.7v6.685Z" transform="translate(-1746.061 -298.439)" fill="#fff"/>
    <path id="Path_4248" data-name="Path 4248" d="M1856.365,330.356c-1.142,0-2.281-.052-3.418-.052s-2.281.052-3.422.052h-.055v-.5h.235c.47-.011.913-.043.919-.811v-6.66c-.005-.63-.446-.673-.919-.682h-.235v-.5h.055c.689,0,1.364.049,2.048.049.657,0,1.3-.049,1.97-.049h.053v.5h-.378c-.5.014-.815-.009-.825.644v6.685c0,.482.32.613.724.669.229.016.469.026.719.026a9.2,9.2,0,0,0,.981-.051,1.8,1.8,0,0,0,1.205-.675,2.894,2.894,0,0,0,.392-.915l.012-.043h.488l-.012.068c-.146.741-.324,1.465-.481,2.2l-.011.044h-.044Zm-.047-.113h0c.15-.7.32-1.39.459-2.09h-.266a2.964,2.964,0,0,1-.4.913,1.918,1.918,0,0,1-1.283.721,9.756,9.756,0,0,1-.993.053c-.251,0-.494-.012-.729-.028-.421-.047-.83-.226-.828-.78v-6.685c0-.719.455-.756.939-.756h.268v-.275c-.639,0-1.267.051-1.912.051-.671,0-1.327-.048-1.991-.051v.275h.124c.463,0,1.028.081,1.028.794v6.66c0,.838-.563.925-1.028.925h-.124v.274c1.12,0,2.24-.049,3.366-.049s2.25.048,3.371.049Z" transform="translate(-1745.477 -297.876)" fill="#fff"/>
    <path id="Path_4249" data-name="Path 4249" d="M1915.993,317.72a1.364,1.364,0,1,1-1.365,1.369A1.341,1.341,0,0,1,1915.993,317.72Zm0,2.475h0a1.11,1.11,0,1,0-1.083-1.106A1.1,1.1,0,0,0,1915.993,320.195Zm-.679-.387h0v-.067c.168-.023.2-.018.2-.122v-1.01c0-.142-.015-.19-.192-.183v-.069h.7c.241,0,.461.114.461.362a.429.429,0,0,1-.323.411l.224.312a1.4,1.4,0,0,0,.3.322v.044h-.266c-.127,0-.239-.269-.49-.629h-.151v.454c0,.09.031.084.2.108v.067h-.659Zm.46-.719h.161c.176,0,.259-.134.259-.349a.255.255,0,0,0-.268-.294h-.152Z" transform="translate(-1804.783 -294.707)" fill="#fff"/>
    <path id="Path_4252" data-name="Path 4252" d="M694.788,81.654c0-2.141-1.117-2-2.187-2.024v-.619c.928.046,1.879.046,2.809.046,1,0,2.357-.046,4.119-.046,6.163,0,9.52,4.117,9.52,8.333,0,2.358-1.38,8.285-9.807,8.285-1.213,0-2.334-.047-3.452-.047-1.071,0-2.119.023-3.19.047v-.618c1.427-.144,2.119-.191,2.187-1.811V81.654Zm2.334,11.167h0c0,1.833,1.31,2.047,2.476,2.047,5.143,0,6.832-3.881,6.832-7.429,0-4.451-2.857-7.664-7.451-7.664-.977,0-1.426.07-1.857.1V92.821Z" transform="translate(-692.519 -77.439)" fill="#fff"/>
    <path id="Path_4253" data-name="Path 4253" d="M885.022,92.344h.451c.666,0,1.143,0,1.143-.788V85.105c0-1.046-.357-1.192-1.238-1.665v-.382c1.118-.336,2.453-.785,2.546-.857a.846.846,0,0,1,.429-.12c.118,0,.167.144.167.335v9.14c0,.788.524.788,1.19.788h.4v.619c-.81,0-1.644-.048-2.5-.048s-1.715.023-2.594.048v-.619Zm2.546-13.929h0a1.168,1.168,0,0,1,0-2.335,1.167,1.167,0,0,1,1.167,1.145A1.19,1.19,0,0,1,887.568,78.415Z" transform="translate(-867.656 -74.771)" fill="#fff"/>
    <path id="Path_4254" data-name="Path 4254" d="M950.98,146.057c0-.88-.263-1.117-1.38-1.57v-.452a31.9,31.9,0,0,0,3.141-1.144c.071,0,.141.049.141.238v1.548c1.359-.975,2.526-1.787,4.123-1.787,2.021,0,2.735,1.477,2.735,3.333v6.142c0,.788.524.788,1.191.788h.429v.619c-.835,0-1.668-.048-2.523-.048s-1.716.023-2.572.048v-.619h.428c.668,0,1.142,0,1.142-.788V146.2c0-1.359-.829-2.025-2.188-2.025a6.361,6.361,0,0,0-2.764,1.143v7.045c0,.788.526.788,1.194.788h.428v.619c-.833,0-1.667-.048-2.524-.048s-1.715.023-2.571.048v-.619h.429c.666,0,1.142,0,1.142-.788v-6.309Z" transform="translate(-926.26 -135.581)" fill="#fff"/>
    <path id="Path_4255" data-name="Path 4255" d="M1083.3,147.2a5.784,5.784,0,0,0,0,1.381c.14,2.261,1.6,4.117,3.5,4.117a4.565,4.565,0,0,0,3.216-1.594l.332.334c-1.1,1.451-2.452,2.689-4.4,2.689-3.786,0-4.548-3.667-4.548-5.19,0-4.667,3.142-6.049,4.807-6.049a3.781,3.781,0,0,1,4.024,3.737,2.763,2.763,0,0,1-.022.43l-.216.143Zm4.214-.762h0c.594,0,.664-.31.664-.595a2.018,2.018,0,0,0-2.071-2.191c-1.451,0-2.45,1.07-2.736,2.785Z" transform="translate(-1046.394 -135.58)" fill="#fff"/>
    <path id="Path_4256" data-name="Path 4256" d="M1185.82,153.153h.643c.665,0,1.141,0,1.141-.788v-6.689c0-.737-.879-.881-1.238-1.072v-.356c1.738-.739,2.691-1.359,2.907-1.359.141,0,.211.072.211.311v2.142h.05c.594-.928,1.6-2.453,3.046-2.453a1.3,1.3,0,0,1,1.356,1.262,1.155,1.155,0,0,1-1.117,1.216c-.741,0-.741-.573-1.573-.573a2.01,2.01,0,0,0-1.737,1.977v5.593c0,.788.475.788,1.142.788h1.332v.619c-1.31-.024-2.306-.048-3.332-.048-.975,0-1.976.023-2.833.048v-.619Z" transform="translate(-1141.436 -135.58)" fill="#fff"/>
    <path id="Path_4257" data-name="Path 4257" d="M1283.508,150.462c.31,1.572,1.261,2.906,3,2.906a1.682,1.682,0,0,0,1.926-1.69c0-2.81-5.188-1.905-5.188-5.738,0-1.334,1.072-3.049,3.69-3.049a6.25,6.25,0,0,1,2.712.693l.169,2.426h-.549a2.443,2.443,0,0,0-2.595-2.356,1.673,1.673,0,0,0-1.856,1.571c0,2.788,5.522,1.928,5.522,5.666,0,1.571-1.262,3.239-4.095,3.239a6.271,6.271,0,0,1-2.9-.808l-.262-2.739.429-.121Z" transform="translate(-1229.959 -135.581)" fill="#fff"/>
    <path id="Path_4258" data-name="Path 4258" d="M1452.484,79.688h-.594c-.453-2.784-2.429-3.9-5.094-3.9-2.74,0-6.715,1.832-6.715,7.546,0,4.813,3.43,8.263,7.095,8.263a4.841,4.841,0,0,0,4.786-4.119l.546.142-.546,3.476a13.339,13.339,0,0,1-5.263,1.263c-5.569,0-9.091-3.6-9.091-8.952,0-4.881,4.355-8.382,9.021-8.382a17.171,17.171,0,0,1,5.617,1.265l.237,3.4Z" transform="translate(-1370.609 -73.807)" fill="#fff"/>
    <path id="Path_4259" data-name="Path 4259" d="M1612.778,79.083h.451c.667,0,1.145,0,1.145-.788V65.036c0-1.549-.357-1.6-1.263-1.858V62.8a15.153,15.153,0,0,0,2.452-1.025,2.493,2.493,0,0,1,.522-.262c.146,0,.193.144.193.335v16.45c0,.788.523.788,1.19.788h.4V79.7c-.806,0-1.639-.048-2.5-.048s-1.713.023-2.6.048v-.619Z" transform="translate(-1530.045 -61.51)" fill="#fff"/>
    <path id="Path_4260" data-name="Path 4260" d="M1679.7,156.09c0,.43.26.454.665.454.286,0,.642-.023.953-.023v.5a24.3,24.3,0,0,0-3.429.737l-.12-.072V155.76c-1.426,1.166-2.523,2-4.214,2a2.567,2.567,0,0,1-2.618-2.831v-6.1c0-.619-.094-1.214-1.426-1.333v-.453c.858-.023,2.759-.166,3.069-.166.264,0,.264.166.264.69v6.141c0,.716,0,2.763,2.069,2.763a5.316,5.316,0,0,0,2.879-1.45v-6.408c0-.474-1.142-.736-2-.975v-.428c2.14-.144,3.475-.333,3.711-.333.193,0,.193.166.193.429v8.783Z" transform="translate(-1581.681 -139.21)" fill="#fff"/>
    <path id="Path_4261" data-name="Path 4261" d="M1803.584,70.534a6.011,6.011,0,0,1,3.547-1.715c2.762,0,4.427,2.407,4.427,5,0,3.119-2.284,6.238-5.69,6.238a7.03,7.03,0,0,1-3.308-.833l-.713.546-.5-.26a28.16,28.16,0,0,0,.332-4.238V65.035c0-1.548-.359-1.6-1.263-1.857V62.8a15.035,15.035,0,0,0,2.452-1.025,2.46,2.46,0,0,1,.525-.262c.142,0,.189.144.189.335v8.689h0Zm0,6.475h0a2.561,2.561,0,0,0,2.451,2.431c2.547,0,3.618-2.5,3.618-4.621,0-2.571-1.95-4.713-3.807-4.713a3.66,3.66,0,0,0-2.262,1.121V77.01Z" transform="translate(-1700.83 -61.51)" fill="#fff"/>
    <path id="Path_4262" data-name="Path 4262" d="M692.3,330.472h.182c.465,0,.957-.063.957-.737v-6.787c0-.676-.492-.739-.957-.739H692.3v-.389c.506,0,1.283.051,1.919.051s1.423-.051,2.032-.051v.389h-.182c-.464,0-.957.064-.957.739v6.787c0,.675.493.737.957.737h.182v.391c-.622,0-1.4-.051-2.046-.051s-1.4.051-1.905.051v-.391Z" transform="translate(-692.244 -298.439)" fill="#fff"/>
    <path id="Path_4263" data-name="Path 4263" d="M695.691,330.336c-.626,0-1.4-.052-2.047-.052s-1.395.052-1.9.052h-.056v-.5h.237c.47-.011.9-.048.9-.682v-6.787c0-.633-.432-.676-.9-.684h-.237v-.5h.056c.509,0,1.285.051,1.919.051s1.42-.051,2.033-.051h.058v.5h-.239c-.47.009-.9.051-.9.684v6.787c0,.633.433.671.9.682h.239v.5Zm-.056-.111h0v-.277h-.126c-.463,0-1.013-.08-1.016-.8v-6.787c0-.716.553-.8,1.016-.8h.126v-.275c-.6,0-1.348.05-1.977.05s-1.36-.047-1.861-.05v.275h.124c.462,0,1.014.081,1.014.8v6.787c0,.716-.552.8-1.014.8H691.8v.277c.5-.005,1.233-.052,1.847-.052.63,0,1.38.049,1.991.052Z" transform="translate(-691.684 -297.856)" fill="#fff"/>
    <path id="Path_4264" data-name="Path 4264" d="M750.169,328.309l.026-.025v-4.858a1.068,1.068,0,0,0-1.127-1.218h-.286v-.389c.61,0,1.205.051,1.813.051.531,0,1.064-.051,1.594-.051v.389H752c-.545,0-1.154.1-1.154,1.645v5.9a8.582,8.582,0,0,0,.077,1.307h-.493l-6.669-7.436v5.338c0,1.127.218,1.514,1.217,1.514h.219v.391c-.556,0-1.112-.051-1.67-.051-.581,0-1.177.051-1.761.051v-.391h.181c.894,0,1.165-.607,1.165-1.643v-5.457a1.162,1.162,0,0,0-1.178-1.164h-.169v-.389c.492,0,1,.051,1.488.051.389,0,.765-.051,1.153-.051l5.766,6.489Z" transform="translate(-737.264 -298.438)" fill="#fff"/>
    <path id="Path_4265" data-name="Path 4265" d="M750.331,330.549l-.534-.02-6.573-7.327v5.192c.015,1.126.187,1.446,1.162,1.459h.278v.5h-.057c-.56,0-1.118-.052-1.671-.052-.58,0-1.175.052-1.762.052h-.057v-.5h.239c.856,0,1.1-.554,1.11-1.587v-5.456a1.11,1.11,0,0,0-1.123-1.11h-.226v-.5h.057c.495,0,1,.049,1.488.049.385,0,.761-.049,1.2-.031l5.693,6.409v-4.764c-.007-1.031-.694-1.155-1.072-1.164h-.343v-.5h.057c.612,0,1.208.049,1.813.049.527,0,1.058-.049,1.593-.049h.057v.5h-.25c-.534.015-1.083.062-1.1,1.59v5.895a8.488,8.488,0,0,0,.076,1.3l.013.066h-.067Zm-.492-.114h.428a8.661,8.661,0,0,1-.068-1.25V323.29c0-1.555.651-1.7,1.209-1.7h.137v-.275c-.51,0-1.022.05-1.537.05-.593,0-1.169-.047-1.756-.05v.275h.229a1.133,1.133,0,0,1,1.184,1.276l-.018,4.9-.026.027-.044.04-5.76-6.514c-.384,0-.76.05-1.154.05-.475,0-.961-.047-1.431-.05l0,.275h.115a1.219,1.219,0,0,1,1.232,1.222v5.456c0,1.036-.288,1.7-1.22,1.7l-.125,0v.279c.561-.005,1.138-.052,1.7-.052.541,0,1.079.047,1.614.052v-.276h-.163c-1.02,0-1.273-.447-1.274-1.574v-5.484l6.727,7.524Zm-.258-2.69h0l.041-.038Zm-.03-.025h0v0l-.011-.009Z" transform="translate(-736.676 -297.875)" fill="#fff"/>
    <path id="Path_4266" data-name="Path 4266" d="M863.312,318.39c-.973,0-1.01.234-1.2,1.178h-.389c.051-.362.116-.724.155-1.1a7.686,7.686,0,0,0,.077-1.1h.312c.1.389.428.375.779.375h6.682c.35,0,.674-.013.7-.4l.309.052c-.05.35-.1.7-.142,1.05-.023.349-.023.7-.023,1.048l-.39.145c-.027-.479-.092-1.246-.958-1.246H867.1v6.893c0,1,.454,1.113,1.073,1.113h.247v.391c-.5,0-1.413-.051-2.111-.051-.777,0-1.685.051-2.191.051V326.4h.247c.714,0,1.075-.064,1.075-1.086v-6.92h-2.125Z" transform="translate(-846.446 -294.362)" fill="#fff"/>
    <path id="Path_4267" data-name="Path 4267" d="M867.764,326.175c-.51,0-1.417-.052-2.113-.052-.776,0-1.682.052-2.191.052h-.054v-.5h.3c.714-.017,1-.026,1.018-1.03V317.78h-2.068v-.114h2.18v6.977c0,1.039-.419,1.144-1.13,1.145h-.19v.273c.511,0,1.382-.049,2.134-.049.676,0,1.541.047,2.053.049v-.273h-.19c-.626,0-1.13-.155-1.13-1.172v-6.95h2.181c.869,0,.983.743,1.011,1.223l.279-.1c0-.338,0-.676.025-1.018s.085-.664.134-.994l-.2-.033c-.06.377-.424.4-.75.393H862.32c-.3,0-.638-.014-.754-.376h-.214a7.663,7.663,0,0,1-.076,1.051c-.038.356-.1.7-.146,1.04h.278c.171-.9.282-1.2,1.248-1.182v.114c-.957.017-.938.179-1.149,1.136l-.01.044H861l.007-.067c.052-.363.118-.724.156-1.1a7.3,7.3,0,0,0,.079-1.09v-.057h.411l.009.04c.089.327.329.329.658.334h6.747c.361-.005.623-.011.646-.349l.005-.061.058.013.366.058-.008.057c-.052.347-.1.7-.141,1.045s-.026.7-.026,1.045v.04l-.036.014-.459.167,0-.075c-.034-.487-.085-1.191-.9-1.191H866.5v6.836c.012.977.4,1.045,1.017,1.057h.3v.5Z" transform="translate(-845.792 -293.696)" fill="#fff"/>
    <path id="Path_4268" data-name="Path 4268" d="M966.691,330.472h.182c.465,0,.958-.063.958-.737v-6.787c0-.676-.493-.739-.958-.739h-.182v-.389c.789,0,2.138.051,3.224.051s2.435-.051,3.315-.051c-.021.556-.01,1.413.029,1.982l-.391.1c-.062-.842-.217-1.514-1.578-1.514h-1.8v3.393h1.54c.777,0,.947-.439,1.023-1.141h.388q-.038.761-.039,1.517c0,.493.013.984.039,1.477l-.388.077c-.076-.777-.116-1.282-1.01-1.282h-1.552v3.017c0,.843.748.843,1.578.843,1.555,0,2.24-.105,2.629-1.58l.363.089c-.17.688-.324,1.373-.439,2.061-.83,0-2.32-.051-3.484-.051s-2.708.051-3.446.051v-.391Z" transform="translate(-941.99 -298.439)" fill="#fff"/>
    <path id="Path_4269" data-name="Path 4269" d="M973.065,330.355c-.832,0-2.321-.053-3.484-.053s-2.706.053-3.446.053h-.055v-.5h.236c.47-.007.9-.048.9-.682v-6.787c-.006-.632-.432-.675-.9-.684h-.236v-.5h.055c.79,0,2.138.049,3.224.049s2.433-.049,3.315-.049h.058l0,.057c-.009.195-.012.425-.012.669,0,.448.012.938.039,1.307l0,.047-.043.013-.455.119,0-.066c-.076-.841-.189-1.451-1.522-1.463H968.99l0,3.279h1.488c.746-.007.879-.389.967-1.087l0-.051h.5v.058c-.025.5-.041,1.01-.041,1.514s.016.982.041,1.475v.046l-.047.011-.45.09,0-.061c-.089-.79-.1-1.223-.956-1.233h-1.5v2.963c0,.787.68.782,1.524.787,1.559-.009,2.184-.084,2.575-1.54l.013-.052.055.01.415.107-.013.054c-.167.686-.322,1.371-.438,2.057l-.011.046Zm-.048-.113h0c.112-.653.26-1.309.419-1.961l-.256-.065c-.388,1.45-1.139,1.579-2.668,1.569-.816,0-1.633,0-1.637-.9v-3.074h1.61c.9-.01,1,.536,1.061,1.274l.28-.058c-.025-.477-.037-.956-.037-1.431s.012-.973.037-1.461h-.28c-.072.675-.283,1.149-1.072,1.14h-1.6v-3.507h1.858c1.347-.009,1.571.686,1.628,1.5l.279-.075c-.022-.366-.038-.834-.038-1.267,0-.222.005-.431.013-.614-.88,0-2.192.05-3.258.05s-2.375-.047-3.168-.05v.275h.126c.462,0,1.013.081,1.015.8v6.787c0,.714-.553.793-1.015.8h-.126v.273c.755,0,2.252-.049,3.39-.049s2.6.048,3.437.049Z" transform="translate(-941.434 -297.875)" fill="#fff"/>
    <path id="Path_4270" data-name="Path 4270" d="M1056.513,323.183c0-.945-.517-.984-.921-.984h-.233v-.39c.415,0,1.217.052,2.008.052s1.4-.052,2.085-.052c1.631,0,3.083.441,3.083,2.282a2.446,2.446,0,0,1-1.8,2.28l2.214,3.314a1.436,1.436,0,0,0,1.257.777v.391c-.427,0-.843-.051-1.269-.051-.4,0-.817.051-1.217.051a36.241,36.241,0,0,1-2.7-4.2h-.852v2.774c0,1,.464,1.035,1.06,1.035h.234v.391c-.74,0-1.488-.051-2.227-.051-.622,0-1.232.051-1.878.051v-.391h.233c.481,0,.921-.217.921-.7v-6.582Zm1.659,3.005h.633c1.3,0,1.994-.492,1.994-2.021a1.768,1.768,0,0,0-1.892-1.891,6.565,6.565,0,0,0-.735.052Z" transform="translate(-1022.694 -298.43)" fill="#fff"/>
    <path id="Path_4271" data-name="Path 4271" d="M1063.631,330.338c-.434,0-.846-.052-1.272-.052-.4,0-.808.052-1.26.031a36.152,36.152,0,0,1-2.682-4.175h-.765v2.714c.014.975.405.966,1,.981h.29v.5h-.057c-.74,0-1.492-.052-2.228-.052-.619,0-1.226.052-1.876.052h-.057v-.5h.289c.467,0,.861-.206.862-.642v-6.582c-.01-.92-.46-.914-.862-.928h-.289v-.5h.057c.419,0,1.219.051,2.007.051.773,0,1.4-.051,2.086-.051,1.632,0,3.136.454,3.14,2.335a2.482,2.482,0,0,1-1.773,2.308l2.176,3.259a1.39,1.39,0,0,0,1.218.752l.047.007v.494h-.056Zm-6.036-4.31h.885l.015.029a40.311,40.311,0,0,0,2.649,4.17c.4,0,.811-.053,1.214-.053s.813.045,1.216.051v-.284a1.482,1.482,0,0,1-1.247-.795l-2.254-3.373.064-.026a2.386,2.386,0,0,0,1.764-2.23c0-1.8-1.4-2.214-3.025-2.221-.684,0-1.305.051-2.086.051-.761,0-1.529-.048-1.953-.051v.275h.178c.4,0,.975.067.975,1.041v6.582c0,.52-.488.757-.975.758h-.178v.273c.624,0,1.214-.051,1.822-.051.725,0,1.455.049,2.172.051v-.273h-.177c-.591,0-1.117-.075-1.117-1.1v-2.828h.057Zm0-.356h-.057v-3.966l.049,0a6.35,6.35,0,0,1,.744-.05,1.83,1.83,0,0,1,1.949,1.948c0,1.547-.745,2.072-2.052,2.073h-.634Zm.634-.111h0c1.282-.011,1.928-.456,1.941-1.962a1.716,1.716,0,0,0-1.839-1.839,5.481,5.481,0,0,0-.68.047v3.754Z" transform="translate(-1022.119 -297.859)" fill="#fff"/>
    <path id="Path_4272" data-name="Path 4272" d="M1166.577,328.309l.023-.025v-4.858a1.067,1.067,0,0,0-1.125-1.218h-.284v-.389c.608,0,1.2.051,1.813.051.532,0,1.061-.051,1.6-.051v.389h-.195c-.544,0-1.153.1-1.153,1.645v5.9a8.585,8.585,0,0,0,.076,1.307h-.491l-6.67-7.436v5.338c0,1.127.22,1.514,1.217,1.514h.22v.391c-.556,0-1.114-.051-1.67-.051-.585,0-1.18.051-1.762.051v-.391h.18c.895,0,1.167-.607,1.167-1.643v-5.457a1.16,1.16,0,0,0-1.177-1.164h-.169v-.389c.491,0,1,.051,1.489.051.386,0,.763-.051,1.152-.051l5.765,6.489Z" transform="translate(-1116.271 -298.438)" fill="#fff"/>
    <path id="Path_4273" data-name="Path 4273" d="M1166.737,330.53l-.533-.018-6.574-7.328v5.191c.015,1.127.186,1.447,1.163,1.46h.274v.5h-.057c-.56,0-1.116-.053-1.671-.053-.578,0-1.177.053-1.76.053h-.058v-.5h.238c.855,0,1.1-.554,1.108-1.591v-5.453a1.106,1.106,0,0,0-1.119-1.109h-.227v-.5h.058c.494,0,1,.051,1.489.051.381,0,.756-.051,1.191-.033l5.694,6.411v-4.766c0-1.029-.693-1.157-1.07-1.162h-.342v-.5h.057c.613,0,1.209.051,1.814.051.528,0,1.059-.051,1.593-.051h.057v.5h-.249c-.534.014-1.085.062-1.1,1.59v5.895a8.25,8.25,0,0,0,.077,1.3l.007.063Zm-.492-.113h.426a8.89,8.89,0,0,1-.069-1.25v-5.895c0-1.555.657-1.7,1.212-1.7h.136v-.274c-.508,0-1.021.05-1.536.05-.594,0-1.172-.047-1.759-.05v.274h.23a1.136,1.136,0,0,1,1.184,1.275l-.018,4.9-.025.027-.039.041-5.765-6.515c-.385,0-.76.05-1.151.05-.48,0-.964-.047-1.435-.05v.274h.115a1.221,1.221,0,0,1,1.232,1.222v5.453c0,1.04-.293,1.7-1.222,1.706h-.126v.274c.56,0,1.137-.049,1.706-.049.543,0,1.082.047,1.617.049v-.273h-.163c-1.02,0-1.275-.447-1.277-1.575v-5.481l6.729,7.523Zm-.259-2.69h0l.039-.037Zm-.032-.024h0v0l-.01-.01Z" transform="translate(-1115.679 -297.857)" fill="#fff"/>
    <path id="Path_4274" data-name="Path 4274" d="M1275.791,325.715a5.187,5.187,0,0,0-.287,1.01c0,.39.545.453.971.453h.145v.391c-.519-.028-1.048-.051-1.57-.051-.466,0-.93.023-1.4.051v-.391h.078a1.17,1.17,0,0,0,1.125-.843l2.075-5.944a11.024,11.024,0,0,0,.481-1.608,6.6,6.6,0,0,0,1.177-.556.294.294,0,0,1,.1-.027.09.09,0,0,1,.092.04c.038.1.075.22.117.323l2.383,6.776c.155.453.309.931.477,1.321a.824.824,0,0,0,.858.516h.076v.391c-.583-.028-1.167-.051-1.786-.051-.635,0-1.285.023-1.945.051v-.391h.144c.3,0,.8-.05.8-.375a4.149,4.149,0,0,0-.261-.933l-.5-1.5h-2.94l-.414,1.348Zm1.89-5.74h-.026l-1.2,3.667h2.421Z" transform="translate(-1221.379 -295.144)" fill="#fff"/>
    <path id="Path_4275" data-name="Path 4275" d="M1282.115,327.051c-.583-.026-1.166-.053-1.783-.053-.635,0-1.28.027-1.943.053l-.058,0v-.507h.2c.3,0,.745-.068.745-.317a4.1,4.1,0,0,0-.256-.915l-.493-1.465h-2.857l-.4,1.309a5.463,5.463,0,0,0-.286,1c0,.316.489.393.918.393h.2v.507l-.058,0c-.518-.026-1.047-.053-1.564-.053-.464,0-.931.027-1.4.053l-.06,0v-.507h.134a1.111,1.111,0,0,0,1.072-.8l2.074-5.945a15.071,15.071,0,0,0,.516-1.643,6.577,6.577,0,0,0,1.176-.556.359.359,0,0,1,.125-.03.16.16,0,0,1,.143.076c.037.107.077.222.117.327l2.386,6.775c.153.454.307.933.476,1.316a.76.76,0,0,0,.8.483h.132v.507l-.059,0Zm-3.671-.116h0c.641-.022,1.269-.048,1.888-.048.6,0,1.165.025,1.728.048v-.27h-.018a.881.881,0,0,1-.909-.553c-.169-.393-.327-.874-.479-1.328l-2.385-6.774c-.039-.1-.077-.221-.111-.313-.011-.013-.008-.013-.019-.013h-.024a.271.271,0,0,0-.075.017,4.821,4.821,0,0,1-1.153.518,10.764,10.764,0,0,1-.481,1.617l-2.073,5.946a1.234,1.234,0,0,1-1.178.882h-.021v.27c.444-.022.893-.048,1.343-.048.5,0,1.012.025,1.506.048v-.27h-.083c-.421-.005-1.011-.053-1.027-.51a5.1,5.1,0,0,1,.286-1.027l.057.017-.057-.019.427-1.385h3.02l.52,1.54a3.907,3.907,0,0,1,.263.951c-.018.4-.565.426-.859.434h-.086v.27Zm-2.648-3.809h0l1.24-3.779h.07v.057l-.014,0,.014,0v-.057h.039l1.229,3.779Zm.155-.112h2.267l-1.127-3.472Zm1.1-3.594h0l.03-.01Z" transform="translate(-1220.805 -294.572)" fill="#fff"/>
    <path id="Path_4276" data-name="Path 4276" d="M1364.493,318.39c-.972,0-1.01.234-1.206,1.178h-.389c.051-.362.117-.724.157-1.1a7.7,7.7,0,0,0,.075-1.1h.313c.1.389.428.375.776.375h6.685c.348,0,.671-.013.7-.4l.31.052c-.049.35-.1.7-.14,1.05s-.028.7-.028,1.048l-.388.145c-.024-.479-.089-1.246-.957-1.246h-2.124v6.893c0,1,.455,1.113,1.074,1.113h.246v.391c-.5,0-1.41-.051-2.111-.051-.776,0-1.684.051-2.189.051V326.4h.245c.714,0,1.077-.064,1.077-1.086v-6.92h-2.125Z" transform="translate(-1302.609 -294.362)" fill="#fff"/>
    <path id="Path_4277" data-name="Path 4277" d="M1368.93,326.176c-.508,0-1.416-.052-2.111-.052-.774,0-1.682.052-2.189.052h-.057v-.5h.3c.714-.017,1-.026,1.019-1.03l0-6.863h-2.065v-.114h2.179v6.977c0,1.039-.419,1.142-1.131,1.144h-.19v.277c.513-.005,1.382-.052,2.134-.052.676,0,1.542.047,2.054.052v-.277h-.191c-.623,0-1.127-.153-1.129-1.171v-6.95h2.181c.87,0,.984.743,1.008,1.223l.283-.1c0-.338,0-.676.026-1.016s.084-.666.132-1l-.2-.033c-.059.377-.425.4-.747.393h-6.751c-.305,0-.636-.014-.754-.378h-.212a7.661,7.661,0,0,1-.079,1.053c-.034.357-.1.7-.146,1.04h.277c.172-.9.284-1.2,1.252-1.182v.114c-.96.016-.939.179-1.151,1.136l-.01.044h-.5l.008-.065c.054-.365.119-.727.156-1.1a7.469,7.469,0,0,0,.078-1.093v-.057h.409l.011.04c.091.327.327.329.658.334l.065,0h6.686c.358-.007.619-.013.641-.35l0-.062.061.013.367.057-.01.057c-.053.347-.1.7-.142,1.045s-.026.7-.026,1.045v.04l-.037.014-.459.167,0-.076c-.033-.487-.084-1.191-.9-1.191h-2.068v6.836c.014.977.4,1.045,1.017,1.057h.3v.5Z" transform="translate(-1301.943 -293.697)" fill="#fff"/>
    <path id="Path_4278" data-name="Path 4278" d="M1468.59,330.472h.182c.468,0,.957-.063.957-.737v-6.787c0-.676-.49-.739-.957-.739h-.182v-.389c.506,0,1.282.051,1.915.051.65,0,1.427-.051,2.036-.051v.389h-.182c-.466,0-.96.064-.96.739v6.787c0,.675.494.737.96.737h.182v.391c-.622,0-1.4-.051-2.046-.051s-1.4.051-1.905.051Z" transform="translate(-1398.807 -298.439)" fill="#fff"/>
    <path id="Path_4279" data-name="Path 4279" d="M1471.969,330.355c-.626,0-1.4-.053-2.047-.053s-1.4.053-1.9.053h-.057v-.5h.238c.468-.007.9-.048.9-.682v-6.787c0-.632-.431-.676-.9-.684h-.238v-.5h.057c.506,0,1.284.049,1.915.049s1.423-.049,2.036-.049h.055v.5h-.236c-.473.009-.9.052-.9.684v6.787c.006.634.431.675.9.682h.236v.5Zm-.058-.113h0v-.274h-.123c-.464,0-1.014-.082-1.014-.8v-6.787c0-.716.55-.8,1.014-.8h.123v-.275c-.6,0-1.346.05-1.978.05-.614,0-1.356-.047-1.858-.05v.275h.125c.461,0,1.012.081,1.014.8v6.787c0,.714-.553.8-1.014.8h-.125v.274c.5-.005,1.233-.049,1.848-.049s1.378.047,1.989.049Z" transform="translate(-1398.235 -297.875)" fill="#fff"/>
    <path id="Path_4280" data-name="Path 4280" d="M1521.678,319.66c2.761,0,4.962,1.712,4.962,4.47a4.751,4.751,0,0,1-4.894,4.961,4.576,4.576,0,0,1-4.845-4.651,4.711,4.711,0,0,1,4.777-4.78Zm.2,8.861h0c2.513,0,2.951-2.217,2.951-4.106s-1.02-4.186-3.172-4.186c-2.267,0-2.94,2.021-2.94,3.755,0,2.319,1.062,4.536,3.161,4.536Z" transform="translate(-1442.779 -296.473)" fill="#fff"/>
    <path id="Path_4281" data-name="Path 4281" d="M1516.25,323.867a4.776,4.776,0,0,1,4.835-4.837v.111a4.659,4.659,0,0,0-4.725,4.725,4.525,4.525,0,0,0,4.793,4.593,4.7,4.7,0,0,0,4.841-4.9c0-2.723-2.17-4.409-4.909-4.413v-.111c2.783,0,5.013,1.731,5.018,4.524a4.815,4.815,0,0,1-4.951,5.018,4.643,4.643,0,0,1-4.9-4.706h0Zm1.814-.455h0c0-1.742.684-3.814,3-3.814,2.2.005,3.225,2.341,3.229,4.244s-.448,4.16-3.008,4.16v-.11c2.463,0,2.89-2.161,2.9-4.05s-1.011-4.126-3.117-4.129c-2.222,0-2.88,1.973-2.884,3.7,0,2.307,1.053,4.475,3.1,4.48V328c-2.15,0-3.214-2.257-3.217-4.59Z" transform="translate(-1442.187 -295.899)" fill="#fff"/>
    <path id="Path_4282" data-name="Path 4282" d="M1637.317,328.309l.026-.025v-4.858a1.069,1.069,0,0,0-1.129-1.218h-.28v-.389c.607,0,1.2.051,1.81.051.533,0,1.063-.051,1.6-.051v.389h-.2c-.543,0-1.152.1-1.152,1.645v5.9a8.35,8.35,0,0,0,.078,1.307h-.491l-6.672-7.436v5.338c0,1.127.219,1.514,1.216,1.514h.222v.391c-.558,0-1.114-.051-1.671-.051-.583,0-1.18.051-1.763.051v-.391h.182c.9,0,1.164-.607,1.164-1.643v-5.457a1.159,1.159,0,0,0-1.177-1.164h-.169v-.389c.492,0,1,.051,1.489.051.389,0,.764-.051,1.153-.051l5.765,6.489Z" transform="translate(-1544.728 -298.438)" fill="#fff"/>
    <path id="Path_4283" data-name="Path 4283" d="M1637.513,330.549l-.536-.019L1630.4,323.2v5.192c.014,1.126.186,1.445,1.159,1.457h.28v.5h-.057c-.562,0-1.117-.052-1.671-.052-.581,0-1.176.052-1.764.052h-.054v-.5h.237c.854,0,1.1-.552,1.11-1.585V322.81a1.108,1.108,0,0,0-1.124-1.109h-.224v-.5h.054c.5,0,1,.049,1.49.049.385,0,.758-.049,1.2-.031l5.691,6.409v-4.764c0-1.031-.693-1.155-1.073-1.164h-.34v-.5h.058c.61,0,1.207.049,1.81.049.532,0,1.06-.049,1.6-.049h.056v.5h-.252c-.533.015-1.084.064-1.095,1.59v5.895a8.567,8.567,0,0,0,.073,1.3l.011.063h-.062Zm-.492-.113h.424a8.938,8.938,0,0,1-.066-1.25V323.29c0-1.557.653-1.7,1.208-1.7h.14v-.274c-.511,0-1.023.05-1.541.05-.589,0-1.169-.047-1.755-.05v.274h.227a1.136,1.136,0,0,1,1.183,1.277l-.014,4.9-.024.027-.041.041L1631,321.313c-.382,0-.76.05-1.153.05-.477,0-.963-.047-1.434-.05v.274h.114a1.223,1.223,0,0,1,1.234,1.222v5.457c0,1.036-.289,1.7-1.221,1.7h-.128v.274c.562,0,1.139-.049,1.708-.049.54,0,1.076.047,1.614.049v-.273h-.167c-1.017,0-1.271-.447-1.271-1.574v-5.484l6.728,7.524Zm-.26-2.69h0l.041-.037Zm-.031-.024h0v0l-.011-.01Z" transform="translate(-1544.171 -297.875)" fill="#fff"/>
    <path id="Path_4284" data-name="Path 4284" d="M1746.564,325.715a5.447,5.447,0,0,0-.284,1.01c0,.39.545.453.97.453h.145v.391c-.518-.028-1.05-.051-1.568-.051-.468,0-.933.023-1.4.051v-.391h.074a1.172,1.172,0,0,0,1.128-.843l2.075-5.944a10.7,10.7,0,0,0,.477-1.608,6.689,6.689,0,0,0,1.181-.556.277.277,0,0,1,.1-.027c.039,0,.063,0,.089.04.039.1.08.22.119.323l2.382,6.776c.155.453.31.931.481,1.321a.821.821,0,0,0,.854.516h.079v.391c-.584-.028-1.167-.051-1.789-.051s-1.282.023-1.943.051v-.391h.144c.3,0,.8-.05.8-.375a4.162,4.162,0,0,0-.262-.933l-.5-1.5h-2.941l-.416,1.348Zm1.893-5.74h-.026l-1.206,3.667h2.424Z" transform="translate(-1649.871 -295.144)" fill="#fff"/>
    <path id="Path_4285" data-name="Path 4285" d="M1752.891,327.07c-.583-.023-1.165-.052-1.784-.052s-1.28.029-1.941.052l-.057,0v-.5h.2c.3,0,.748-.07.749-.319a4.157,4.157,0,0,0-.259-.915l-.492-1.465h-2.859l-.4,1.309a5.416,5.416,0,0,0-.281.994c0,.318.485.4.913.4h.2v.5l-.057,0c-.518-.023-1.048-.052-1.564-.052-.464,0-.93.029-1.4.052l-.057,0v-.5h.13a1.121,1.121,0,0,0,1.076-.8l2.073-5.945a16.949,16.949,0,0,0,.514-1.641,6.882,6.882,0,0,0,1.178-.558.337.337,0,0,1,.122-.027.145.145,0,0,1,.142.075c.039.1.076.219.12.324l2.382,6.775c.155.454.31.933.478,1.319a.764.764,0,0,0,.8.482h.135v.5l-.059,0Zm-3.671-.114h0c.64-.024,1.271-.049,1.887-.049s1.168.025,1.732.048l0-.27h-.021a.884.884,0,0,1-.906-.553c-.171-.393-.325-.874-.479-1.326l-2.384-6.776c-.039-.1-.078-.221-.109-.309-.011-.016-.01-.016-.02-.016h-.024a.246.246,0,0,0-.073.018,4.968,4.968,0,0,1-1.155.517,11.034,11.034,0,0,1-.482,1.617l-2.074,5.946a1.232,1.232,0,0,1-1.179.882h-.019v.27c.446-.022.891-.048,1.342-.048.5,0,1.013.025,1.512.048v-.27h-.088c-.421-.005-1.012-.051-1.027-.512a5.423,5.423,0,0,1,.288-1.026l.053.017-.053-.019.427-1.385h3.021l.519,1.54a4.019,4.019,0,0,1,.26.951c-.019.4-.562.426-.859.434h-.085v.272Zm-2.646-3.812h0l1.242-3.778h.067v.057l-.013,0,.013,0v-.057h.041l1.224,3.778Zm.155-.111h2.265l-1.126-3.47-1.139,3.47Zm1.1-3.594h0l.026-.01Z" transform="translate(-1649.297 -294.591)" fill="#fff"/>
    <path id="Path_4286" data-name="Path 4286" d="M1852.924,329.593c0,.518.359.673.774.726a9.4,9.4,0,0,0,1.712-.026,1.855,1.855,0,0,0,1.241-.7,2.94,2.94,0,0,0,.4-.933h.375c-.142.738-.323,1.466-.48,2.2-1.137,0-2.28-.051-3.418-.051s-2.28.051-3.419.051v-.391h.178c.469,0,.976-.063.976-.867v-6.658c0-.676-.507-.739-.976-.739h-.178v-.389c.684,0,1.359.051,2.044.051.663,0,1.31-.051,1.971-.051v.389h-.326c-.49,0-.877.014-.877.7v6.685Z" transform="translate(-1746.061 -298.439)" fill="#fff"/>
    <path id="Path_4287" data-name="Path 4287" d="M1856.365,330.356c-1.142,0-2.281-.052-3.418-.052s-2.281.052-3.422.052h-.055v-.5h.235c.47-.011.913-.043.919-.811v-6.66c-.005-.63-.446-.673-.919-.682h-.235v-.5h.055c.689,0,1.364.049,2.048.049.657,0,1.3-.049,1.97-.049h.053v.5h-.378c-.5.014-.815-.009-.825.644v6.685c0,.482.32.613.724.669.229.016.469.026.719.026a9.2,9.2,0,0,0,.981-.051,1.8,1.8,0,0,0,1.205-.675,2.894,2.894,0,0,0,.392-.915l.012-.043h.488l-.012.068c-.146.741-.324,1.465-.481,2.2l-.011.044h-.044Zm-.047-.113h0c.15-.7.32-1.39.459-2.09h-.266a2.964,2.964,0,0,1-.4.913,1.918,1.918,0,0,1-1.283.721,9.756,9.756,0,0,1-.993.053c-.251,0-.494-.012-.729-.028-.421-.047-.83-.226-.828-.78v-6.685c0-.719.455-.756.939-.756h.268v-.275c-.639,0-1.267.051-1.912.051-.671,0-1.327-.048-1.991-.051v.275h.124c.463,0,1.028.081,1.028.794v6.66c0,.838-.563.925-1.028.925h-.124v.274c1.12,0,2.24-.049,3.366-.049s2.25.048,3.371.049Z" transform="translate(-1745.477 -297.876)" fill="#fff"/>
    <path id="Path_4288" data-name="Path 4288" d="M1915.993,317.72a1.364,1.364,0,1,1-1.365,1.369A1.341,1.341,0,0,1,1915.993,317.72Zm0,2.475h0a1.11,1.11,0,1,0-1.083-1.106A1.1,1.1,0,0,0,1915.993,320.195Zm-.679-.387h0v-.067c.168-.023.2-.018.2-.122v-1.01c0-.142-.015-.19-.192-.183v-.069h.7c.241,0,.461.114.461.362a.429.429,0,0,1-.323.411l.224.312a1.4,1.4,0,0,0,.3.322v.044h-.266c-.127,0-.239-.269-.49-.629h-.151v.454c0,.09.031.084.2.108v.067h-.659Zm.46-.719h.161c.176,0,.259-.134.259-.349a.255.255,0,0,0-.268-.294h-.152Z" transform="translate(-1804.783 -294.707)" fill="#fff"/>
  </g>
</svg>
