<svg xmlns="http://www.w3.org/2000/svg" width="53.739" height="41.811" viewBox="0 0 53.739 41.811">
  <g id="Mastercard-logo" transform="translate(1565.623 -1106.749)">
    <g id="Group_5" data-name="Group 5" transform="translate(-1565.623 1106.748)">
      <g id="Group_1" data-name="Group 1" transform="translate(2.734 35.391)">
        <path id="Path_4206" data-name="Path 4206" d="M-135.772-15.922v.109h.1a.106.106,0,0,0,.055-.014.048.048,0,0,0,.02-.041.046.046,0,0,0-.02-.04.1.1,0,0,0-.055-.014Zm.1-.076a.186.186,0,0,1,.12.035.116.116,0,0,1,.042.1.109.109,0,0,1-.034.083.165.165,0,0,1-.1.04l.133.153h-.1l-.124-.152h-.04v.152h-.087V-16Zm-.026.547a.321.321,0,0,0,.132-.027.346.346,0,0,0,.108-.073.339.339,0,0,0,.073-.109.348.348,0,0,0,.026-.133.348.348,0,0,0-.026-.133.351.351,0,0,0-.073-.109.346.346,0,0,0-.108-.073.338.338,0,0,0-.132-.025.353.353,0,0,0-.134.025.344.344,0,0,0-.11.073.331.331,0,0,0-.072.109.329.329,0,0,0-.026.133.329.329,0,0,0,.026.133.32.32,0,0,0,.072.109.344.344,0,0,0,.11.073.335.335,0,0,0,.134.027m0-.781a.439.439,0,0,1,.174.035.442.442,0,0,1,.142.094.43.43,0,0,1,.1.139.419.419,0,0,1,.035.17.419.419,0,0,1-.035.17.454.454,0,0,1-.1.139.48.48,0,0,1-.142.094.439.439,0,0,1-.174.035.446.446,0,0,1-.176-.035.459.459,0,0,1-.143-.094.454.454,0,0,1-.1-.139.419.419,0,0,1-.035-.17.419.419,0,0,1,.035-.17.43.43,0,0,1,.1-.139.425.425,0,0,1,.143-.094.446.446,0,0,1,.176-.035m-41.15-1.566a1.324,1.324,0,0,1,1.338-1.412,1.322,1.322,0,0,1,1.329,1.412,1.322,1.322,0,0,1-1.329,1.412,1.324,1.324,0,0,1-1.338-1.412m3.571,0V-20h-.959v.535a1.672,1.672,0,0,0-1.393-.646,2.211,2.211,0,0,0-2.206,2.316,2.21,2.21,0,0,0,2.206,2.316,1.672,1.672,0,0,0,1.393-.646v.535h.959Zm32.408,0a1.324,1.324,0,0,1,1.338-1.412A1.322,1.322,0,0,1-138.2-17.8a1.322,1.322,0,0,1-1.329,1.412,1.324,1.324,0,0,1-1.338-1.412m3.572,0v-3.977h-.96v2.307a1.672,1.672,0,0,0-1.393-.646,2.211,2.211,0,0,0-2.206,2.316,2.21,2.21,0,0,0,2.206,2.316,1.672,1.672,0,0,0,1.393-.646v.535h.96Zm-24.076-1.458a1.1,1.1,0,0,1,1.116,1.07h-2.289a1.136,1.136,0,0,1,1.172-1.07m.019-.859a2.155,2.155,0,0,0-2.2,2.316,2.175,2.175,0,0,0,2.261,2.316,2.681,2.681,0,0,0,1.808-.618l-.47-.711a2.109,2.109,0,0,1-1.283.462,1.225,1.225,0,0,1-1.319-1.08h3.275c.01-.119.019-.24.019-.369a2.115,2.115,0,0,0-2.094-2.316m11.58,2.316a1.324,1.324,0,0,1,1.338-1.412,1.322,1.322,0,0,1,1.329,1.412,1.322,1.322,0,0,1-1.329,1.412,1.324,1.324,0,0,1-1.338-1.412m3.571,0V-20h-.959v.535a1.673,1.673,0,0,0-1.393-.646,2.211,2.211,0,0,0-2.206,2.316,2.21,2.21,0,0,0,2.206,2.316,1.673,1.673,0,0,0,1.393-.646v.535h.959Zm-8.987,0a2.228,2.228,0,0,0,2.353,2.316,2.309,2.309,0,0,0,1.586-.526l-.46-.775a1.938,1.938,0,0,1-1.154.4,1.318,1.318,0,0,1-1.329-1.412,1.318,1.318,0,0,1,1.329-1.412,1.938,1.938,0,0,1,1.154.4l.46-.775a2.309,2.309,0,0,0-1.586-.526,2.228,2.228,0,0,0-2.353,2.316m12.365-2.316a1.3,1.3,0,0,0-1.163.646V-20h-.951v4.411h.96v-2.473c0-.73.314-1.135.941-1.135a1.555,1.555,0,0,1,.6.111l.3-.9a2.042,2.042,0,0,0-.683-.12m-25.709.462a3.3,3.3,0,0,0-1.8-.462c-1.117,0-1.837.535-1.837,1.412,0,.719.535,1.163,1.522,1.3l.453.064c.526.074.774.212.774.462,0,.341-.351.535-1.005.535a2.349,2.349,0,0,1-1.467-.462l-.452.747a3.182,3.182,0,0,0,1.91.572c1.274,0,2.012-.6,2.012-1.44,0-.775-.581-1.181-1.541-1.319l-.452-.065c-.415-.055-.748-.137-.748-.433,0-.323.314-.516.84-.516a2.846,2.846,0,0,1,1.375.378Zm12.374-.462a1.3,1.3,0,0,0-1.162.646V-20h-.951v4.411h.959v-2.473c0-.73.314-1.135.941-1.135a1.555,1.555,0,0,1,.6.111l.3-.9a2.042,2.042,0,0,0-.683-.12m-8.184.111h-1.568v-1.338h-.97V-20h-.895v.877h.895v2.012c0,1.023.4,1.633,1.531,1.633a2.251,2.251,0,0,0,1.2-.341l-.277-.822a1.775,1.775,0,0,1-.849.249c-.48,0-.636-.3-.636-.738v-1.993h1.568Zm-14.34,4.411V-18.36a1.642,1.642,0,0,0-1.735-1.753,1.708,1.708,0,0,0-1.55.785,1.619,1.619,0,0,0-1.458-.785,1.459,1.459,0,0,0-1.292.655V-20h-.96v4.411h.969v-2.445a1.032,1.032,0,0,1,1.081-1.172c.637,0,.959.415.959,1.163v2.455h.97v-2.445a1.04,1.04,0,0,1,1.079-1.172c.655,0,.969.415.969,1.163v2.455Z" transform="translate(185.679 21.774)" fill="#fff"/>
      </g>
      <g id="Group_2" data-name="Group 2" transform="translate(51.833 26.26)">
        <path id="Path_4207" data-name="Path 4207" d="M-3.807-1.753V-2.4h-.168l-.194.443L-4.363-2.4h-.169v.644h.119v-.486l.182.419h.124l.182-.42v.487Zm-1.066,0v-.534h.215V-2.4h-.549v.109h.215v.534Z" transform="translate(5.207 2.397)" fill="#f79410"/>
      </g>
      <path id="Path_4208" data-name="Path 4208" d="M3357.539,2173.693H3343v-26.122h14.535Z" transform="translate(-3323.403 -2144.018)" fill="#ff5f00"/>
      <g id="Group_3" data-name="Group 3" transform="translate(0 0)">
        <path id="Path_4209" data-name="Path 4209" d="M-55.859-45.2a16.585,16.585,0,0,1,6.345-13.061,16.54,16.54,0,0,0-10.266-3.552A16.612,16.612,0,0,0-76.392-45.2,16.612,16.612,0,0,0-59.781-28.583a16.54,16.54,0,0,0,10.266-3.552A16.585,16.585,0,0,1-55.859-45.2" transform="translate(76.392 61.809)" fill="#eb001b"/>
      </g>
      <g id="Group_4" data-name="Group 4" transform="translate(26.861 0)">
        <path id="Path_4210" data-name="Path 4210" d="M-73.123-45.2A16.612,16.612,0,0,1-89.734-28.583,16.545,16.545,0,0,1-100-32.135,16.583,16.583,0,0,0-93.655-45.2,16.583,16.583,0,0,0-100-58.257a16.545,16.545,0,0,1,10.267-3.552A16.612,16.612,0,0,1-73.123-45.2" transform="translate(100.001 61.809)" fill="#f79e1b"/>
      </g>
    </g>
  </g>
</svg>
