<svg xmlns="http://www.w3.org/2000/svg" width="95.673" height="30.963" viewBox="0 0 95.673 30.963">
  <g id="visa" transform="translate(-81.166 -105.048)">
    <path id="polygon9" d="M441.257,140.7h-7.75l4.847-29.973h7.75Z" transform="translate(-318.633 -5.136)" fill="#00579f"/>
    <path id="path11" d="M588.427,106.324a19.1,19.1,0,0,0-6.951-1.276c-7.654,0-13.043,4.081-13.076,9.916-.064,4.305,3.859,6.7,6.792,8.132,3,1.467,4.018,2.424,4.018,3.732-.031,2.008-2.423,2.934-4.654,2.934a15.425,15.425,0,0,1-7.272-1.594l-1.021-.479-1.085,6.728a23.588,23.588,0,0,0,8.644,1.6c8.132,0,13.426-4.018,13.489-10.236.031-3.412-2.04-6.027-6.505-8.163-2.711-1.371-4.371-2.3-4.371-3.7.032-1.276,1.4-2.582,4.464-2.582a13.168,13.168,0,0,1,5.773,1.148l.7.318,1.054-6.472Z" transform="translate(-437.708)" fill="#00579f"/>
    <path id="path13" d="M802.513,130.082c.638-1.722,3.094-8.386,3.094-8.386-.032.064.637-1.754,1.02-2.87l.542,2.583s1.468,7.175,1.786,8.673Zm9.567-19.355h-5.995c-1.849,0-3.253.542-4.051,2.487L790.522,140.7h8.132s1.339-3.7,1.627-4.5h9.951c.222,1.052.925,4.5.925,4.5h7.176l-6.252-29.973Z" transform="translate(-641.493 -5.136)" fill="#00579f"/>
    <path id="path15" d="M184.97,110.727l-7.59,20.439-.829-4.145c-1.4-4.783-5.8-9.98-10.715-12.564l6.952,26.212h8.2l12.182-29.942Z" transform="translate(-76.57 -5.136)" fill="#00579f"/>
    <path id="path17" d="M93.763,110.727H81.293l-.128.606c9.727,2.487,16.169,8.483,18.815,15.689L97.27,113.246c-.446-1.914-1.818-2.456-3.508-2.52Z" transform="translate(0 -5.136)" fill="#faa61a"/>
  </g>
</svg>
