<svg xmlns="http://www.w3.org/2000/svg" width="524.038" height="288.222" viewBox="0 0 524.038 288.222">
  <g id="domicilio" transform="translate(-55.696 -103.778)">
    <path id="path1" d="M98.866,107.751c-4.014,1.282-6.1,6.74-3.313,8.688,1.373.963,102.839,1.365,109.853.435l2.886-.382.175-3.077c.185-3.214-.49-4.713-2.121-4.719a7.6,7.6,0,0,1-2.594-.867c-2.149-1.121-101.389-1.2-104.886-.079M326.821,125.6c-3.313.719-3.366.938-3.374,14.073-.01,14.826-1.623,16.023-21.652,16.094-16.844.059-15.9-.081-17.748,2.6l-1.586,2.295v29.2l-1.7,2.673c-3.159,4.983-1.69,4.729-29.446,5.056-27.079.319-26.744.272-27.441,3.88-.232,1.2-.394,18.414-.36,38.254.069,38.944-.163,42.72-2.756,44.969-1.808,1.568-4.509,1.784-24.057,1.936l-17.358.136-2.433,1.611c-3.6,2.379-3.541,1.871-3.541,32.728,0,29.692.028,30.017,2.515,30.017a7.774,7.774,0,0,1,2.7,1.708l2,1.708,10.752.024c15.728.035,19.756,2.58,20.541,12.982.689,9.112,7.3,8.4-77.811,8.4H62.957l-1.909,1.877c-1.05,1.032-2.322,2.224-2.83,2.649-1.2,1-.839,1.981.914,2.472,1.731.485,508.82.624,510.621.142,1.29-.345,1.8-2.145.786-2.771a4.036,4.036,0,0,1-.912-1.9c-.607-2.421-.776-2.446-15.964-2.456-15.166-.01-17.339-.347-19.681-3.045-1.314-1.515-1.3-2.813.065-4.542a22.433,22.433,0,0,0,2.31-5.485c1.253-4.207,3.039-7.138,4.351-7.138a4.859,4.859,0,0,0,2.143-1.3,12.754,12.754,0,0,1,6.277-3.575,15.615,15.615,0,0,0,7.172-3.413c1.221-1.133,2.531-1.885,6.648-3.823a3.717,3.717,0,0,0,1.3-2.151A5.619,5.619,0,0,1,565.568,339a2.311,2.311,0,0,0,.867-1.282,6.912,6.912,0,0,1,1.186-2.228,29.929,29.929,0,0,0,2.6-5.7l1.412-4.042-.047-42.867c-.057-51.384-.571-60.758-3.658-66.73-1.064-2.056-3.8-10.285-3.8-11.43,0-.916-2.318-4.749-3.719-6.149a13.715,13.715,0,0,1-1.97-3.248,10.954,10.954,0,0,0-2.545-3.5,6.358,6.358,0,0,1-1.9-2.417c-.386-1.219-2.945-3.935-3.7-3.935-.217,0-.764-.713-1.215-1.588a8.542,8.542,0,0,0-4.185-4.182,9.184,9.184,0,0,1-2.781-2.434,3.664,3.664,0,0,0-2.192-1.607c-.577,0-1.958-1.006-3.069-2.236a19.4,19.4,0,0,0-5.328-3.75,26.281,26.281,0,0,1-5.283-3.248,6.8,6.8,0,0,0-3.281-1.733,3.392,3.392,0,0,1-1.855-.483,17.612,17.612,0,0,0-3.3-1.495,13.808,13.808,0,0,1-3.463-1.719c-.39-.39-2.659-1-5.04-1.365s-6.015-1.07-8.079-1.574c-7.764-1.9-10.7-2.052-40.774-2.117-33.287-.073-35.538.124-37.341,3.258-.494.857-.748,17.284-.961,61.979l-.288,60.811-2.017,1.684c-4.375,3.652-13.912,3.906-17.355.463-3.354-3.354-3.126,2.131-3.27-78.987-.154-85.823.355-78.616-5.6-79.654-4.648-.81-63-.709-66.785.116m58.2,9.929a10.786,10.786,0,0,1,3.059,3.305l1.211,2.155v69.456c0,72.083.026,71.315-2.562,73.541-3.772,3.246-22.31,3.6-25.745.492-2.939-2.659-2.917-2.192-2.917-64.693v-58.1l-3.031-2.819c-2.21-2.058-3.5-2.823-4.761-2.832a18.837,18.837,0,0,1-3.752-.538,48.4,48.4,0,0,0-5.3-.9,8.61,8.61,0,0,1-5.917-2.7l-2.637-2.32v-4.02c0-5.562,2.809-10.305,6.563-11.081,4.607-.951,44.022-.045,45.788,1.052M72.642,149.009c-5.673,1.861-5.872,6.537-.341,8,3.866,1.02,78.865,1,82.743-.022,4.82-1.27,5.385-4.741,1.142-7.018-2.186-1.174-80.167-2.07-83.544-.959m104.886.981c-3.053,1.491-4.467,3.4-3.8,5.131,1.272,3.315,33.118,3.579,34.878.29.768-1.436-.193-4.075-1.97-5.4-2.781-2.078-24.859-2.092-29.105-.018m166.437,18.182a10.678,10.678,0,0,1,3.244,3.9l1.339,2.72.1,51.1.1,51.1-1.828,3.4c-3.24,6.027-2.174,5.763-24.237,6-26.088.272-28.974-.39-30.4-6.98-.888-4.113-.581-107.6.325-109.122,1.875-3.163,2.18-3.2,26.73-3.246,21.9-.039,22.8,0,24.632,1.135m154.873-.622c1.148.305,3,.7,4.113.867a7.77,7.77,0,0,1,3.5,1.674c1.032.957,2.486,1.483,4.9,1.769,4.733.563,9.318,2.058,10.949,3.569a20.871,20.871,0,0,0,3.959,2.563,23.016,23.016,0,0,1,4.394,2.943,7.428,7.428,0,0,0,2.346,1.647.508.508,0,0,1,.542.461c0,.254.975,1.089,2.165,1.855,1.8,1.156,4.6,4.03,8.584,8.8a20.231,20.231,0,0,1,1.654,2.724,17.353,17.353,0,0,0,2.96,3.792A6.259,6.259,0,0,1,550.85,203a14.948,14.948,0,0,0,2.23,4.26c2.36,3.506,4.12,8,4.12,10.516a8.934,8.934,0,0,0,1.767,3.918c2.446,3.325,2.85,9.888,2.366,38.359l-.38,22.354-1.487,1.485c-2.454,2.454-5.539,2.578-63.409,2.539-57.49-.039-59.9-.14-62.194-2.616-2.494-2.693-2.525-3.508-2.36-59.217.175-58.849-.087-55.042,3.9-56.7,2.425-1.008,59.759-1.326,63.434-.351M171.376,190.462c-3.626,1.308-4.333,2.344-3.195,4.684,1.936,3.979,2.848,4.172,19.673,4.172h15.03l1.893-1.442a7.8,7.8,0,0,1,2.5-1.444c1.03,0,1.887-3.244,1.111-4.2-2.19-2.7-30.642-4.061-37.014-1.767m282.219-.427c-.951.26-3.029,1-4.617,1.637l-2.886,1.162v25.607c0,27.1-.014,26.97,2.6,27.037a7.96,7.96,0,0,1,2.519.884c2.6,1.355,88.6,1.288,92.759-.073,3.551-1.16,3.622-1.406,3.329-11.446l-.226-7.733-1.8-1.631c-2.291-2.076-2.846-3.23-3.35-6.965-.349-2.582-.727-3.277-2.59-4.751a10.934,10.934,0,0,1-2.872-3.4,4.948,4.948,0,0,0-2.1-2.306,7.051,7.051,0,0,1-2.478-2.4,13.7,13.7,0,0,0-3.709-3.437,11.8,11.8,0,0,1-3.24-2.8,3.839,3.839,0,0,0-2.2-1.528,23.986,23.986,0,0,1-5.048-2.706c-3.772-2.517-5.535-3.023-15.028-4.317-7.156-.975-46.127-1.641-49.06-.837m51.063,10.681c3.928.746,5.237,1.267,6.665,2.651a6.165,6.165,0,0,0,2.647,1.723c.983,0,5.675,2.856,7.284,4.438.585.575,1.91,1.694,2.945,2.488a20.68,20.68,0,0,1,3.831,4.619,28.026,28.026,0,0,0,3.421,4.556c3.079,2.893,4.558,10.735,2.572,13.644-2.147,3.146-2.275,3.157-34.485,3.13-45.243-.039-42.763,1.1-42.763-19.6,0-13.21.729-15.907,4.91-18.18,2.4-1.3,35.465-.894,42.972.532m-227.63,7.128a17.494,17.494,0,0,1,2.568,3.017,13.393,13.393,0,0,0,1.97,2.432c.41.278.6,10.979.6,33.189v32.775l-1.586,2.438c-2.986,4.593-2.46,4.489-22.444,4.489-20.293,0-20.274,0-21.747-4.958a25.671,25.671,0,0,0-1.3-3.549c-.7-1.29-.729-62.593-.032-63.025a4.87,4.87,0,0,0,.888-2.32,8.676,8.676,0,0,1,2.129-3.758l1.755-1.753,17.993.012c16.185.012,18.113.114,19.2,1.01m277.159,88.782c6.988,1.991,7.924,4.369,7.378,18.706-.479,12.541-.626,13.392-2.675,15.4a6.754,6.754,0,0,0-1.674,2.149c-.026.831-2.9,4.384-3.545,4.384a5.055,5.055,0,0,0-1.98,1.656c-4.93,5.86-13.831,3.246-15.02-4.41a5.784,5.784,0,0,0-1.928-3.75,13.215,13.215,0,0,1-2.675-3.51c-1.436-2.822-3.825-5.355-7.453-7.9a31.228,31.228,0,0,1-4.042-3.305,8.584,8.584,0,0,0-4.065-1.909c-8.5-1.785-10.581-2.238-12.574-2.752-1.656-.427-3.262-.315-6.638.463-2.448.563-6.009,1.347-7.914,1.741-5.639,1.166-6.823,1.647-8.948,3.64a31.065,31.065,0,0,1-4.184,3.218c-1.192.727-2.165,1.54-2.165,1.808a17.634,17.634,0,0,1-2.8,3.484,15.539,15.539,0,0,0-3.805,6.25c-2.366,7.656-3.7,9.088-10,10.721-5.153,1.333-163.28,1.385-168.391.053-5.635-1.467-8.359-4.317-8.359-8.751a5.806,5.806,0,0,0-1.452-2.868,23.23,23.23,0,0,1-2.671-4.174c-1.357-2.785-3-4.512-6.843-7.189a34.4,34.4,0,0,1-4.4-3.711c-1.361-1.436-2.287-1.9-3.8-1.9a36.382,36.382,0,0,1-6.569-1.207c-2.511-.664-5.346-1.4-6.3-1.637-2.316-.571-11.814.973-22.574,3.675a5.533,5.533,0,0,0-2.472,2.37,6.575,6.575,0,0,1-2.945,2.657,4.906,4.906,0,0,0-2.606,2.44,7.488,7.488,0,0,1-2.765,2.854c-1.562.843-2.08,1.651-2.951,4.6-1.022,3.47-2.435,6.742-3.167,7.333a20.991,20.991,0,0,0-1.765,2.391c-2.145,3.209-4.922,4.178-10.62,3.709-11.605-.953-12.007-1.749-12.235-24.282l-.152-15.007,1.463-2.308c2.649-4.182,4.337-5.259,8.82-5.627,9.984-.821,356.518-.353,359.46.485M255.016,322.834a16.5,16.5,0,0,1,3.953,2.527,6.318,6.318,0,0,0,2.165,1.515.524.524,0,0,1,.563.433A7.252,7.252,0,0,0,264,329.157a7.989,7.989,0,0,1,2.293,1.769,35.715,35.715,0,0,0,2.624,4.262c4.678,6.978,5.176,20.378.926,24.94a7.988,7.988,0,0,0-1.519,2.505,13.842,13.842,0,0,1-5.417,7.081,23.082,23.082,0,0,0-2.978,2.259c-.607.88-5.509,2.785-7.2,2.8a16.623,16.623,0,0,0-3.752.607c-4.609,1.355-14.751-.75-18.137-3.768a11.3,11.3,0,0,0-2.748-2.021c-.264,0-1.06-1.227-1.773-2.724a8.533,8.533,0,0,0-2.588-3.37c-2.025-1.01-3.61-2.649-3.61-3.734a34.492,34.492,0,0,0-1.442-5.411c-1.46-4.467-1.857-8.1-.949-8.663a16.335,16.335,0,0,0,1.5-4.509c1.14-4.753,2.72-7.723,4.39-8.253a4.406,4.406,0,0,0,1.948-2.3,8.978,8.978,0,0,1,3.019-3.358,28.22,28.22,0,0,0,3.459-2.61,7.177,7.177,0,0,1,2.886-1.55,18.256,18.256,0,0,0,2.791-.859c2.188-.953,3.482-1.056,9.208-.739a28.332,28.332,0,0,1,8.079,1.329m255.751-.152a16.238,16.238,0,0,1,5.066,2.639,26.727,26.727,0,0,0,3.461,2.61,15.375,15.375,0,0,1,3.65,4.284,13.256,13.256,0,0,0,2.442,3.319c.516,0,2.2,3.774,2.582,5.771.15.794.587,2.891.969,4.664.9,4.178-1.562,15.537-3.372,15.537-.25,0-1.44,1.55-2.645,3.441a14.921,14.921,0,0,1-4.733,4.93,8.081,8.081,0,0,0-2.543,1.913c0,4.036-23.356,4.684-27.658.768a25.189,25.189,0,0,0-3.859-2.748,9.313,9.313,0,0,1-3.165-3.051,14.791,14.791,0,0,0-2.486-3.226,5.881,5.881,0,0,1-1.524-1.853,15.641,15.641,0,0,0-1.134-2.769,14.68,14.68,0,0,1-1.135-2.84,3.965,3.965,0,0,0-.993-1.607c-1.3-1.44-1.377-9.513-.1-11.509a36.37,36.37,0,0,0,2.214-5.011c.8-2.167,1.9-4.014,2.708-4.544a7.744,7.744,0,0,0,2.228-2.714,7.96,7.96,0,0,1,2.978-2.958,18.593,18.593,0,0,0,3.6-2.622c3.778-3.766,15.241-4.952,23.451-2.423m-51.171,32.8c4.717,1.643,7.063,5.222,8.611,13.138.725,3.717-.855,5.779-5.129,6.7-4.174.894-176.234.871-179.793-.026-4.605-1.16-6.478-5.424-3.843-8.749a8.99,8.99,0,0,0,.961-2.927c.886-4.922,2.555-6.774,7.54-8.383,3.24-1.046,168.627-.8,171.653.25" transform="translate(1.766 3.076)" fill="#707070" fill-rule="evenodd"/>
    <path id="path2" d="M97.215,105.707c-13.1,5.852-6.65,18.265,9.236,17.78,2.222-.067,25.468-.315,51.658-.551,51.91-.471,50.3-.357,53.123-3.738,2.588-3.1.392-10.585-3.823-13.031-2.3-1.333-107.259-1.771-110.194-.459m109.034,3.035c1.84,1.194,3.358,2.635,3.5,3.319,1.812,8.982,5.9,8.4-58.717,8.436l-52.9.032L95.8,119.055c-4.66-2.941-1.7-10.664,4.564-11.889,1.129-.221,24.684-.431,52.345-.469L203,106.633l3.25,2.109M333,122.581c-2.72.309-7.589,1.828-8.659,2.7-3.1,2.527-3.157,2.779-3.463,14.252-.4,15.1-.778,15.409-17.851,14.847-16.511-.544-17.772-.25-21.707,5.066l-1.71,2.308-.087,14.587c-.13,21.662,2.052,20-25.824,19.639-26.506-.347-29.019.035-31.154,4.733-.459,1.01-.741,13.285-.943,40.98-.242,33.378-.42,39.736-1.133,40.809-1.745,2.631-4.952,3.057-23.061,3.057-27.616,0-25.895-2.527-25.682,37.673.2,37.344-.431,36.257,20.977,36.178,10.092-.037,10.632.018,11.908,1.217,3.244,3.047,6.173,11.918,4.416,13.378-.691.575-16.216.79-73.659,1.016-81.39.323-75.833.006-77.74,4.451-1.471,3.433-1.389,5.1.347,6.974l1.45,1.562,254.965.148c275.652.16,257.322.343,260.594-2.594,2.159-1.938.685-6.577-2.787-8.779l-2.568-1.631-13.7-.236c-16.494-.284-16.295-.217-16.295-5.484,0-1.968.238-3.727.532-3.908a3.834,3.834,0,0,0,.894-1.911c.42-1.826,1.509-2.708,7-5.669,2.19-1.182,4.375-2.358,4.849-2.616s2.295-1.131,4.042-1.94c6.648-3.084,10.482-7.12,16.659-17.528,2.8-4.727,2.945-7.166,2.913-51.171-.035-51.234-.51-60.072-3.433-64.067a9.569,9.569,0,0,1-.831-2.6,46.228,46.228,0,0,0-3.465-10.1c-.76-1.588-1.932-4.184-2.6-5.771a19.765,19.765,0,0,0-2.789-4.619,24.019,24.019,0,0,1-2.661-3.711c-1.192-2.157-2.037-3.214-6.39-8.016-5.5-6.063-9.054-9.119-16.738-14.374-1.27-.869-3.632-2.559-5.247-3.756a19.173,19.173,0,0,0-3.35-2.174c-.7,0-5.677-2.379-7.851-3.75a14.681,14.681,0,0,0-4.638-1.714,94.737,94.737,0,0,1-14.055-3.89l-5.129-1.706-33.543-.014c-39.487-.016-38.386-.11-41.063,3.494-1.093,1.469-2.249,2.986-2.57,3.37-.388.461-.587,20.439-.587,59.1v58.4l-1.282,2.566c-3.124,6.256-10.364,5.785-13.212-.859-1.087-2.537-1.117-4.627-1.073-75.715.047-78.382.189-74.91-3.22-77.9-5.054-4.438-4.018-4.312-36.622-4.43-16.031-.057-30.057,0-31.168.126M398,127.06c3.356,2.033,4.353,5.781,3.632,13.661-.4,4.394-.548,29.245-.42,72.725l.193,66.052,1.345,2.907c2.328,5.029,9.74,6.746,15.379,3.563,4.438-2.505,4.229.682,4.282-65.6l.045-58.55,1.243-1.814c2.647-3.862,2.176-3.817,39.227-3.8,32.353.012,33.445.047,35.954,1.192a14.041,14.041,0,0,0,3.388,1.178,1.958,1.958,0,0,1,1.2.4,44.412,44.412,0,0,0,6.7,1.694,41.37,41.37,0,0,1,9.657,3.067,20.411,20.411,0,0,0,3.985,1.769c1,0,4.249,1.743,8.276,4.442a20.231,20.231,0,0,0,4.436,2.486c.394,0,.878.5,1.073,1.115a7.339,7.339,0,0,0,2.828,2.566c4.069,2.385,14.749,12.371,14.778,13.821a2.55,2.55,0,0,0,.731,1.217c2.348,2.421,3.823,4.384,4.2,5.592a7.385,7.385,0,0,0,1.749,2.6c1.249,1.166,3.717,5.858,3.717,7.067a34.083,34.083,0,0,0,1.962,4.812,98.1,98.1,0,0,1,4.172,12.883l2.212,8.641.187,47.817c.165,42.466.087,47.969-.709,49.184a5.674,5.674,0,0,0-.916,2.109,12.77,12.77,0,0,1-1.135,3.051,13.336,13.336,0,0,0-1.135,2.947,5.966,5.966,0,0,1-1.465,2.194,18.152,18.152,0,0,0-2.381,3.4c-1.054,2.072-2.748,3.864-3.652,3.864a9.3,9.3,0,0,0-2.765,1.916,29.791,29.791,0,0,1-7.073,3.837,37.459,37.459,0,0,0-5.194,2.3,17.333,17.333,0,0,1-2.886,1.7c-4.554,2.32-6.271,4.814-7.213,10.475a17.305,17.305,0,0,1-1.182,4.046c-2.017,3.941,1.054,4.824,17.945,5.16,15.992.319,17.1.569,17.859,4.014a4.262,4.262,0,0,0,.916,2.074c.973.6.555,1.288-1.521,2.513l-2.052,1.211-252.918-.014c-250.123-.014-257.381-.065-258.469-1.828-.622-1,.538-4.128,1.944-5.243,3.6-2.848.187-2.728,76.728-2.728,74.342,0,72.849.053,74.569-2.572.959-1.463.022-8.578-1.255-9.525a20.546,20.546,0,0,1-2-2.75c-2.752-4.247-3.352-4.434-13.917-4.343-12.462.106-17.177-1.266-20.2-5.889-1.071-1.633-1.454-55.341-.408-57.321a30.078,30.078,0,0,0,1.194-2.807c1.288-3.49,3.146-3.809,23.673-4.057,10-.122,19.125-.479,20.281-.792,4.459-1.209,4.213,1.168,4.536-43.85.2-28.107.485-40.549.943-41.563,1.18-2.61,3.87-2.88,28.611-2.88,30.409,0,28.278,1.54,28.733-20.778l.3-14.719,2.243-3.319,2.245-3.319h14.036c22.655,0,22.74-.059,22.74-15.737,0-12.594.258-13.277,5.484-14.477,4.18-.959,67.608-.041,69.335,1M344.25,137.208c-5.864.762-9.3,4.548-9.062,9.994.278,6.464,4.341,9.068,14.148,9.068H353.5l3.169,2.945,3.167,2.943.29,60.114c.313,65.4.1,61.737,3.644,63.9,1.6.977,2.941,1.121,10.382,1.123,11.034,0,12.616-.656,14.441-6.017,1.363-4,1.5-134.552.146-137.8a10.171,10.171,0,0,0-5.933-5.665c-2.527-.894-32.676-1.365-38.554-.6m38.162,3.62a31.112,31.112,0,0,1,2.962,2.683l1.3,1.385v66.927c0,74.181.254,69.278-3.744,72.327-2.312,1.765-11.148,2.037-15.879.49-4.607-1.507-4.294,2.8-4.619-63.436-.282-57.665-.311-58.908-1.442-60.594-3.254-4.853-5.239-5.838-12.645-6.275-8.609-.51-10.156-1.578-10.156-7.02,0-3.372.167-3.886,1.873-5.743l1.871-2.039h19.407c19.24,0,19.421.01,21.071,1.3M71.22,147.99c-6.563,2.279-6.269,11.737.453,14.633,3.973,1.714,83.143,1.558,86.3-.167,6.746-3.685,6.2-12.182-.943-14.672-3.216-1.121-82.538-.93-85.812.207m106.528.079c-7.63,2.626-7.485,10.165.274,14.292l2.832,1.507,12.726-.221c14.237-.248,15.383-.526,17.585-4.254a8.076,8.076,0,0,0-4.5-11.692c-3.472-1.04-25.639-.758-28.912.368m-19.614,2.5c4.384,2.88,3.155,8.209-2.287,9.913-4.922,1.54-78.266,1.521-82.8-.022-4.635-1.58-5.444-2.793-4.394-6.577,1.272-4.579-.3-4.436,47.342-4.333,36.393.077,40.868.185,42.135,1.018M206,149.971c5.83,1.251,6.407,9.052.746,10.114a4.537,4.537,0,0,0-2.216.869c-.382.618-22.964.693-23.569.079a13.592,13.592,0,0,0-3.11-1.3c-5.612-1.81-5.174-7.262.747-9.332,3.423-1.2,22.432-1.495,27.4-.429m93.861,20.252c-6.51.934-6.12-2.781-6.088,58.032.032,58.04-.142,55.369,3.725,57.234.953.459,2.182,1.054,2.734,1.32,2.186,1.054,41.162.577,43.1-.528,4.4-2.5,4.564-4.782,4.623-63.732.051-49.808-.053-50.837-5.332-52.162-1.944-.488-39.5-.63-42.765-.164m157.432-.126c-23.116.358-22,.1-23.506,5.436-1.379,4.9-1.393,101.435-.018,105.581,2.21,6.65-2.653,6.177,63.69,6.177,64.626,0,61.477.211,63.153-4.215.78-2.062.928-6.076.991-26.953.079-25.56-.144-28.312-2.513-31.079-.778-.908-1.639-3.729-2.49-8.16a11.6,11.6,0,0,0-2.574-5.2c-.512-.427-2.07-3.384-3.415-6.476a8.441,8.441,0,0,0-2.271-3.307,10.674,10.674,0,0,1-2.614-3.189c-1.873-3.2-10.738-12.105-13.228-13.293a17.7,17.7,0,0,1-3.549-2.452,23.332,23.332,0,0,0-4.617-2.982,36.981,36.981,0,0,1-4.617-2.661c-1.712-1.249-8.229-3.155-10.8-3.157a14.933,14.933,0,0,1-4.544-1.7c-4.845-2.555-11.95-2.911-47.081-2.366m-115.748,2.044c3.606.892,3.543-.073,3.557,56l.014,50.8-1.385,2.588c-1.808,3.384-1.788,3.38-23.149,3.421-20.386.039-21.6-.189-23.915-4.52-1.934-3.614-1.073-104.933.912-107.363,1.1-1.339,39.07-2.137,43.966-.924m154.215.268c1.43.268,4.026.91,5.773,1.428s5.511,1.572,8.369,2.344c5.418,1.463,14.077,5.6,17.687,8.444a11.576,11.576,0,0,0,2.478,1.658c.453,0,1.554.875,4.022,3.193,1.024.963,2.494,2.263,3.268,2.889a60.164,60.164,0,0,1,6.59,7.68c.323.425,1.7,1.983,3.059,3.463a14.059,14.059,0,0,1,2.821,4.132,7.25,7.25,0,0,0,.776,2.019,8.057,8.057,0,0,1,.831,1.895,9.211,9.211,0,0,0,1.788,2.813,8.245,8.245,0,0,1,1.743,3.589c.721,4.2,2.092,9.041,2.8,9.886,2.206,2.618,2.458,6.726,2.2,35.881l-.144,16.543-1.968,2.027c-2.769,2.852-.616,2.761-62.123,2.572l-55.146-.171-2.409-1.907c-1.655-1.312-2.507-2.488-2.72-3.752-.745-4.43-.565-89.016.217-102.617a6.445,6.445,0,0,1,1.495-2.6l1.44-1.676,20.636-.29c22.921-.321,32.629-.173,36.509.555M171.569,188.056c-1.714.512-3.738,2.31-6.437,5.72L164,195.21l1.639,3.248c2.667,5.285,2.486,5.247,24.219,5.034,18.066-.177,18.461-.207,19.7-1.442,3.874-3.878,3.086-10.847-1.511-13.37-2.017-1.1-33.076-1.637-36.474-.624m281.192-.1a13.337,13.337,0,0,0-6.638,3.9L444.68,193.5l-.16,26.443c-.185,30.208-.268,29.643,4.692,31.912,3.155,1.444,93.816,1.731,97.186.309,5.22-2.2,6.588-22.3,1.865-27.362a21.042,21.042,0,0,1-3.662-7.561,6.443,6.443,0,0,0-1.3-2.543c-.487-.484-1.942-2.338-3.234-4.115-6.244-8.586-18.611-17.36-27.8-19.722-.987-.254-3.74-1.03-6.122-1.723-4.556-1.328-48.983-2.31-53.389-1.18m-248.112,2.653a7.781,7.781,0,0,0,2.828.867c2.062.006,3.443,3.151,2.559,5.832-1.428,4.325-1.113,4.249-18.655,4.457-22.344.266-21.036.561-23.961-5.42-.7-1.44,1.231-4.016,4.15-5.525,2.622-1.355,30.543-1.532,33.078-.211m298.59.488c8.6,1.954,15.024,3.79,15.609,4.457a32.6,32.6,0,0,0,6.263,4,6.823,6.823,0,0,1,2.306,1.731,6.993,6.993,0,0,0,2.267,1.731c.3,0,2.458,2.1,4.806,4.672s5.243,5.728,6.435,7.018a9.113,9.113,0,0,1,2.165,3.157c0,1.885,2.033,6.9,3.276,8.072,4.422,4.184,4.048,22.57-.479,23.565a3.923,3.923,0,0,0-1.96.89c-.2.319-18.676.534-45.9.534H452.449l-2.44-1.554c-4.14-2.637-3.884-.743-3.884-28.749,0-28.674-.376-26.446,4.906-29.1l3.463-1.745,22.222.171c18.365.14,22.968.339,26.525,1.148m-39.759,11.78c-3.9,1.991-4.256,3.057-4.548,13.728-.388,14.189.62,18.915,4.507,21.1,1.465.823,63.117,1.6,66.188.837,4.641-1.16,6.4-7.166,3.482-11.908-3.744-6.092-10.78-14.355-12.239-14.376a7.127,7.127,0,0,1-2.344-1.662,10.7,10.7,0,0,0-3.173-2.094,24.433,24.433,0,0,1-4.3-2.338,19.291,19.291,0,0,0-4.329-2.238c-9.45-2.21-39.539-2.941-43.247-1.05m35.456,1.611c13.748,2.344,24.863,10.666,32.178,24.1,1.174,2.155,1.331,5.777.29,6.634-3.3,2.71-64.941,2.482-68.039-.252-2.184-1.928-2.964-25.534-.945-28.617,1.808-2.759,24.475-3.914,36.517-1.861m-257.064,5.866c-4.637,1.842-4.69,2.267-4.69,37.845,0,43.4-2.415,39.092,21.934,39.092,24.554,0,22.153,4.1,22.379-38.225.187-35.077.3-34-3.754-37.748l-1.477-1.369-16.8.045c-9.24.026-17.156.187-17.593.36m35.672,4.054,1.773,2.153v31.5c0,33.864-.13,35.381-3.142,36.537-1.288.494-32.757.569-33.963.081-3.191-1.292-3.3-2.482-3.3-36.551V216.695l1.442-1.893c1.824-2.391,1.532-2.354,20.016-2.458l15.4-.087,1.775,2.151m-82.089,85.7c-8.284,1.046-8.6,1.889-8.377,22.428.2,17.9.309,18.562,3.52,20.459,2.344,1.385,11.566,1.57,13.975.282,2.259-1.209,8.359-10.963,8.365-13.376a6.036,6.036,0,0,1,1.879-2.748c1.032-.981,2.135-2.048,2.452-2.371s1.192-1.164,1.94-1.869,2.513-2.421,3.918-3.817c2.208-2.19,3.24-2.716,7.585-3.857,7.611-2,9.283-2.545,9.659-3.151.75-1.215,9.693-.624,13.573.9a41.592,41.592,0,0,0,7,1.983c3.79.609,5.521,1.412,6.943,3.22a24.215,24.215,0,0,0,4.339,3.451c3.849,2.509,8.6,9.094,10.272,14.227,1.5,4.631,3.153,6.492,6.754,7.625,2.85.9,9.622.959,86.473.813l83.381-.16,2.066-1.3c2.505-1.574,5.43-5.525,5.99-8.087a17.983,17.983,0,0,1,4.453-8.156,13.241,13.241,0,0,0,2.21-3.023,7.277,7.277,0,0,1,2.452-2.011,18.173,18.173,0,0,0,3.638-2.962c1.144-1.393,5.942-3.608,7.81-3.61,1.28,0,8.783-2.352,9.446-2.96.693-.636,9.135-.664,9.87-.032a32.819,32.819,0,0,0,5.456,1.79c8.144,2.192,8.729,2.425,10.9,4.359,1.15,1.024,3.246,2.691,4.658,3.7a24.212,24.212,0,0,1,4.8,5.137,52.84,52.84,0,0,0,3.3,4.453,18.494,18.494,0,0,1,2.336,4.83c1.6,4.639,2.681,5.708,6.265,6.183,2.734.362,6.977-1.182,6.988-2.547,0-.213.737-.8,1.631-1.312,5.643-3.209,8.178-10.419,8.178-23.258,0-12.535-.384-13.455-6.153-14.747-3.742-.837-353.427-1.31-359.953-.487M555.2,302.922c4.574,1.054,4.627,1.19,4.627,11.664,0,8.946-.552,12.962-2.041,14.839-.376.477-1.389,2.09-2.249,3.585A16.443,16.443,0,0,1,550.5,338.1l-3.473,2.37-2.732-.983c-2.531-.91-2.83-1.233-4.1-4.438-1.859-4.68-7.5-12.35-11.073-15.054-2.777-2.1-3.618-2.771-5.241-4.156a17.894,17.894,0,0,0-3.587-1.656c-1.588-.581-3.926-1.513-5.2-2.07-4.412-1.932-6.464-2.312-12.45-2.306-5.655.006-11.264.955-12.834,2.171a30.926,30.926,0,0,1-4.922,1.9c-4.306,1.387-7.39,3.563-13.37,9.431-3.534,3.467-3.612,3.587-5.184,7.851a25.877,25.877,0,0,1-1.721,4.042c-.187.158-1.225,1.424-2.308,2.815-3.453,4.434,3.476,4.113-88.167,4.095l-82.412-.018-2.515-1.286c-2.6-1.33-3.386-2.436-6.238-8.765-1.739-3.857-6.037-9.807-7.751-10.723a33.5,33.5,0,0,1-3.975-3.134,21.162,21.162,0,0,0-9.931-5.135,21.254,21.254,0,0,1-4.843-1.855c-4.475-2.379-17.262-2-22.178.658a45.385,45.385,0,0,1-5.483,2.064,16.906,16.906,0,0,0-6.638,3.644c-1.428,1.3-3.246,2.878-4.04,3.508-2.639,2.1-6.791,7.164-7.2,8.783a11.534,11.534,0,0,1-1.686,3.329,35.679,35.679,0,0,0-2.533,4.166c-2.192,4.284-3.019,4.78-7.979,4.78-4.7,0-8.072-1.107-8.525-2.8-.886-3.3-1.046-5.742-1.162-17.689-.16-16.75.254-18.347,4.914-18.917s358.745-.372,361.233.2M240.357,324.856c-4.052,1.436-12.409,6.47-12.409,7.477a12.581,12.581,0,0,1-2.452,2.986c-6.955,7.026-7.368,24.8-.68,29.184a9.782,9.782,0,0,1,2.854,3.037c1.17,2.265,2.677,4.02,3.449,4.02a8.394,8.394,0,0,1,2.614,1.623c5.129,4.15,21.489,4.6,24.806.693a18.12,18.12,0,0,1,2.265-1.566c2.076-1.288,8.125-8.056,8.125-9.092a19.076,19.076,0,0,1,1.708-3.78c2.411-4.479,2.572-13.157.311-16.738a14.976,14.976,0,0,1-1.442-2.618c0-1.481-2.748-5.7-5.019-7.7-3.652-3.224-4.065-3.532-4.741-3.532a1.526,1.526,0,0,1-1.034-.794c-1.507-2.592-13.945-4.759-18.355-3.2m256.6-.02a13.959,13.959,0,0,0-6.638,2.48c-1.607,1.089-3.569,2.308-4.355,2.712a7.166,7.166,0,0,0-3.656,3.754,19.289,19.289,0,0,1-2.557,3.435c-3.683,3.874-5.773,17.372-3.191,20.622a11.714,11.714,0,0,1,1.239,2.773,12.873,12.873,0,0,0,2.24,3.823,23.587,23.587,0,0,1,2.564,3.585,11.571,11.571,0,0,0,3.66,3.392,37.255,37.255,0,0,1,3.8,2.543c3.973,3.36,23.594,3.325,23.594-.043a12.238,12.238,0,0,1,3.23-2.066,15.943,15.943,0,0,0,4.323-3.153c.6-.8,1.288-1.727,1.53-2.052,5.395-7.256,8.231-18.849,5.476-22.381a6.129,6.129,0,0,1-.841-1.92c-2.655-10.888-17.248-19.285-30.419-17.5m-241.232,4.211c8.249,3.872,11.556,8.245,14.371,18.993,1.572,6-2.048,14.631-8.956,21.349-6.279,6.106-19.616,7.059-26.515,1.9a12.506,12.506,0,0,0-2.933-1.676,5.35,5.35,0,0,1-2.245-2.356,17.193,17.193,0,0,0-3-3.756c-9.787-8.907-4.678-26.547,9.878-34.1l5.771-3,4.619.288a20.529,20.529,0,0,1,9.015,2.354m255.045-.481c1.747.867,3.8,1.867,4.558,2.224,3.92,1.846,9.226,9.876,11.038,16.7,1.889,7.13-4.036,18.69-11.932,23.277-9.244,5.369-16.106,5.3-25.714-.25-7.43-4.294-14.181-20.969-10.4-25.672a8.173,8.173,0,0,0,.979-2.626,10.453,10.453,0,0,1,1.962-3.75c.853-1.008,2.253-2.787,3.114-3.953a11.775,11.775,0,0,1,3.155-2.949c9.758-5.074,9.712-5.06,15.444-4.794a16.862,16.862,0,0,1,7.792,1.788M289.443,358.129c-4.53,1.15-6.606,4.14-8.093,11.65-1.523,7.691-10.345,7.057,95.238,6.856l88.323-.169,1.418-1.324c3.859-3.593-.022-14.024-6.189-16.646-1.836-.78-167.668-1.138-170.7-.368M457.568,359.8c5.751,1.148,10.352,11.073,6.586,14.2-1.58,1.312-176.437,1.412-178.921.1-4.217-2.222-1.631-10.719,4.185-13.75,1.779-.928,163.617-1.461,168.149-.553" transform="translate(0.868 1.104)" fill="#707070" fill-rule="evenodd"/>
    <path id="path3" d="M99.2,104.243c-3.894.36-7.754,2.1-7.754,3.492a2.556,2.556,0,0,1-.729,1.259c-3.423,3.585-2.88,11.853.922,14.024a21.9,21.9,0,0,1,3.317,2.419c2.545,2.35,5.87,2.5,57.094,2.494,53.338,0,54.756-.075,58.67-3.057,3.506-2.671,4.245-4.229,4.245-8.954,0-7.471-2.218-10.654-8.087-11.607-4.115-.668-100.546-.729-107.677-.069m109.077,3.027c4.215,2.446,6.411,9.929,3.823,13.031-2.819,3.382-1.213,3.268-53.123,3.738-26.19.236-49.436.485-51.658.551-15.885.485-22.332-11.928-9.236-17.78,2.935-1.312,107.9-.875,110.194.459M327.82,121.359c-2.783.756-3.476,1.322-7.81,6.348-1.381,1.6-1.458,2.094-1.79,11.485a87.844,87.844,0,0,1-.906,11.544l-.559,1.731-14.965.29c-16.978.327-17.766.5-21.063,4.662l-1.983,2.5-.29,15.609c-.228,12.381-.463,15.873-1.135,16.886l-.845,1.274-24.552.167-24.55.167-2.4,1.729a13.315,13.315,0,0,0-4.2,5.5l-1.8,3.766.047,37.352c.028,20.545-.16,37.687-.416,38.095-1.617,2.58-2.783,2.736-20.431,2.736H181.34L177.694,285c-7.737,3.809-7.753,3.882-7.749,38.446,0,39.458-.293,38.912,21.353,39.149,12.208.134,12.346.165,13.872,3.327,1.4,2.905,1.4,3.766,0,5.594l-1.109,1.444-69.511.122c-51.713.093-69.936.3-71.171.8-4.64,1.9-5.48,2.438-6.325,4.071-2.47,4.778-1.473,10.7,2.173,12.9C61.136,392,62.166,392,316.548,392h255.4l2.933-1.328c4.983-2.257,6.179-9.708,2.214-13.8-2.44-2.517-8.828-3.75-19.907-3.845-9.293-.081-12.428-.934-13.488-3.671-.723-1.861,3.583-6.663,7.012-7.818a22.305,22.305,0,0,0,5.515-2.826,17.107,17.107,0,0,1,4.04-2.332,17.366,17.366,0,0,0,4.509-3c1.452-1.3,3.175-2.793,3.831-3.315,1.9-1.509,5.814-6.98,6.25-8.727a5.785,5.785,0,0,1,1.765-2.673c3.061-2.407,3.122-3.506,3.108-56.889-.014-53.6-.2-57.36-2.976-61.02a11.8,11.8,0,0,1-1.871-4.225c-.829-4.607-2.143-8.284-3.476-9.722a17.884,17.884,0,0,1-2.59-5.164c-.813-2.442-1.672-3.933-2.535-4.394a9.567,9.567,0,0,1-2.681-3.6,26.212,26.212,0,0,0-3.872-5.543,14.218,14.218,0,0,1-2.5-3.132c0-.853-7.12-7.693-9.523-9.151a33.123,33.123,0,0,1-4.237-3.146c-2.226-2.019-4.077-3.142-5.233-3.171-.445-.01-1.67-1.024-2.72-2.253a7.841,7.841,0,0,0-3.675-2.584,25.137,25.137,0,0,1-5.517-2.618,21.122,21.122,0,0,0-7.636-2.923,35.727,35.727,0,0,1-7.922-2.624c-6.728-3.266-13.08-3.756-48.508-3.756-35.664,0-37.317.169-40.837,4.142-4.152,4.69-3.87.026-3.87,64.273,0,42.885-.175,58.39-.668,59.312-1.316,2.456-2.113,2.862-4.828,2.456-4.7-.705-4.317,6.11-4.317-77.23,0-80.718.156-76.854-3.189-79.217a25.855,25.855,0,0,1-3.136-2.73c-3.071-3.226-4.245-3.323-38.983-3.252-24.717.051-32.381.238-34.615.847m69.016,3.52c3.264,1.491,6.789,4.516,7.528,6.456.341.9.534,29.413.508,74.557-.043,71.088-.014,73.178,1.073,75.715,2.848,6.644,10.089,7.114,13.212.859l1.282-2.566V221.5c0-38.658.2-58.636.587-59.1.321-.384,1.477-1.9,2.57-3.37,2.677-3.6,1.576-3.51,41.063-3.494l33.543.014,5.129,1.706a94.737,94.737,0,0,0,14.056,3.89,14.681,14.681,0,0,1,4.638,1.714c2.174,1.371,7.152,3.75,7.851,3.75a19.173,19.173,0,0,1,3.35,2.174c1.615,1.2,3.977,2.888,5.247,3.756,7.684,5.255,11.243,8.312,16.738,14.374,4.353,4.8,5.2,5.86,6.39,8.016a24.019,24.019,0,0,0,2.661,3.711,19.765,19.765,0,0,1,2.789,4.619c.67,1.588,1.842,4.184,2.6,5.771a46.228,46.228,0,0,1,3.465,10.1,9.569,9.569,0,0,0,.831,2.6c2.923,3.994,3.4,12.832,3.433,64.067.031,44.006-.108,46.444-2.913,51.171-6.177,10.408-10.012,14.443-16.659,17.528-1.747.81-3.565,1.684-4.042,1.94s-2.659,1.434-4.849,2.616c-5.489,2.96-6.579,3.843-7,5.669a3.834,3.834,0,0,1-.894,1.911c-.293.181-.532,1.94-.532,3.908,0,5.267-.2,5.2,16.295,5.483l13.7.236,2.568,1.631c3.472,2.2,4.946,6.841,2.787,8.779-3.272,2.937,15.058,2.754-260.594,2.594l-254.965-.148-1.45-1.562c-1.735-1.871-1.818-3.541-.347-6.974,1.907-4.445-3.65-4.128,77.74-4.451,57.443-.227,72.967-.441,73.659-1.016,1.757-1.459-1.172-10.331-4.416-13.378-1.276-1.2-1.816-1.255-11.908-1.217-21.408.079-20.778,1.166-20.977-36.178-.213-40.2-1.934-37.673,25.682-37.673,18.109,0,21.316-.425,23.061-3.057.713-1.073.89-7.432,1.133-40.809.2-27.7.485-39.97.943-40.98,2.135-4.7,4.648-5.08,31.154-4.733,27.876.362,25.694,2.023,25.824-19.639l.087-14.587,1.71-2.308c3.935-5.316,5.2-5.61,21.707-5.066,17.073.561,17.449.248,17.851-14.847.345-12.954.762-13.868,7.215-15.84,4.365-1.333,4.806-1.347,36.074-1.237,28.282.1,29.228.142,31.806,1.32m-55.906,17.8c-1.706,1.857-1.873,2.371-1.873,5.743,0,5.442,1.546,6.51,10.155,7.02,7.406.437,9.391,1.422,12.645,6.275,1.131,1.686,1.16,2.929,1.442,60.594.325,66.239.012,61.93,4.619,63.436,4.731,1.546,13.567,1.274,15.879-.49,4-3.049,3.744,1.853,3.744-72.327V146l-1.3-1.385c-3.957-4.219-2.505-3.979-24.034-3.979H342.8l-1.871,2.039m-228.995,1.964c-33.866.29-38.329.433-40.212,1.288-2.862,1.3-5.409,3.861-5.921,5.958a4.36,4.36,0,0,1-.973,2.068c-2.2,1.359.439,8.857,4.187,11.891,1.649,1.335,7.17,1.511,46.958,1.5,43.937-.01,45-.075,46.883-2.862,3.289-4.857,7.766-6.982,8.753-4.156.831,2.389,4.479,5.507,7.656,6.545,6.551,2.143,30.323.808,32.791-1.842,4.04-4.335,3.888-14.827-.248-17.128-.622-.345-2.18-1.278-3.463-2.072-3.648-2.257-25.889-2.241-29.458.022a36,36,0,0,1-3.866,2.137c-1.918.831-3.1,2.641-3.606,5.527l-.386,2.2-2.277-2.058a12.127,12.127,0,0,0-2.708-2.058c-.238,0-.945-.768-1.572-1.7-1.6-2.393-7.9-5.387-11.558-5.5-1.588-.047-20.029.059-40.98.238m270.69.646c1.523,1.523,1.345,134.818-.181,136.345-2.1,2.094-11.475,2.062-13.8-.045l-1.867-1.7-.154-58.227-.152-58.227-2.143-3.3c-3.583-5.509-7.382-7.022-18.924-7.53l-3.175-.14-.345-2.886c-.412-3.449-.173-4.264,1.436-4.93,2.34-.967,38.28-.39,39.3.632m-224.727,3.6c7.142,2.49,7.689,10.987.943,14.672-3.159,1.725-82.329,1.881-86.3.167-6.722-2.9-7.016-12.354-.453-14.633,3.274-1.136,82.6-1.328,85.812-.207m49.629-.083a8.076,8.076,0,0,1,4.5,11.692c-2.2,3.729-3.348,4.006-17.585,4.254l-12.726.221-2.832-1.507c-6.189-3.291-7.563-7.656-3.841-12.2,2.314-2.826,25.416-4.575,32.479-2.46m93.605,24.5c-4.867,1.237-4.674-1.229-4.436,56.96.215,51.829.181,51.16,2.635,53.614,1.985,1.985,4.254,2.21,22.117,2.174,21.361-.041,21.341-.037,23.149-3.421l1.385-2.588-.014-50.8c-.014-56.07.049-55.1-3.557-56-2.614-.648-38.7-.6-41.28.059m158.986-.347-20.636.29-1.44,1.676a6.445,6.445,0,0,0-1.495,2.6c-.782,13.6-.961,98.187-.217,102.617.213,1.265,1.066,2.44,2.72,3.752l2.409,1.907,55.146.171c61.506.189,59.353.28,62.123-2.572l1.968-2.027.144-16.543c.254-29.155,0-33.263-2.2-35.881-.711-.845-2.082-5.684-2.8-9.886a8.245,8.245,0,0,0-1.743-3.589,9.211,9.211,0,0,1-1.788-2.813,8.057,8.057,0,0,0-.831-1.895,7.25,7.25,0,0,1-.776-2.019,14.059,14.059,0,0,0-2.821-4.132c-1.361-1.479-2.736-3.037-3.059-3.463a60.164,60.164,0,0,0-6.59-7.68c-.774-.626-2.243-1.926-3.268-2.889-2.468-2.318-3.569-3.193-4.022-3.193a11.576,11.576,0,0,1-2.478-1.658c-3.61-2.848-12.269-6.98-17.687-8.444-2.858-.772-6.624-1.828-8.369-2.344-7.492-2.218-11.613-2.413-42.282-1.983M340.5,177.545a13.853,13.853,0,0,1,2.732,2.021c.234.333.429,23.086.433,50.563.01,51.739.028,51.335-2.271,51.343a7.575,7.575,0,0,0-2.547.867c-1.357.707-4.631.861-18.182.853l-16.527-.01-1.869-1.647-1.869-1.649-.191-49.856-.189-49.858,1.914-2.308,1.916-2.308,17.169.288c16.963.286,17.2.307,19.48,1.7m155.551-.6c1.747.3,5.513.916,8.369,1.371a29.988,29.988,0,0,1,9.236,2.866,34.854,34.854,0,0,0,5.909,2.438,8.036,8.036,0,0,1,3.461,2.084,6.809,6.809,0,0,0,2.041,1.688,12.7,12.7,0,0,1,2.732,1.444,10.5,10.5,0,0,0,3.017,1.456c.4.008,1.146.849,1.651,1.871a7.3,7.3,0,0,0,3.319,3.017c1.649.794,2.4,1.525,2.4,2.328a4.476,4.476,0,0,0,3.067,3.947c.953.238,1.56,1,2.023,2.551a5.311,5.311,0,0,0,2.886,3.459c1.972,1.109,2.3,1.625,2.951,4.585,1.1,5.058,1.566,5.933,3.132,5.933,1.67,0,2.1,1.591,2.108,7.721a66.2,66.2,0,0,0,.912,9.307c1.115,6.358,1.089,7.593-.195,9.484-.989,1.454-1.016,1.324-1.387-6.6-.725-15.42-1.379-18.152-4.357-18.172-1.016-.008-1.349-.445-1.653-2.174a11.621,11.621,0,0,0-1.133-3.37,8.217,8.217,0,0,1-.945-2.885c-.154-1.335-.512-1.718-1.747-1.859-1.217-.14-1.7-.64-2.24-2.308-.9-2.783-1.564-3.569-3.059-3.591a3.744,3.744,0,0,1-3.472-2.669c-.234-.737-1.67-1.861-3.547-2.781-1.735-.849-3.153-1.781-3.153-2.07,0-.752-3.827-3.019-7.215-4.276a28.555,28.555,0,0,1-4.042-1.81c-4.345-2.787-13.719-3.794-38.093-4.091-27.687-.337-31.55.211-34.431,4.871-1.284,2.078-2.031,57.378-.827,61.175,1.454,4.575,3.614,4.761,55.524,4.767,54.063,0,51.8.276,53.683-6.429,2.316-8.253,4.5.364,4.528,17.9l.02,11.784L556,281.038c-2.671,2-5.633,2.111-55.054,2.137-48.991.026-56.828-.248-59.633-2.076l-1.351-.88.254-13.659c.158-8.452.548-14.9,1.02-16.9.634-2.681.638-4.518.014-10.677-.54-5.338-.638-11.6-.351-22.159.575-21.034.577-20.859-.278-29.547l-.778-7.9,1.434-1.434a6.59,6.59,0,0,1,3.719-1.7c3.989-.469,47.746.134,51.057.7m-324.787,9.695c-9.6,2.832-12.21,13.51-4.538,18.588l2.267,1.5h20.532c15.9,0,20.831-.171,21.861-.758a8.6,8.6,0,0,0,3.575-5.9,5.518,5.518,0,0,1,.859-2.683c.758-1.083.758-1.263,0-1.554a1.6,1.6,0,0,1-.857-1.43c0-3.8-2.368-6.567-6.726-7.863-4.282-1.272-32.58-1.2-36.972.095m37.646,3.149c4.6,2.523,5.385,9.492,1.511,13.37-1.235,1.235-1.631,1.264-19.7,1.442-21.733.213-21.552.25-24.219-5.034l-1.639-3.248L166,194.88c2.7-3.409,4.723-5.208,6.437-5.72,3.4-1.012,34.457-.481,36.474.624m298.108.455c2.381.693,5.135,1.469,6.122,1.723,9.186,2.362,21.554,11.136,27.8,19.722,1.292,1.777,2.748,3.63,3.234,4.115a6.443,6.443,0,0,1,1.3,2.543,21.042,21.042,0,0,0,3.662,7.561c4.723,5.062,3.354,25.16-1.865,27.362-3.37,1.422-94.031,1.135-97.186-.309-4.96-2.269-4.877-1.7-4.692-31.912l.16-26.443,1.444-1.643c3.721-4.235,4.774-4.373,32.034-4.162,22.332.169,23.908.252,27.993,1.442m-40.3,15.2c-4.042.971-4.337,1.851-4.449,13.321-.1,10.733.5,16.009,1.968,17.309,3.1,2.734,64.744,2.962,68.04.252,1.042-.857.884-4.479-.29-6.634-7.315-13.431-18.43-21.753-32.178-24.1-6.043-1.03-28.989-1.135-33.09-.152m34.971,3.514a51.976,51.976,0,0,0,6.478,2.716,28.966,28.966,0,0,1,5.911,2.791c1.357.914,3.573,2.236,4.922,2.937s2.452,1.637,2.452,2.082,1.048,1.824,2.33,3.069c3.555,3.451,5.218,6.921,4.327,9.039-1.393,3.313-.24,3.2-29.836,3.012l-27.325-.171-3.029-1.723-3.031-1.723v-9.964c0-5.482.2-9.966.433-9.966s.949-.774,1.582-1.716c1.558-2.326,1.05-2.263,17.321-2.106l14.43.14,3.035,1.586m-257.429,4.82a5.558,5.558,0,0,0-3.031,2.131l-1.442,1.893v31.438c0,34.069.106,35.259,3.3,36.551,1.205.488,32.674.414,33.963-.081,3.012-1.156,3.142-2.673,3.142-36.537v-31.5l-1.773-2.153-1.775-2.151-15.4.087c-8.469.047-16.112.2-16.984.327m33.265,3.894c1.4,2.143,1.412,60.013.01,63.194l-.922,2.09-14.518-.037c-16.23-.041-19.153-.374-19.657-2.238-.538-1.981-.506-61.936.032-62.895.66-1.176,2.714-1.326,19.616-1.44l14.508-.1.932,1.422m-82.684,86.156c-4.66.569-5.074,2.167-4.914,18.917.116,11.948.276,14.39,1.162,17.689.453,1.69,3.829,2.8,8.525,2.8,4.96,0,5.787-.5,7.979-4.78a35.681,35.681,0,0,1,2.533-4.166,11.535,11.535,0,0,0,1.686-3.329c.4-1.619,4.556-6.687,7.2-8.783.794-.63,2.612-2.208,4.04-3.508a16.907,16.907,0,0,1,6.638-3.644,45.385,45.385,0,0,0,5.483-2.064c4.916-2.657,17.7-3.037,22.178-.658a21.254,21.254,0,0,0,4.843,1.855,21.161,21.161,0,0,1,9.931,5.135,33.494,33.494,0,0,0,3.975,3.134c1.714.916,6.011,6.866,7.751,10.723,2.852,6.328,3.64,7.435,6.238,8.765l2.515,1.286,82.412.018c91.644.018,84.714.339,88.167-4.095,1.083-1.391,2.121-2.657,2.308-2.815a25.878,25.878,0,0,0,1.721-4.042c1.572-4.264,1.651-4.384,5.184-7.851,5.98-5.868,9.064-8.044,13.37-9.431a30.93,30.93,0,0,0,4.922-1.9c1.57-1.215,7.179-2.165,12.834-2.171,5.986-.006,8.038.374,12.45,2.306,1.27.557,3.608,1.489,5.2,2.07a17.893,17.893,0,0,1,3.587,1.656c1.623,1.385,2.464,2.052,5.241,4.156,3.573,2.7,9.214,10.374,11.073,15.054,1.272,3.2,1.572,3.528,4.1,4.438l2.732.983,3.473-2.37a16.443,16.443,0,0,0,5.038-5.092c.861-1.495,1.873-3.108,2.249-3.585,1.489-1.877,2.041-5.893,2.041-14.839,0-10.475-.053-10.611-4.627-11.664-2.488-.573-356.579-.77-361.233-.2m112.475,2.383c34.443-.079,74.183-.118,88.309-.085s55.426.089,91.774.128c42.381.045,66.864.28,68.252.654l2.165.581-.049,5.893c-.065,7.8-1.487,16.858-2.783,17.713a5.068,5.068,0,0,0-.991,1.928,5.952,5.952,0,0,1-2.828,2.885,11.122,11.122,0,0,0-2.468,1.635c-.461,1-6.464-3.665-6.464-5.019,0-1.19-2.724-5.925-4.1-7.136a5.621,5.621,0,0,1-1.668-1.989c0-.782-2.836-3.266-4.412-3.866a4.192,4.192,0,0,1-2-1.9c-.565-1.241-4.692-3.835-6.1-3.835a5.121,5.121,0,0,1-1.958-1.5c-3.075-3.289-3.711-3.407-18.426-3.407-14.7,0-16.013.234-18.96,3.37a7.116,7.116,0,0,1-3.315,1.8,9.753,9.753,0,0,0-4.168,2.509,21.587,21.587,0,0,1-3.813,2.992c-2.59,1.363-6.309,5.942-7.42,9.135a15.041,15.041,0,0,1-1.731,3.691,12.535,12.535,0,0,0-1.511,2.3c-3.423,6.638,2.153,6.236-86.349,6.236-79.444,0-82.3-.079-84.738-2.35a11.915,11.915,0,0,0-2.775-1.812c-1.245-.552-1.781-1.408-2.513-4.024-1.18-4.2-2.172-6.114-3.748-7.219a5.772,5.772,0,0,1-1.783-2.283,5.735,5.735,0,0,0-2.381-2.393,27.48,27.48,0,0,1-4.631-3.709,13.448,13.448,0,0,0-5.062-3.335,6.311,6.311,0,0,1-2.637-1.2,14.53,14.53,0,0,0-2.767-2.149l-2.4-1.564H247.575c-14,0-16.61.5-18.333,3.488-.242.419-1.867,1.178-3.614,1.686-2.478.719-3.457,1.361-4.465,2.917-.711,1.1-1.621,2-2.021,2-1.873.018-8.8,7.967-8.8,10.1a4.186,4.186,0,0,1-1.507,2.174c-1.337,1.15-4.264,6.484-4.264,7.772,0,2.316-8.208,1.337-11.495-1.371-.634-.524-.492-30.3.146-30.47.37-.1,1.71-.463,2.98-.8,1.55-.416,9.9-.522,25.4-.325,12.7.161,51.268.228,85.711.15m-70.127,24.3c-14.556,7.55-19.665,25.19-9.878,34.1a17.19,17.19,0,0,1,3,3.756,5.351,5.351,0,0,0,2.245,2.356,12.506,12.506,0,0,1,2.933,1.676c6.9,5.162,20.236,4.209,26.515-1.9,5.418-5.271,6.941-7.963,8.97-15.865.752-2.939.532-4.315-1.895-11.822-2.505-7.745-12.072-14.422-21.5-15.009l-4.619-.288-5.771,3m260.539-2.344c-1.326.433-3.5,1.487-9.324,4.514a11.774,11.774,0,0,0-3.155,2.949c-.861,1.166-2.261,2.945-3.114,3.953a10.453,10.453,0,0,0-1.962,3.75,8.173,8.173,0,0,1-.979,2.625c-2.393,2.972-.154,12.761,4.552,19.9,5.031,7.628,18.353,12.281,25.907,9.045,9.6-4.113,15.367-10.756,17.559-20.24,1.562-6.758-4.759-19.82-11.014-22.765-.76-.357-2.811-1.357-4.558-2.224-3.415-1.692-10.88-2.5-13.912-1.509M256.23,333.078c2.22.821,4.1,1.491,4.17,1.491a8.692,8.692,0,0,1,1,1.676,8.883,8.883,0,0,0,2.775,2.856c4.8,2.964,4.977,23.118.23,25.389a7.983,7.983,0,0,0-2.793,2.74c-2.151,3.644-17.593,7.014-20.2,4.408a2.512,2.512,0,0,0-1.489-.705c-1.895,0-5.81-2.448-7.934-4.96-1.268-1.5-3.264-3.752-4.432-5-4.451-4.747-3.713-14.853,1.475-20.2a49.162,49.162,0,0,0,4.164-4.761c.52-.8,1.284-1.446,1.7-1.446a1.058,1.058,0,0,0,.943-.475c1.176-2.9,13.612-3.522,20.392-1.016m253.834-.546a11.583,11.583,0,0,0,3.524.882c1.284,0,4.4,2.823,4.4,3.989,0,.238.642.778,1.426,1.2,1.42.76,2.647,3.794,4.262,10.544,1,4.2-1.765,13.837-4.31,15a7.779,7.779,0,0,0-2.5,2.811c-.7,1.237-1.588,2.249-1.985,2.249a17.945,17.945,0,0,0-3.859,1.556c-3.447,1.71-11.712,2.259-13.364.888a8.887,8.887,0,0,0-3.222-1.05c-1.333-.213-2.425-.615-2.425-.892s-.384-.5-.855-.5c-3.23,0-9.535-11.485-9.535-17.37,0-14.028,15.647-24.644,28.442-19.3m-219.777,28.92c-5.816,3.031-8.4,11.528-4.185,13.75,2.484,1.308,177.341,1.207,178.921-.1,3.766-3.126-.835-13.051-6.586-14.2-4.532-.908-166.37-.374-168.149.553m167.054,2.119a7.213,7.213,0,0,1,2.724,1.588c.362.477,1.2,1.483,1.857,2.234,1.318,1.507,1.087,2.446-1.085,4.412-1.251,1.133-2.364,1.15-83.6,1.331-89.826.2-89.81.2-90.245-2.761-.307-2.094.423-4.059,1.509-4.059a5.521,5.521,0,0,0,2.47-1.7l1.625-1.7,81.342-.03c63.6-.022,81.792.13,83.4.693" transform="translate(0 0)" fill="#707070" fill-rule="evenodd"/>
    <path id="path4" d="M99.744,106.322c-6.26,1.225-9.224,8.948-4.564,11.889l2.334,1.473,52.9-.032c64.612-.039,60.529.546,58.717-8.436-.138-.683-1.656-2.125-3.5-3.319l-3.25-2.109-50.295.065c-27.662.037-51.217.248-52.345.469m104.291,2.635a7.6,7.6,0,0,0,2.594.867c1.631.006,2.306,1.5,2.121,4.719l-.175,3.077-2.886.382c-7.014.93-108.48.528-109.853-.435-2.783-1.948-.7-7.406,3.313-8.688,3.5-1.117,102.737-1.042,104.886.079m124.017,16.254c-5.225,1.2-5.484,1.883-5.484,14.477,0,15.678-.085,15.737-22.74,15.737H285.792l-2.245,3.319-2.243,3.319-.3,14.719c-.455,22.318,1.676,20.778-28.733,20.778-24.741,0-27.431.27-28.611,2.88-.459,1.014-.741,13.457-.943,41.563-.323,45.018-.077,42.641-4.536,43.85-1.156.313-10.282.67-20.281.792-20.528.248-22.385.567-23.673,4.057a30.075,30.075,0,0,1-1.194,2.807c-1.046,1.979-.664,55.688.408,57.321,3.027,4.623,7.743,6,20.2,5.889,10.565-.091,11.166.1,13.917,4.343a20.545,20.545,0,0,0,2,2.75c1.276.947,2.214,8.062,1.255,9.525-1.72,2.626-.227,2.572-74.569,2.572-77.492,0-73.509-.16-77.023,3.1a4.81,4.81,0,0,0-1.582,2.381c0,1.046.423.766,3.691-2.448l1.909-1.877h71.112c85.114,0,78.5.715,77.811-8.4-.786-10.4-4.814-12.947-20.541-12.982l-10.752-.024-2-1.708a7.774,7.774,0,0,0-2.7-1.708c-2.488,0-2.515-.325-2.515-30.017,0-30.856-.055-30.348,3.541-32.728l2.433-1.611,17.358-.136c19.549-.152,22.249-.368,24.057-1.936,2.592-2.249,2.824-6.025,2.756-44.969-.033-19.84.128-37.055.36-38.254.7-3.608.362-3.561,27.441-3.88,27.756-.327,26.287-.073,29.446-5.056l1.7-2.673v-29.2l1.586-2.295c1.853-2.677.9-2.537,17.748-2.6,20.029-.071,21.642-1.268,21.652-16.094.008-13.484-.041-13.3,3.983-14.136,4.377-.9,61.029-.949,66.176-.053,5.958,1.038,5.45-6.169,5.6,79.654.144,81.118-.085,75.632,3.27,78.987,3.443,3.443,12.98,3.189,17.355-.463l2.017-1.684.288-60.811c.213-44.7.467-61.122.961-61.979,1.8-3.134,4.054-3.331,37.341-3.258,30.076.065,33.009.217,40.774,2.117,2.064.5,5.7,1.213,8.079,1.574s4.65.975,5.04,1.365a13.808,13.808,0,0,0,3.463,1.719,17.612,17.612,0,0,1,3.3,1.495,3.392,3.392,0,0,0,1.855.483,6.8,6.8,0,0,1,3.281,1.733A26.281,26.281,0,0,0,531.8,170.8a19.4,19.4,0,0,1,5.328,3.75c1.111,1.229,2.492,2.236,3.069,2.236a3.664,3.664,0,0,1,2.192,1.607,9.184,9.184,0,0,0,2.781,2.434,8.542,8.542,0,0,1,4.185,4.182c.451.875,1,1.588,1.215,1.588.76,0,3.319,2.716,3.7,3.935a6.358,6.358,0,0,0,1.9,2.417,10.954,10.954,0,0,1,2.545,3.5,13.715,13.715,0,0,0,1.97,3.248c1.4,1.4,3.719,5.233,3.719,6.149,0,1.144,2.736,9.374,3.8,11.43,3.086,5.972,3.6,15.346,3.658,66.73l.047,42.867-1.412,4.042a29.929,29.929,0,0,1-2.6,5.7,6.912,6.912,0,0,0-1.186,2.228,2.311,2.311,0,0,1-.867,1.282,5.619,5.619,0,0,0-1.324,2.476,3.717,3.717,0,0,1-1.3,2.151c-4.117,1.938-5.426,2.691-6.648,3.823a15.615,15.615,0,0,1-7.172,3.413,12.754,12.754,0,0,0-6.277,3.575,4.859,4.859,0,0,1-2.143,1.3c-1.312,0-3.1,2.931-4.351,7.138a22.433,22.433,0,0,1-2.31,5.485c-1.361,1.729-1.379,3.027-.065,4.542,2.342,2.7,4.514,3.035,19.681,3.045,15.188.01,15.357.035,15.964,2.456a4.036,4.036,0,0,0,.912,1.9c1.292.8.471,2.513-1.363,2.84-4.578.815-510.461.028-511.454-.8-.841-.7-.922-.683-.618.106.819,2.139.9,2.139,258.829,2.139H568.96l2.052-1.211c2.076-1.225,2.494-1.913,1.521-2.513a4.262,4.262,0,0,1-.916-2.074c-.756-3.445-1.867-3.7-17.859-4.014-16.892-.337-19.962-1.219-17.945-5.16A17.3,17.3,0,0,0,537,366.7c.941-5.661,2.659-8.154,7.213-10.475a17.328,17.328,0,0,0,2.886-1.7,37.463,37.463,0,0,1,5.194-2.3,29.791,29.791,0,0,0,7.073-3.837,9.3,9.3,0,0,1,2.765-1.916c.9,0,2.6-1.792,3.652-3.864a18.152,18.152,0,0,1,2.381-3.4,5.966,5.966,0,0,0,1.465-2.194,13.337,13.337,0,0,1,1.135-2.947,12.771,12.771,0,0,0,1.135-3.051,5.674,5.674,0,0,1,.916-2.109c.8-1.215.875-6.718.709-49.184l-.187-47.817-2.212-8.641a98.1,98.1,0,0,0-4.172-12.883,34.083,34.083,0,0,1-1.962-4.812c0-1.209-2.468-5.9-3.717-7.067a7.385,7.385,0,0,1-1.749-2.6c-.378-1.207-1.853-3.171-4.2-5.592a2.55,2.55,0,0,1-.731-1.217c-.03-1.45-10.709-11.436-14.778-13.821a7.339,7.339,0,0,1-2.828-2.566c-.2-.613-.68-1.115-1.073-1.115a20.231,20.231,0,0,1-4.436-2.486c-4.028-2.7-7.274-4.44-8.276-4.442a20.411,20.411,0,0,1-3.985-1.769,41.37,41.37,0,0,0-9.657-3.067,44.412,44.412,0,0,1-6.7-1.694,1.958,1.958,0,0,0-1.2-.4,14.041,14.041,0,0,1-3.388-1.178c-2.509-1.144-3.6-1.18-35.954-1.192-37.051-.016-36.58-.061-39.227,3.8l-1.243,1.814-.045,58.55c-.053,66.277.156,63.09-4.282,65.6-5.639,3.183-13.051,1.465-15.379-3.563l-1.345-2.907L400.6,212.6c-.128-43.48.016-68.331.42-72.725.721-7.881-.276-11.629-3.632-13.661-1.727-1.046-65.156-1.964-69.335-1m11.469,10.4c-3.754.776-6.563,5.519-6.563,11.081v4.02l2.637,2.32a8.61,8.61,0,0,0,5.917,2.7,48.4,48.4,0,0,1,5.3.9,18.837,18.837,0,0,0,3.752.538c1.263.01,2.551.774,4.761,2.832l3.031,2.819v58.1c0,62.5-.022,62.034,2.917,64.693,3.435,3.108,21.973,2.754,25.745-.492,2.588-2.226,2.561-1.458,2.563-73.541V142.12l-1.211-2.155c-2.525-4.495-2.232-4.444-26.261-4.532-11.747-.043-21.91.035-22.586.175m42.668,1.357a10.171,10.171,0,0,1,5.933,5.665c1.355,3.244,1.217,133.8-.146,137.8-1.826,5.361-3.407,6.019-14.441,6.017-7.441,0-8.781-.146-10.382-1.123-3.539-2.159-3.331,1.5-3.644-63.9l-.29-60.114-3.167-2.943-3.169-2.945h-4.162c-9.807,0-13.87-2.6-14.148-9.068-.126-2.893,2.657-8.3,4.715-9.171,3.522-1.487,38.812-1.666,42.9-.221M72.533,149.037c-2.787.553-3.78,1.438-4.491,4-1.05,3.784-.24,5,4.394,6.577,4.53,1.542,77.874,1.562,82.8.022,5.442-1.7,6.671-7.034,2.287-9.913-1.528-1-80.192-1.635-84.986-.681m105.451.518c-5.921,2.07-6.358,7.522-.747,9.332a13.592,13.592,0,0,1,3.11,1.3c.6.615,23.187.54,23.569-.079a4.537,4.537,0,0,1,2.216-.869c5.661-1.062,5.084-8.863-.746-10.114-4.969-1.066-23.978-.768-27.4.429m-21.514,1.54c4.243,2.277,3.677,5.747-1.142,7.018-3.878,1.024-78.876,1.042-82.743.022-5.531-1.461-5.332-6.137.341-8,3.378-1.111,81.358-.215,83.544.959m50.447.039c1.777,1.328,2.738,3.967,1.97,5.4-1.761,3.289-33.606,3.025-34.878-.29-.664-1.731.75-3.64,3.8-5.131,4.247-2.074,26.324-2.06,29.105.018m88.278,18.152a8.512,8.512,0,0,0-2.308,2.123c-.906,1.526-1.213,105.01-.325,109.122,1.426,6.59,4.312,7.252,30.4,6.98,22.062-.232,21,.032,24.237-6l1.828-3.4-.1-51.1-.1-51.1-1.339-2.72c-2.562-5.2-1.875-5.078-27.876-5.03-21.184.039-22.846.116-24.422,1.123m140.493-.26c-3.987,1.656-3.725-2.151-3.9,56.7-.165,55.709-.134,56.525,2.36,59.217,2.3,2.476,4.7,2.576,62.194,2.616,57.87.039,60.955-.085,63.409-2.539l1.487-1.485.38-22.354c.485-28.471.081-35.034-2.366-38.359a8.934,8.934,0,0,1-1.767-3.918c0-2.517-1.761-7.01-4.12-10.516a14.948,14.948,0,0,1-2.23-4.26,6.259,6.259,0,0,0-1.952-2.791,17.353,17.353,0,0,1-2.96-3.792,20.231,20.231,0,0,0-1.654-2.724c-3.985-4.768-6.787-7.642-8.584-8.8-1.19-.766-2.165-1.6-2.165-1.855a.508.508,0,0,0-.542-.461,7.428,7.428,0,0,1-2.346-1.647,23.016,23.016,0,0,0-4.394-2.943,20.871,20.871,0,0,1-3.959-2.563c-1.631-1.511-6.216-3.006-10.949-3.569-2.413-.286-3.866-.811-4.9-1.769a7.77,7.77,0,0,0-3.5-1.674c-1.115-.171-2.964-.561-4.113-.867-3.675-.975-61.01-.658-63.434.351m-93.674.514c5.279,1.326,5.383,2.354,5.332,52.162-.059,58.949-.225,61.232-4.623,63.732-1.942,1.1-40.917,1.582-43.1.528-.552-.266-1.781-.861-2.734-1.32-3.866-1.865-3.693.806-3.725-57.234-.031-60.813-.421-57.1,6.088-58.032,3.264-.467,40.821-.325,42.765.164m155.687.077a20.571,20.571,0,0,1,6.061,2,14.933,14.933,0,0,0,4.544,1.7c2.568,0,9.086,1.909,10.8,3.157a36.981,36.981,0,0,0,4.617,2.661,23.332,23.332,0,0,1,4.617,2.982,17.7,17.7,0,0,0,3.549,2.452c2.49,1.188,11.355,10.094,13.228,13.293a10.674,10.674,0,0,0,2.614,3.189A8.441,8.441,0,0,1,550,204.359c1.345,3.092,2.9,6.049,3.415,6.476a11.6,11.6,0,0,1,2.574,5.2c.851,4.432,1.712,7.252,2.49,8.16,2.369,2.767,2.592,5.519,2.513,31.079-.087,28.635-.106,28.759-4.542,30.271-4.018,1.369-115.465,1.357-118.744-.012-5.789-2.419-5.55.114-5.45-58.069.093-53.3.144-54.283,2.947-56.822,1.656-1.5,50.494-2.3,62.5-1.028M170.956,189.975c-2.919,1.509-4.853,4.085-4.15,5.525,2.925,5.982,1.617,5.686,23.961,5.42,17.542-.209,17.227-.132,18.655-4.457.884-2.681-.5-5.826-2.559-5.832a7.781,7.781,0,0,1-2.828-.867c-2.535-1.322-30.457-1.144-33.078.211m279.459.7c-5.283,2.657-4.906.429-4.906,29.1,0,28.006-.256,26.112,3.884,28.749l2.44,1.554h45.576c27.228,0,45.708-.215,45.9-.534a3.923,3.923,0,0,1,1.96-.89c4.526-.995,4.9-19.381.479-23.565-1.243-1.176-3.276-6.187-3.276-8.072a9.113,9.113,0,0,0-2.165-3.157c-1.192-1.29-4.087-4.449-6.435-7.018s-4.51-4.672-4.806-4.672a6.993,6.993,0,0,1-2.267-1.731,6.823,6.823,0,0,0-2.306-1.731,32.6,32.6,0,0,1-6.263-4c-.327-.374-5.472-2.039-8.972-2.9-10.146-2.505-10.427-2.529-33.163-2.7l-22.222-.171-3.463,1.745m-245.412.9c3.778,1.192,4.536,2.06,3.756,4.3-.323.926-.861,1.684-1.2,1.684a7.8,7.8,0,0,0-2.5,1.444l-1.893,1.442h-15.03c-16.825,0-17.737-.193-19.673-4.172-1.138-2.34-.431-3.376,3.195-4.684,3.563-1.282,29.287-1.292,33.344-.012M502.938,192c9.494,1.294,11.257,1.8,15.028,4.317a23.986,23.986,0,0,0,5.048,2.706,3.839,3.839,0,0,1,2.2,1.528,11.8,11.8,0,0,0,3.24,2.8,13.7,13.7,0,0,1,3.709,3.437,7.051,7.051,0,0,0,2.478,2.4,4.948,4.948,0,0,1,2.1,2.306,10.934,10.934,0,0,0,2.872,3.4c1.863,1.473,2.241,2.169,2.59,4.751.5,3.734,1.06,4.889,3.35,6.965l1.8,1.631.226,7.733c.294,10.039.223,10.285-3.329,11.446-4.158,1.361-90.16,1.428-92.758.073a7.96,7.96,0,0,0-2.519-.884c-2.61-.067-2.6.067-2.6-27.037V193.961l2.886-1.162c1.588-.64,3.665-1.377,4.617-1.637,2.933-.8,41.9-.138,49.06.837m-40.969,9.312c-4.182,2.273-4.91,4.969-4.91,18.18,0,20.7-2.48,19.561,42.763,19.6,32.21.028,32.338.016,34.484-3.13,1.985-2.909.506-10.75-2.572-13.644a28.026,28.026,0,0,1-3.421-4.556,20.68,20.68,0,0,0-3.831-4.619c-1.034-.794-2.36-1.913-2.945-2.488-1.609-1.582-6.3-4.438-7.284-4.438a6.165,6.165,0,0,1-2.647-1.723c-2.919-2.828-8.357-3.534-29.734-3.849-16.005-.236-18.389-.158-19.9.666m36.064.577c8.722,1.125,9.041,1.213,12.409,3.431a24.432,24.432,0,0,0,4.3,2.338,10.7,10.7,0,0,1,3.173,2.094,7.127,7.127,0,0,0,2.344,1.662c1.46.022,8.5,8.284,12.239,14.376,2.915,4.743,1.158,10.748-3.482,11.908-3.071.766-64.722-.014-66.188-.837-3.886-2.186-4.895-6.911-4.507-21.1.292-10.672.644-11.737,4.548-13.728,2.639-1.345,25.139-1.438,35.168-.144M238.365,209.7a8.676,8.676,0,0,0-2.129,3.758,4.87,4.87,0,0,1-.888,2.32c-.7.431-.668,61.735.032,63.025a25.671,25.671,0,0,1,1.3,3.549c1.473,4.962,1.454,4.958,21.747,4.958,19.984,0,19.458.1,22.444-4.489l1.586-2.438V247.61c0-22.21-.195-32.911-.6-33.189a13.393,13.393,0,0,1-1.97-2.432c-2.838-4.205-1.8-4.014-21.767-4.028l-17.993-.012-1.755,1.753m38.761.77c4.05,3.752,3.941,2.671,3.754,37.748-.227,42.328,2.174,38.225-22.379,38.225-24.349,0-21.934,4.306-21.934-39.092,0-34.175-.045-33.588,2.846-36.478,1.668-1.668,1.786-1.68,19.436-1.727l16.8-.045,1.477,1.369m-82.116,86.8c-4.483.368-6.171,1.446-8.82,5.627l-1.463,2.308.152,15.007c.228,22.533.63,23.328,12.235,24.282,5.7.469,8.475-.5,10.62-3.709a20.991,20.991,0,0,1,1.765-2.391c.733-.591,2.145-3.862,3.167-7.333.871-2.953,1.389-3.76,2.951-4.6a7.488,7.488,0,0,0,2.765-2.854,4.906,4.906,0,0,1,2.606-2.44,6.575,6.575,0,0,0,2.945-2.657,5.533,5.533,0,0,1,2.472-2.37c10.76-2.7,20.258-4.247,22.574-3.675.951.236,3.786.973,6.3,1.637a36.382,36.382,0,0,0,6.569,1.207c1.517,0,2.442.463,3.8,1.9a34.4,34.4,0,0,0,4.4,3.711c3.841,2.677,5.485,4.4,6.843,7.189a23.23,23.23,0,0,0,2.671,4.174,5.806,5.806,0,0,1,1.452,2.868c0,4.434,2.724,7.284,8.359,8.751,5.111,1.331,163.238,1.28,168.391-.053,6.3-1.633,7.634-3.065,10-10.721a15.539,15.539,0,0,1,3.805-6.25,17.634,17.634,0,0,0,2.8-3.484c0-.268.973-1.081,2.165-1.808a31.065,31.065,0,0,0,4.184-3.218c2.125-1.993,3.309-2.474,8.948-3.64,1.9-.394,5.466-1.178,7.914-1.741,3.376-.778,4.981-.89,6.638-.463,1.993.514,4.069.967,12.574,2.752a8.584,8.584,0,0,1,4.065,1.909,31.228,31.228,0,0,0,4.042,3.305c3.628,2.541,6.017,5.074,7.453,7.9a13.215,13.215,0,0,0,2.675,3.51,5.784,5.784,0,0,1,1.928,3.75c1.19,7.656,10.09,10.27,15.02,4.41a5.055,5.055,0,0,1,1.98-1.656c.646,0,3.52-3.553,3.545-4.384a6.754,6.754,0,0,1,1.674-2.149c2.048-2.009,2.2-2.86,2.675-15.4.546-14.337-.39-16.714-7.378-18.706-2.943-.837-349.476-1.306-359.46-.485m359.783,2.482c5.769,1.292,6.153,2.212,6.153,14.747,0,12.838-2.535,20.049-8.178,23.258-.894.51-1.629,1.1-1.631,1.312-.012,1.365-4.254,2.909-6.988,2.547-3.585-.475-4.666-1.544-6.265-6.183a18.493,18.493,0,0,0-2.336-4.83,52.835,52.835,0,0,1-3.3-4.453,24.213,24.213,0,0,0-4.8-5.137c-1.412-1.012-3.508-2.679-4.658-3.7-2.167-1.934-2.752-2.167-10.9-4.359a32.819,32.819,0,0,1-5.456-1.79c-.735-.632-9.177-.6-9.87.032-.664.609-8.166,2.96-9.446,2.96-1.867,0-6.665,2.218-7.81,3.61a18.172,18.172,0,0,1-3.638,2.962,7.277,7.277,0,0,0-2.452,2.011,13.24,13.24,0,0,1-2.21,3.023,17.983,17.983,0,0,0-4.453,8.156c-.559,2.563-3.484,6.514-5.99,8.087l-2.066,1.3-83.381.16c-76.852.146-83.623.083-86.473-.813-3.6-1.133-5.249-2.994-6.754-7.625-1.67-5.133-6.423-11.717-10.272-14.227a24.214,24.214,0,0,1-4.339-3.451c-1.422-1.808-3.153-2.612-6.943-3.22a41.586,41.586,0,0,1-7-1.983c-3.88-1.521-12.822-2.111-13.573-.9-.376.607-2.048,1.154-9.659,3.151-4.345,1.14-5.377,1.666-7.585,3.857-1.4,1.4-3.167,3.114-3.918,3.817s-1.621,1.546-1.94,1.869-1.42,1.391-2.452,2.371a6.036,6.036,0,0,0-1.879,2.748c-.006,2.413-6.106,12.167-8.365,13.376-2.409,1.288-11.631,1.1-13.975-.282-3.211-1.9-3.325-2.559-3.52-20.459-.223-20.539.093-21.382,8.377-22.428,6.525-.823,356.21-.351,359.953.487m-314.474,22.84a16.848,16.848,0,0,0-2.308.78,18.256,18.256,0,0,1-2.791.859,7.177,7.177,0,0,0-2.886,1.55,28.22,28.22,0,0,1-3.459,2.61,8.978,8.978,0,0,0-3.019,3.358,4.406,4.406,0,0,1-1.948,2.3c-1.67.53-3.25,3.5-4.39,8.253a16.335,16.335,0,0,1-1.5,4.509c-.908.561-.51,4.2.949,8.663a34.492,34.492,0,0,1,1.442,5.411c0,1.085,1.586,2.724,3.61,3.734a8.533,8.533,0,0,1,2.588,3.37c.713,1.5,1.509,2.724,1.773,2.724a11.3,11.3,0,0,1,2.748,2.021c3.386,3.017,13.528,5.123,18.137,3.768a16.623,16.623,0,0,1,3.752-.607c1.694-.012,6.6-1.916,7.2-2.8a23.082,23.082,0,0,1,2.978-2.259,13.842,13.842,0,0,0,5.417-7.081,7.988,7.988,0,0,1,1.519-2.505c4.25-4.562,3.752-17.961-.926-24.94a35.715,35.715,0,0,1-2.624-4.262,7.989,7.989,0,0,0-2.293-1.769,7.252,7.252,0,0,1-2.308-1.848.524.524,0,0,0-.563-.433,6.318,6.318,0,0,1-2.165-1.515c-3.155-2.956-13.762-5.141-18.932-3.9m256.271.2c-4.538.617-7.166,1.623-8.991,3.443a18.593,18.593,0,0,1-3.6,2.622,7.96,7.96,0,0,0-2.978,2.958,7.744,7.744,0,0,1-2.228,2.714c-.81.53-1.911,2.377-2.708,4.544a36.37,36.37,0,0,1-2.214,5.011c-1.272,2-1.2,10.069.1,11.509a3.965,3.965,0,0,1,.993,1.607,14.68,14.68,0,0,0,1.135,2.84,15.641,15.641,0,0,1,1.134,2.769,5.881,5.881,0,0,0,1.524,1.853,14.791,14.791,0,0,1,2.486,3.226,9.313,9.313,0,0,0,3.165,3.051,25.189,25.189,0,0,1,3.859,2.748c4.3,3.916,27.658,3.268,27.658-.768A8.081,8.081,0,0,1,518.469,371a14.921,14.921,0,0,0,4.733-4.93c1.205-1.891,2.4-3.441,2.645-3.441,1.81,0,4.276-11.359,3.372-15.537-.382-1.773-.819-3.87-.969-4.664-.38-2-2.066-5.771-2.582-5.771a13.256,13.256,0,0,1-2.442-3.319,15.375,15.375,0,0,0-3.65-4.284,26.727,26.727,0,0,1-3.461-2.61c-3.423-3.073-12-4.68-19.525-3.66M254.962,325.2a9.553,9.553,0,0,1,3.136,2.005,1.526,1.526,0,0,0,1.034.794c.676,0,1.089.307,4.741,3.532,2.271,2,5.019,6.222,5.019,7.7a14.975,14.975,0,0,0,1.442,2.618c2.261,3.581,2.1,12.259-.311,16.738a19.074,19.074,0,0,0-1.708,3.78c0,1.036-6.049,7.8-8.125,9.092a18.122,18.122,0,0,0-2.265,1.566c-3.317,3.912-19.677,3.457-24.806-.693a8.394,8.394,0,0,0-2.614-1.623c-.772,0-2.279-1.755-3.449-4.02a9.782,9.782,0,0,0-2.854-3.037c-6.689-4.384-6.275-22.159.68-29.184a12.581,12.581,0,0,0,2.452-2.986c0-1.007,8.357-6.041,12.409-7.477,2.74-.969,12.05-.238,15.219,1.194m255.13-.307c6.943,2.862,15.363,11.245,16.667,16.6a6.128,6.128,0,0,0,.841,1.92c2.756,3.532-.081,15.125-5.476,22.381-.242.325-.93,1.249-1.53,2.052A15.943,15.943,0,0,1,516.271,371a12.239,12.239,0,0,0-3.23,2.066c0,3.368-19.621,3.4-23.594.043a37.261,37.261,0,0,0-3.8-2.543,11.572,11.572,0,0,1-3.66-3.392,23.584,23.584,0,0,0-2.564-3.585,12.873,12.873,0,0,1-2.24-3.823,11.715,11.715,0,0,0-1.239-2.773c-2.582-3.25-.492-16.748,3.191-20.622a19.29,19.29,0,0,0,2.557-3.435,7.166,7.166,0,0,1,3.656-3.754c.786-.4,2.748-1.623,4.355-2.712,4.465-3.017,14.926-3.825,20.39-1.574M288.225,356.358c-4.985,1.609-6.653,3.461-7.54,8.383a8.99,8.99,0,0,1-.961,2.927c-2.635,3.325-.762,7.589,3.843,8.749,3.559.9,175.62.92,179.793.026,4.274-.918,5.854-2.98,5.129-6.7-1.548-7.916-3.894-11.495-8.611-13.138-3.025-1.054-168.413-1.3-171.653-.25m171.3,1.294c6.167,2.622,10.047,13.053,6.189,16.645l-1.418,1.324-88.323.169c-105.583.2-96.761.835-95.238-6.856,1.487-7.51,3.563-10.5,8.093-11.65,3.029-.77,168.862-.412,170.7.368" transform="translate(1.483 1.949)" fill="#707070" fill-rule="evenodd"/>
  </g>
</svg>
